<svg xmlns="http://www.w3.org/2000/svg" viewBox="0 0 519.5 443.39"><defs><style>.acb5b698-ddb7-413f-93d7-3a60d255c6d7{fill:#fff;}.\34 552e88c-a727-4a3b-8709-5af4ef3c505d{fill:none;}</style></defs><title>eye11_1</title><g id="2aac97d7-a2df-4d9f-a18e-9d3a64ad813f" data-name="Слой 2"><g id="ee24249c-2725-4586-bc60-d119c8348343" data-name="Layer 1 copy 2"><path id="gogogo" class="acb5b698-ddb7-413f-93d7-3a60d255c6d7" d="M446.13,341.24a10.55,10.55,0,0,0-3.22.73,9.24,9.24,0,0,0-2.31,1.37,17.26,17.26,0,0,0-1.78,1.81L437.09,347q-3.47,3.69-7.08,7.24-7.2,7.1-14.89,13.69A277.66,277.66,0,0,1,382.62,392a221.62,221.62,0,0,1-36,18.66,177.51,177.51,0,0,1-39.3,10.88,150.9,150.9,0,0,1-20.44,1.69c-6.79.09-13.59-.16-20.36-.65a256.79,256.79,0,0,1-40.19-6.25A292,292,0,0,1,150.44,387l2.54.82h0c-9.42-1.68-18.83-3-28.4-5.17a69,69,0,0,1-7.28-2,29.1,29.1,0,0,1-3.83-1.59,12,12,0,0,1-4.2-3.31,7.34,7.34,0,0,1-1.45-3.56,7.79,7.79,0,0,1,.43-3.51,7.92,7.92,0,0,1,.73-1.5l.55-.88c.35-.55.71-1.06,1.06-1.57,1.41-2,2.85-3.94,4.27-5.87,5.74-7.67,11.65-15.12,17.81-22.4s12.74-14.17,19.51-20.88a363,363,0,0,1,43.53-37.12C211.23,267.34,228,257.61,246.17,251a134.83,134.83,0,0,1,28.16-7.1,108.75,108.75,0,0,1,14.58-1,137,137,0,0,1,14.5.81c19.27,2.09,37.85,8.36,54.86,17.19a234.45,234.45,0,0,1,47,32.69q10.73,9.47,20.49,20,4.87,5.24,9.48,10.72,2.3,2.74,4.53,5.56l1.11,1.41a6.41,6.41,0,0,0,1.26,1.3,7.84,7.84,0,0,0,4.29,1.47,3.63,3.63,0,0,1,0,7.24Zm-9.36-4.3c0-.1-.05-.21-.09-.3a5.55,5.55,0,0,0-.89-1.51l-1.07-1.38q-2.15-2.75-4.38-5.43-4.46-5.38-9.21-10.53a276,276,0,0,0-19.95-19.62,246.72,246.72,0,0,0-21.93-17.31,193.73,193.73,0,0,0-23.87-14.35c-16.53-8.38-34.38-14.18-52.69-16a123.19,123.19,0,0,0-13.75-.62A101.65,101.65,0,0,0,275.34,251a127.43,127.43,0,0,0-26.52,7.08,178.89,178.89,0,0,0-25,11.92,249.81,249.81,0,0,0-23.33,15.15,354.53,354.53,0,0,0-42.21,36.6c-6.58,6.62-12.92,13.49-19.22,20.38s-12.44,14-18.05,21.38c-1.4,1.84-2.75,3.74-4,5.61-.31.47-.61.93-.89,1.38l-.37.63c-.11.18-.19.39-.06.08,0,.18,0,.15,0,0a1.89,1.89,0,0,0-.08-.35,6,6,0,0,0,1.44.86,20.89,20.89,0,0,0,2.75,1,61,61,0,0,0,6.45,1.35c4.47.7,9.09,1.14,13.73,1.43s9.32.45,14,.44h0l.27,0a5.5,5.5,0,0,1,2.27.79c5.51,3.44,11.19,6.66,17,9.67s11.75,5.75,17.78,8.32a277.73,277.73,0,0,0,37.16,12.81,247.47,247.47,0,0,0,38.68,7c6.53.64,13.07,1,19.62,1a143.25,143.25,0,0,0,19.44-1.27A162.47,162.47,0,0,0,344,404.29a214.86,214.86,0,0,0,35.14-17.73A268.65,268.65,0,0,0,411,363.14q7.53-6.42,14.61-13.35,3.53-3.46,6.93-7l1.69-1.8a14,14,0,0,0,1.58-1.89A7.59,7.59,0,0,0,436.76,336.94Z"/><path class="acb5b698-ddb7-413f-93d7-3a60d255c6d7" d="M121.39,277.12A232.64,232.64,0,0,1,153,245.66a187.61,187.61,0,0,1,37.71-24,164.56,164.56,0,0,1,64.79-16c3.72-.15,7.45-.17,11.15-.08s7.44.32,11.14.66a222.11,222.11,0,0,1,43.36,8.71,309.21,309.21,0,0,1,41.06,15.75,349.42,349.42,0,0,1,38.54,20.95c6.19,3.89,12.25,8,18.14,12.33a200.88,200.88,0,0,1,17,13.91,1.58,1.58,0,0,1-2.12,2.36h0A197.42,197.42,0,0,0,416.75,267c-5.91-4.13-12-8-18.2-11.71A344.6,344.6,0,0,0,360,235.56a303.35,303.35,0,0,0-40.65-14.42,215.1,215.1,0,0,0-42.17-7.38,160.69,160.69,0,0,0-42.3,2.76A155.69,155.69,0,0,0,195,230.41,177.29,177.29,0,0,0,160,254a221.16,221.16,0,0,0-29.31,30.69,6,6,0,0,1-9.41-7.45l.08-.1Z"/><path class="acb5b698-ddb7-413f-93d7-3a60d255c6d7" d="M348.56,254.28c-1.4,2.6-.87,3.54-.15,4.2s1.29,1.51,1.91,2.28q1.86,2.31,3.59,4.73a94.86,94.86,0,0,1,6.29,10.08,91.81,91.81,0,0,1,8.5,22.23,85.6,85.6,0,0,1,2.21,23.87,80.53,80.53,0,0,1-4.86,23.62,86.52,86.52,0,0,1-28.44,38.43,86.05,86.05,0,0,1-91,8.27,84.27,84.27,0,0,1-34.41-32.18,85.52,85.52,0,0,1-11.71-45.18,91.08,91.08,0,0,1,3.44-23.14,95.52,95.52,0,0,1,4-11q1.17-2.69,2.53-5.31.68-1.3,1.4-2.58c.16-1.07,2.33-.82-1.73-4.58l10.14,6.41c-5.08-2.13-3.9-.25-4.71.32q-.72,1.2-1.4,2.42-1.36,2.44-2.55,5a70.43,70.43,0,0,0-4,10.45,78.67,78.67,0,0,0-2.38,10.94,80.77,80.77,0,0,0-.71,11.18,78.26,78.26,0,0,0,12.79,42,82.68,82.68,0,0,0,14.35,16.66,79.83,79.83,0,0,0,18.22,12.14A78.59,78.59,0,0,0,357.35,342a84,84,0,0,0,4.92-21,80.28,80.28,0,0,0-.63-21.77,72.39,72.39,0,0,0-6.82-20.85,71.51,71.51,0,0,0-5.73-9.43q-1.61-2.25-3.4-4.35-.9-1.05-1.82-2.08c-.55-.77-1.31-1.23-4,0Z"/><rect class="4552e88c-a727-4a3b-8709-5af4ef3c505d" x="115.5" y="203.45" width="332" height="239.94"/><path class="acb5b698-ddb7-413f-93d7-3a60d255c6d7" d="M165,393.89c-.71-.66-1.19-1.17-1.73-1.75s-1-1.11-1.53-1.67c-1-1.13-1.95-2.24-2.86-3.38q-2.76-3.42-5.17-7a82.31,82.31,0,0,1-8.06-15.3A79.31,79.31,0,0,1,141.12,348q-.67-4.32-.94-8.73c-.18-2.94-.21-5.9-.26-8.92v-.21a6.15,6.15,0,0,1,12.29-.19,6.28,6.28,0,0,1-.47,2.45,32,32,0,0,0-2,7.25,37.84,37.84,0,0,0-.44,7.51,41.9,41.9,0,0,0,3.39,14.7,49,49,0,0,0,8,12.88c.81,1,1.69,1.89,2.59,2.79s1.81,1.77,2.78,2.57,1.94,1.6,3,2.3c.51.35,1,.7,1.53,1a11.58,11.58,0,0,0,1.45.79,6.19,6.19,0,1,1-6.4,10.33Z"/><path class="acb5b698-ddb7-413f-93d7-3a60d255c6d7" d="M346,297.55l0,.86v1.06c0,.68,0,1.34-.09,2q-.14,2-.48,4a40.63,40.63,0,0,1-2.14,7.78,37.77,37.77,0,0,1-8.92,13.37,41.11,41.11,0,0,1-13.5,8.62,38.75,38.75,0,0,1-7.72,2.12c-1.31.22-2.64.38-4,.47-.66,0-1.32.07-2,.09h-1l-1.06,0-.86,0-1-.07c-.67-.05-1.32-.13-2-.21q-2-.26-3.89-.71a39.59,39.59,0,0,1-30.56-39.43,39,39,0,0,1,11.51-26.84A39.57,39.57,0,0,1,346,297.48Zm-11.12-.07a31,31,0,0,0-17.62-29,30.72,30.72,0,0,0-24.38-.82,31.54,31.54,0,0,0-10.55,6.94,32.42,32.42,0,0,0-6.92,10.55,31.15,31.15,0,0,0,.62,24.46,30.92,30.92,0,0,0,17.53,16.12,30.09,30.09,0,0,0,5.78,1.46c1,.15,2,.24,3,.29.49,0,1,0,1.47,0h.69l.87,0a30.16,30.16,0,0,0,20.59-9.34,33.76,33.76,0,0,0,6.35-9.47,29.14,29.14,0,0,0,1.86-5.44q.33-1.41.53-2.85c.06-.48.12-1,.16-1.44l.05-.67,0-.86Z"/><polygon class="acb5b698-ddb7-413f-93d7-3a60d255c6d7" points="330.97 275.66 304.13 296.75 342.09 291.76 337.87 280.26 330.97 275.66"/><polygon class="acb5b698-ddb7-413f-93d7-3a60d255c6d7" points="0 96.39 27.5 147.39 43.5 136.39 73 188.39 94 180.89 117.5 228.89 102 159.89 72 166.39 45.5 122.39 27.5 132.39 0 96.39"/><polygon class="acb5b698-ddb7-413f-93d7-3a60d255c6d7" points="519.5 92.39 492 143.39 476 132.39 446.5 184.39 425.5 176.89 402 224.89 417.5 155.89 447.5 162.39 474 118.39 492 128.39 519.5 92.39"/><polygon class="acb5b698-ddb7-413f-93d7-3a60d255c6d7" points="291.98 0 295.01 57.86 275.63 56.79 277.47 116.54 255.63 121.06 260.51 174.28 237.88 107.28 266.88 97.23 266.64 45.87 287.21 45.05 291.98 0"/></g></g></svg>