<svg xmlns="http://www.w3.org/2000/svg" viewBox="0 0 519.5 443.39">
<defs>
	<style>.cls-1{fill:red;}.cls-2{fill:none;}</style>
</defs>
	<title>Ресурс 1</title><g id="sloy-2" data-name="Слой 2"><g id="Layer_1_copy_2" data-name="Layer 1 copy 2"><path id="mainEye" class="cls-1" d="M447.5,337.65a6.25,6.25,0,0,1-1.5,3.6h-.12l-.24,0c-.16,0-.3,0-.45.06s-.57.09-.83.16a11.07,11.07,0,0,0-1.44.46,9.28,9.28,0,0,0-2.31,1.37,16.84,16.84,0,0,0-1.79,1.81L437.08,347q-3.47,3.69-7.08,7.24-7.21,7.1-14.89,13.69A277.48,277.48,0,0,1,382.62,392a221.21,221.21,0,0,1-36,18.65,177.66,177.66,0,0,1-39.29,10.89,153.14,153.14,0,0,1-20.44,1.69c-6.81.09-13.58-.16-20.36-.64a256,256,0,0,1-40.19-6.25A292.37,292.37,0,0,1,150.44,387h0l2.54.82c-9.42-1.68-18.84-3-28.4-5.17a70.35,70.35,0,0,1-7.29-2,29.83,29.83,0,0,1-3.84-1.59,15.06,15.06,0,0,1-2.05-1.25,9.71,9.71,0,0,1-2.15-2.07,7.33,7.33,0,0,1-1.46-3.55,7.71,7.71,0,0,1,.43-3.51,8.12,8.12,0,0,1,.42-1l.3-.54.55-.89c.35-.54.71-1.07,1.06-1.57,1.41-2,2.85-3.94,4.27-5.87,5.74-7.67,11.65-15.12,17.81-22.4s12.74-14.17,19.51-20.88a363.29,363.29,0,0,1,43.53-37.13c15.54-11.14,32.32-20.84,50.49-27.5a133.81,133.81,0,0,1,28.16-7.1,106.41,106.41,0,0,1,14.58-1,139.74,139.74,0,0,1,14.5.81c19.27,2.08,37.85,8.36,54.86,17.18a235,235,0,0,1,47,32.69q10.73,9.47,20.49,20,4.88,5.23,9.48,10.72,2.3,2.74,4.53,5.56l1.11,1.41a6.44,6.44,0,0,0,1.26,1.3,6.84,6.84,0,0,0,1.76,1,7.27,7.27,0,0,0,1.13.32,6.28,6.28,0,0,0,.65.11l.17,0a5.08,5.08,0,0,1,.75,1A7,7,0,0,1,447.5,337.65Zm-12-.46a5.08,5.08,0,0,0,.66,2.38,3.37,3.37,0,0,0,.62.81l0-.15a4.13,4.13,0,0,0,.13-.6,5.56,5.56,0,0,0,.08-1.11,5.71,5.71,0,0,0-.36-1.88,5.57,5.57,0,0,0-.89-1.51l-1.07-1.38q-2.14-2.75-4.38-5.43-4.47-5.37-9.21-10.53a276.35,276.35,0,0,0-19.94-19.62,247.26,247.26,0,0,0-21.93-17.3,194.17,194.17,0,0,0-23.86-14.35c-16.53-8.37-34.38-14.18-52.69-16a125.65,125.65,0,0,0-13.75-.62A99.29,99.29,0,0,0,275.34,251a126.42,126.42,0,0,0-26.51,7.08,178.33,178.33,0,0,0-25,11.91,249.72,249.72,0,0,0-23.34,15.15,354.87,354.87,0,0,0-42.2,36.6c-6.58,6.62-12.92,13.48-19.23,20.38s-12.44,14-18.05,21.38c-1.4,1.84-2.75,3.74-4,5.61-.31.47-.61.93-.89,1.38l-.37.62-.13.24s.08-.2.07-.15,0,.15,0,0-.1-.37-.07-.34a6,6,0,0,0,1.44.85,21.53,21.53,0,0,0,2.75,1,62.45,62.45,0,0,0,6.45,1.35c4.47.7,9.09,1.14,13.73,1.42s9.32.45,14,.44a3.56,3.56,0,0,1,1.52.33l1,.48h0q8.27,5.15,17,9.67c5.81,3,11.76,5.74,17.78,8.32a278.6,278.6,0,0,0,37.16,12.81,246.7,246.7,0,0,0,38.68,7c6.52.64,13.09,1,19.62,1a145.54,145.54,0,0,0,19.44-1.27,157.82,157.82,0,0,0,19.17-3.81A176.37,176.37,0,0,0,344,404.29a214.56,214.56,0,0,0,35.14-17.73A268.62,268.62,0,0,0,411,363.14q7.53-6.42,14.61-13.35,3.54-3.46,6.93-7l1.69-1.8a13.62,13.62,0,0,0,1.58-1.89,7.7,7.7,0,0,0,1-2.38,8.27,8.27,0,0,0,.19-1.43,6.42,6.42,0,0,0,0-.8,3.87,3.87,0,0,0,0-.41l0-.21,0-.11A5.8,5.8,0,0,0,435.5,337.19Z"/><path class="cls-1" d="M121.39,277.12A232.64,232.64,0,0,1,153,245.66a187.61,187.61,0,0,1,37.71-24,164.56,164.56,0,0,1,64.79-16c3.72-.15,7.45-.17,11.15-.08s7.44.32,11.14.66a222.11,222.11,0,0,1,43.36,8.71,309.21,309.21,0,0,1,41.06,15.75,349.42,349.42,0,0,1,38.54,20.95c6.19,3.89,12.25,8,18.14,12.33a200.88,200.88,0,0,1,17,13.91,1.58,1.58,0,0,1-2.12,2.36h0A197.42,197.42,0,0,0,416.75,267c-5.91-4.13-12-8-18.2-11.71A344.6,344.6,0,0,0,360,235.56a303.35,303.35,0,0,0-40.65-14.42,215.1,215.1,0,0,0-42.17-7.38,160.69,160.69,0,0,0-42.3,2.76A155.69,155.69,0,0,0,195,230.41,177.29,177.29,0,0,0,160,254a221.16,221.16,0,0,0-29.31,30.69,6,6,0,0,1-9.41-7.45l.08-.1Z"/><path class="cls-1" d="M348.56,254.28c-1.4,2.6-.87,3.54-.15,4.2s1.29,1.51,1.91,2.28q1.86,2.31,3.59,4.73a94.86,94.86,0,0,1,6.29,10.08,91.81,91.81,0,0,1,8.5,22.23,85.6,85.6,0,0,1,2.21,23.87,80.53,80.53,0,0,1-4.86,23.62,86.52,86.52,0,0,1-28.44,38.43,86.05,86.05,0,0,1-91,8.27,84.27,84.27,0,0,1-34.41-32.18,85.52,85.52,0,0,1-11.71-45.18,91.08,91.08,0,0,1,3.44-23.14,95.52,95.52,0,0,1,4-11q1.17-2.69,2.53-5.31.68-1.3,1.4-2.58c.16-1.07,2.33-.82-1.73-4.58l10.14,6.41c-5.08-2.13-3.9-.25-4.71.32q-.72,1.2-1.4,2.42-1.36,2.44-2.55,5a70.43,70.43,0,0,0-4,10.45,78.67,78.67,0,0,0-2.38,10.94,80.77,80.77,0,0,0-.71,11.18,78.26,78.26,0,0,0,12.79,42,82.68,82.68,0,0,0,14.35,16.66,79.83,79.83,0,0,0,18.22,12.14A78.59,78.59,0,0,0,357.35,342a84,84,0,0,0,4.92-21,80.28,80.28,0,0,0-.63-21.77,72.39,72.39,0,0,0-6.82-20.85,71.51,71.51,0,0,0-5.73-9.43q-1.61-2.25-3.4-4.35-.9-1.05-1.82-2.08c-.55-.77-1.31-1.23-4,0Z"/><rect class="cls-2" x="115.5" y="203.45" width="332" height="239.94"/><path class="cls-1" d="M165,393.89c-.71-.66-1.19-1.17-1.73-1.75s-1-1.11-1.53-1.67c-1-1.13-1.95-2.24-2.86-3.38q-2.76-3.42-5.17-7a82.31,82.31,0,0,1-8.06-15.3A79.31,79.31,0,0,1,141.12,348q-.67-4.32-.94-8.73c-.18-2.94-.21-5.9-.26-8.92v-.21a6.15,6.15,0,0,1,12.29-.19,6.28,6.28,0,0,1-.47,2.45,32,32,0,0,0-2,7.25,37.84,37.84,0,0,0-.44,7.51,41.9,41.9,0,0,0,3.39,14.7,49,49,0,0,0,8,12.88c.81,1,1.69,1.89,2.59,2.79s1.81,1.77,2.78,2.57,1.94,1.6,3,2.3c.51.35,1,.7,1.53,1a11.58,11.58,0,0,0,1.45.79,6.19,6.19,0,1,1-6.4,10.33Z"/><path class="cls-1" d="M346,297.55l0,.86v1.06c0,.68,0,1.34-.09,2q-.14,2-.48,4a40.63,40.63,0,0,1-2.14,7.78,37.77,37.77,0,0,1-8.92,13.37,41.11,41.11,0,0,1-13.5,8.62,38.75,38.75,0,0,1-7.72,2.12c-1.31.22-2.64.38-4,.47-.66,0-1.32.07-2,.09h-1l-1.06,0-.86,0-1-.07c-.67-.05-1.32-.13-2-.21q-2-.26-3.89-.71a39.59,39.59,0,0,1-30.56-39.43,39,39,0,0,1,11.51-26.84A39.57,39.57,0,0,1,346,297.48Zm-11.12-.07a31,31,0,0,0-17.62-29,30.72,30.72,0,0,0-24.38-.82,31.54,31.54,0,0,0-10.55,6.94,32.42,32.42,0,0,0-6.92,10.55,31.15,31.15,0,0,0,.62,24.46,30.92,30.92,0,0,0,17.53,16.12,30.09,30.09,0,0,0,5.78,1.46c1,.15,2,.24,3,.29.49,0,1,0,1.47,0h.69l.87,0a30.16,30.16,0,0,0,20.59-9.34,33.76,33.76,0,0,0,6.35-9.47,29.14,29.14,0,0,0,1.86-5.44q.33-1.41.53-2.85c.06-.48.12-1,.16-1.44l.05-.67,0-.86Z"/><polygon class="cls-1" points="330.97 275.66 304.13 296.75 342.09 291.76 337.87 280.26 330.97 275.66"/><polygon class="cls-1" points="0 96.39 27.5 147.39 43.5 136.39 73 188.39 94 180.89 117.5 228.89 102 159.89 72 166.39 45.5 122.39 27.5 132.39 0 96.39"/><polygon class="cls-1" points="519.5 92.39 492 143.39 476 132.39 446.5 184.39 425.5 176.89 402 224.89 417.5 155.89 447.5 162.39 474 118.39 492 128.39 519.5 92.39"/><polygon class="cls-1" points="291.98 0 295.01 57.86 275.63 56.79 277.47 116.54 255.63 121.06 260.51 174.28 237.88 107.28 266.88 97.23 266.64 45.87 287.21 45.05 291.98 0"/></g></g></svg>