<svg xmlns="http://www.w3.org/2000/svg" viewBox="0 0 345.74 239.94"><defs><style>.cls-1{fill:#fff;}.cls-2{fill:none;}</style></defs><title>eye2</title><g id="Слой_2" data-name="Слой 2"><g id="Layer_3" data-name="Layer 3"><path class="cls-1" d="M337.74,138.37c-4.12,5.3-8.29,10.35-12.71,15.29q-6.88,7.7-14.28,14.92a277.66,277.66,0,0,1-31.58,26.66,213.53,213.53,0,0,1-35.77,21,158.7,158.7,0,0,1-39.83,12.42,137.49,137.49,0,0,1-41.92.33,191.43,191.43,0,0,1-40.37-10.65c-26.08-9.64-50.1-23.83-73.44-37.72l3.66.87h0c-9.81-.1-19.58.09-29.58-.75a74.9,74.9,0,0,1-7.6-1c-1.29-.24-2.59-.54-3.91-.91a23.84,23.84,0,0,1-4.08-1.51,12.62,12.62,0,0,1-4.21-3.17,9,9,0,0,1-1.6-2.8,9.12,9.12,0,0,1-.5-3.13,14.8,14.8,0,0,1,1-4.82l.32-.87a9.57,9.57,0,0,1,.52-1.3c.26-.5.45-.79.65-1.1l.57-.86c1.49-2.14,2.91-4.1,4.41-6.06s3-3.91,4.46-5.82c3-3.86,6-7.67,9.16-11.41a253.29,253.29,0,0,1,20-21.23c7-6.75,14.26-13.27,21.78-19.48S78.17,83.19,86.18,77.6c16-11.13,33.08-21,51.45-28.12A154,154,0,0,1,166,41.3a115.1,115.1,0,0,1,14.78-1.74c2.47-.13,5-.16,7.44-.13s5,.13,7.44.31A140.87,140.87,0,0,1,224.83,45a169.32,169.32,0,0,1,27.49,10.81c17.65,8.77,33.76,20.3,48.43,33.28a270.8,270.8,0,0,1,20.83,20.72q4.9,5.47,9.53,11.2,2.31,2.87,4.55,5.8l1.11,1.48a8.4,8.4,0,0,1,1,1.57,7,7,0,0,1,.6,4.17ZM331,136.88a7.25,7.25,0,0,1-1.44-1,8.25,8.25,0,0,1-1.15-1.33l-1.05-1.41q-2.12-2.81-4.34-5.57-4.43-5.52-9.15-10.81c-6.24-7.1-12.86-13.87-19.74-20.34C280.34,83.48,265.19,72,248.59,63.09S213.87,48.15,195.18,46.8c-2.33-.18-4.67-.29-7-.33s-4.66,0-7,.15a108,108,0,0,0-13.86,1.73,137.05,137.05,0,0,0-26.85,8.26C123.15,63.95,106.94,74,91.74,85.31a439.47,439.47,0,0,0-43.13,37.21c-6.77,6.68-13.43,13.47-20.15,20.22-3.35,3.38-6.67,6.8-9.88,10.3-1.59,1.76-3.18,3.52-4.7,5.33s-3,3.64-4.29,5.45l-.43.64c-.13.19-.26.41-.28.45.22-.54,0,.16-.13.38l-.3.82a7,7,0,0,0-.54,2.2.92.92,0,0,0,.29.72,5,5,0,0,0,1.59,1,21.22,21.22,0,0,0,5.85,1.48,65.32,65.32,0,0,0,6.75.51,127,127,0,0,0,14-.6c4.7-.45,9.4-1.06,14.09-1.92h0l.3,0a5.51,5.51,0,0,1,3.35.89C65.6,177.91,76.89,185.27,88.57,192a298.21,298.21,0,0,0,36,17.83,182.76,182.76,0,0,0,38.3,11,134.1,134.1,0,0,0,19.75,1.8,124.94,124.94,0,0,0,19.76-1.37,146.66,146.66,0,0,0,38.13-11.37,203,203,0,0,0,34.77-20.07,271.21,271.21,0,0,0,31-25.85q7.28-7,14.07-14.52,3.39-3.75,6.64-7.61C328.36,140.22,329.69,138.55,331,136.88Z"/><path class="cls-1" d="M18.59,72.77l.93-1.09,1-1.17q1-1.13,2.06-2.2,2.09-2.14,4.27-4.1c2.9-2.62,5.9-5.05,9-7.34A197.38,197.38,0,0,1,54.78,44.41,317.18,317.18,0,0,1,94.95,24.92,378.67,378.67,0,0,1,137,10.67a316.56,316.56,0,0,1,43.66-8.85C188.11.89,195.57.26,203.07.07a154.19,154.19,0,0,1,22.66,1,123,123,0,0,1,43.45,13.48c13.49,7.12,25.35,16.68,36.08,26.86s20.56,21,31,30.65h0a4.78,4.78,0,0,1-6.42,7.08c-11.11-9.93-21-20.62-31.6-30.28s-21.73-18.38-34.15-24.7a111.78,111.78,0,0,0-39.72-11.68c-13.83-1.46-28.06-.55-42.13,1.4A304.05,304.05,0,0,0,140.52,23a365.46,365.46,0,0,0-40.42,14.36A303.55,303.55,0,0,0,62,56.54,183.17,183.17,0,0,0,44.58,68.33,87.59,87.59,0,0,0,30,82.17a7.38,7.38,0,0,1-11.49-9.25l.1-.12Z"/><path class="cls-1" d="M244.52,53a18.13,18.13,0,0,1,2.14,2q1,1.09,2,2.22,1.95,2.25,3.74,4.64a84.72,84.72,0,0,1,16.92,56.35,83.44,83.44,0,0,1-5,23.61,86.15,86.15,0,0,1-119.44,46.64,88.79,88.79,0,0,1-34.92-31.83,85.1,85.1,0,0,1-13.23-45.5,86.69,86.69,0,0,1,.86-12,84.93,84.93,0,0,1,2.62-11.73,77.9,77.9,0,0,1,4.3-11.21q1.28-2.72,2.74-5.33.73-1.31,1.51-2.59c.78-.68,0-2.36,4-1l1.33.84c1.48,1.5,1.78,2.21,1.68,2.68s-.45.8-.67,1.2q-.67,1.2-1.3,2.41-1.25,2.43-2.33,4.95a87.15,87.15,0,0,0-3.64,10.29,83.43,83.43,0,0,0-3.06,21.55A78.67,78.67,0,0,0,116,152.89,76.58,76.58,0,0,0,148,182,78.53,78.53,0,0,0,255.59,138.6a81.65,81.65,0,0,0,3.83-42.72,77.42,77.42,0,0,0-6.79-20.72,78.92,78.92,0,0,0-5.54-9.49q-1.55-2.27-3.26-4.44-.86-1.08-1.75-2.14a27,27,0,0,1-1.74-2.18Z"/><rect class="cls-2" x="13.74" width="332" height="239.94"/><path class="cls-1" d="M67.53,191.38c-1.44-1.13-2.6-2.14-3.84-3.21s-2.41-2.13-3.57-3.22c-2.34-2.18-4.59-4.43-6.75-6.77A80.6,80.6,0,0,1,41.95,162.7,47.62,47.62,0,0,1,36,143.79a43.35,43.35,0,0,1,.38-10.28A62.27,62.27,0,0,1,39,123.43l.08-.25A6.12,6.12,0,0,1,50.67,127a6.23,6.23,0,0,1-1.08,2,23.68,23.68,0,0,0-5.34,14.49,26.51,26.51,0,0,0,1.09,7.92,35.32,35.32,0,0,0,3.3,7.54,51.69,51.69,0,0,0,10.91,12.91,63.65,63.65,0,0,0,6.84,5.2c1.2.78,2.41,1.55,3.66,2.23a32.71,32.71,0,0,0,3.68,1.83,6.08,6.08,0,1,1-6,10.46Z"/><path class="cls-1" d="M223,109l0,1-.06,1.16c-.05.75-.12,1.47-.2,2.21a42.89,42.89,0,0,1-.76,4.36,43.89,43.89,0,0,1-2.84,8.33,47.85,47.85,0,0,1-10,14.17,44.22,44.22,0,0,1-62.47-.07,41.24,41.24,0,0,1-8.33-47.57,49.15,49.15,0,0,1,9.53-13.62,43.56,43.56,0,0,1,13.68-9.4,44,44,0,0,1,61.5,39.4Zm-11.12-.07a54.88,54.88,0,0,0-.44-6.69,33.13,33.13,0,0,0-1.69-6.53,34.86,34.86,0,0,0-7.12-11.58A35.52,35.52,0,0,0,191.52,76a35.26,35.26,0,0,0-27.65-.86,35.88,35.88,0,0,0-12,7.79A31.87,31.87,0,0,0,144.19,95a36.56,36.56,0,0,0-1.9,14,39.65,39.65,0,0,0,3,13.43A36.07,36.07,0,0,0,153,133.76a35.24,35.24,0,0,0,31.68,9.65,34.17,34.17,0,0,0,6.57-2,35.15,35.15,0,0,0,11.32-7.68,32,32,0,0,0,7.18-11.53,34.75,34.75,0,0,0,1.66-6.54c.18-1.11.3-2.22.37-3.34,0-.55.07-1.12.08-1.67v-1.68Z"/><polygon class="cls-1" points="206.83 84.38 176.63 108.11 217.74 116.26 214.59 89.56 206.83 84.38"/><circle class="cls-1" cx="167.3" cy="92.82" r="5.81"/></g></g></svg>