<svg xmlns="http://www.w3.org/2000/svg" viewBox="0 0 368.7 234.19"><defs><style>.cls-1{fill:#fff;}</style></defs><title>eye3</title><g id="Слой_2" data-name="Слой 2"><g id="Layer_1_copy_3" data-name="Layer 1 copy 3"><path class="cls-1" d="M353.35,131l.22.06c2.42.28,4.81,4.35,4.53,4.53a7.48,7.48,0,0,1,.32,2.55,7.94,7.94,0,0,1-.16,1.17c-.09.38-.1.41-.17.63s-.11.34-.18.51-.16.39-.25.58a12.55,12.55,0,0,1-.7,1.28c-.38.62-.71,1.08-1,1.52-.64.87-1.25,1.62-1.86,2.37-1.21,1.48-2.46,2.84-3.7,4.19-2.49,2.68-5,5.25-7.61,7.76-5.16,5-10.47,9.8-15.93,14.43a326.19,326.19,0,0,1-34.4,25.51,275.91,275.91,0,0,1-37.68,20.44,213.08,213.08,0,0,1-20.1,7.65,169.94,169.94,0,0,1-20.88,5.4,141.17,141.17,0,0,1-21.49,2.53c-1.81.08-3.62.09-5.43.1H184.2l-2.69,0q-5.34-.11-10.67-.43a322.35,322.35,0,0,1-42.29-5.49,335.72,335.72,0,0,1-41.3-10.81c-6.76-2.28-13.5-4.72-20.11-7.54a192.36,192.36,0,0,1-19.59-9.48l4.66.7h0c-5,.82-9.94,1.67-15,2.27q-3.78.48-7.64.72a75,75,0,0,1-7.82.17,44.52,44.52,0,0,1-8.12-.92,21.39,21.39,0,0,1-8.36-3.65,13.15,13.15,0,0,1-5.12-8.82,18,18,0,0,1,0-4.78,21.36,21.36,0,0,1,.42-2.21q.13-.54.29-1.07l.16-.52.08-.26.13-.37a6.33,6.33,0,0,1,.27-.6l.18-.34.31-.53.57-.9,1.11-1.62c.72-1.06,1.45-2.08,2.19-3.1l4.45-6c3-4,6-7.9,9.12-11.76a245.41,245.41,0,0,1,20-22c7-7,14.31-13.71,21.88-20.12s15.38-12.54,23.47-18.31c16.18-11.5,33.47-21.66,52.09-29A151,151,0,0,1,165.8,59a111.84,111.84,0,0,1,15.06-1.71c2.54-.11,5.07-.11,7.55-.09s5,.12,7.51.26q7.5.43,14.93,1.54t14.76,2.79a194.86,194.86,0,0,1,28.59,9.14c18.59,7.48,36,17.64,52.33,28.85,8.2,5.59,16.12,11.51,24,17.2,3.93,2.84,7.86,5.63,11.77,8.13,2,1.25,3.91,2.41,5.81,3.4S351.86,130.28,353.35,131Zm-3.73,13.18-.08,0a27.17,27.17,0,0,1-8.18-3.38c-2.38-1.37-4.57-2.83-6.68-4.3-4.22-3-8.14-6-12-9.09-7.73-6.14-15.28-12.23-23-18.08C284.31,97.6,268.18,87,250.72,79.05a160.64,160.64,0,0,0-55.27-14.43c-2.38-.17-4.79-.29-7.16-.36s-4.78-.08-7.13,0A104.8,104.8,0,0,0,167,65.88a132,132,0,0,0-27.34,8.32c-17.67,7.48-34,18-49.32,29.71a444.73,444.73,0,0,0-43.29,38.54L26.88,163.31c-3.36,3.49-6.68,7-9.87,10.65-1.59,1.81-3.16,3.65-4.64,5.53-.74.93-1.48,1.87-2.18,2.81-.35.47-.67.94-1,1.4l-.42.65-.15.26,0,.07s0,0,.08-.19l-.19.6-.2.71A13.38,13.38,0,0,0,8,187.16a8.19,8.19,0,0,0,0,2.54,5.11,5.11,0,0,0,2.15,3.49,12.18,12.18,0,0,0,5.11,1.89,32.44,32.44,0,0,0,6.49.38,74.18,74.18,0,0,0,13.74-2,120.11,120.11,0,0,0,13.68-4h0l.49-.11a5.45,5.45,0,0,1,4.17.81c11.13,7.51,23.73,13.37,36.58,18.29a278.84,278.84,0,0,0,39.77,11.72,274.16,274.16,0,0,0,41.11,5.73q5.18.32,10.36.43l2.57,0h2.61c1.7,0,3.4-.05,5.09-.14a133.32,133.32,0,0,0,20.26-2.59A161.23,161.23,0,0,0,232,218.13a187.49,187.49,0,0,0,19-7.92,246.75,246.75,0,0,0,35.53-21,334.86,334.86,0,0,0,32.21-25.92c5.09-4.64,10-9.43,14.77-14.38,2.36-2.47,4.67-5,6.87-7.53,1.1-1.27,2.16-2.56,3.16-3.8.49-.62,1-1.24,1.36-1.79.19-.27.36-.54.45-.66s0-.09-.06.13a2.92,2.92,0,0,0-.12.28c0,.12-.09.24-.12.36s0,.14-.12.47a5.87,5.87,0,0,0-.14,1,7,7,0,0,0,.3,2.38c-.28.12,2,4.16,4.44,4.39Z"/><path class="cls-1" d="M20.65,72.18A122.91,122.91,0,0,1,36.22,56.47,202.21,202.21,0,0,1,53.44,43.33,259.75,259.75,0,0,1,90.8,22.28,253.34,253.34,0,0,1,131,7.51,209.79,209.79,0,0,1,173.4.31a162,162,0,0,1,21.67.11c7.09.58,14.07,1.35,21.07,2.27a377.69,377.69,0,0,1,41.57,7.85A283.57,283.57,0,0,1,298,23.8,185.82,185.82,0,0,1,317,33.14q4.63,2.61,9.09,5.53c3,2,5.84,4,8.64,6.24a2.42,2.42,0,0,1-2.83,3.93l0,0a148.83,148.83,0,0,0-17.78-10.14,203.23,203.23,0,0,0-18.93-7.9,277.09,277.09,0,0,0-39.62-10.92,401.15,401.15,0,0,0-40.73-6.14c-6.82-.69-13.71-1.21-20.51-1.56a149.9,149.9,0,0,0-20.06.4,197.07,197.07,0,0,0-39.62,7.77c-6.48,1.93-12.87,4.19-19.19,6.64s-12.54,5.15-18.65,8.08A257.52,257.52,0,0,0,61.76,55.41,187.53,187.53,0,0,0,45.85,67.66,117.41,117.41,0,0,0,32,81.55a7.37,7.37,0,0,1-11.42-9.33Z"/><path class="cls-1" d="M42.13,120.2C61.58,96.43,85,75.87,111.92,60.64A171.88,171.88,0,0,1,155,43.37a137.92,137.92,0,0,1,46.51-3.5,172.79,172.79,0,0,1,44.81,11,323.14,323.14,0,0,1,41,19.49c13.18,7.25,26,14.94,39,22.07,6.49,3.58,13,7,19.74,10a106.75,106.75,0,0,0,20.62,7h0a2.42,2.42,0,0,1-.87,4.76A104.72,104.72,0,0,1,343.83,108c-7.09-2.75-14-5.93-20.72-9.23-13.49-6.68-26.58-13.89-39.85-20.51S256.6,65.43,242.81,60.62a161.85,161.85,0,0,0-42.22-9.18,125.81,125.81,0,0,0-42.33,4.35A150.1,150.1,0,0,0,138,63a191.29,191.29,0,0,0-19.21,9.78,222,222,0,0,0-35,25.52,265,265,0,0,0-30.26,31.26l0,0a7.37,7.37,0,0,1-11.4-9.36Z"/><path class="cls-1" d="M244.33,66.06a16.54,16.54,0,0,1,2,1.94q1,1,1.89,2.11,1.86,2.15,3.57,4.42A80.73,80.73,0,0,1,268,128.25a79.58,79.58,0,0,1-4.77,22.52,81.67,81.67,0,0,1-69.56,52.93,83.06,83.06,0,0,1-44.36-8.48A84.78,84.78,0,0,1,116,164.88,81.12,81.12,0,0,1,103.4,121.5a82.69,82.69,0,0,1,.82-11.41,80.89,80.89,0,0,1,2.5-11.19,74,74,0,0,1,4.11-10.69q1.22-2.59,2.62-5.08.7-1.24,1.44-2.47c.74-.65,0-2.26,3.92-.9l1.33.84c2.94,2.9,1.27,2.84,1.08,3.76q-.63,1.14-1.23,2.29-1.19,2.31-2.21,4.7a83.2,83.2,0,0,0-3.44,9.77,76.94,76.94,0,0,0,7.77,60,72.56,72.56,0,0,0,30.41,27.67,74,74,0,0,0,78.08-8.51,75.27,75.27,0,0,0,24-32.74A77.61,77.61,0,0,0,258.21,107a73.47,73.47,0,0,0-6.41-19.68,74.84,74.84,0,0,0-5.25-9q-1.47-2.16-3.09-4.22-.81-1-1.66-2A24.06,24.06,0,0,1,240.15,70Z"/><path class="cls-1" d="M68.44,209.61c-1.47-1.07-2.65-2-3.92-3s-2.46-2-3.66-3.06c-2.39-2.07-4.7-4.22-6.93-6.46a77.89,77.89,0,0,1-11.83-15,45.18,45.18,0,0,1-6.29-18.68,41.78,41.78,0,0,1,.33-10.23,61.68,61.68,0,0,1,2.54-10l.08-.25a6.13,6.13,0,1,1,11.64,3.84,6.24,6.24,0,0,1-1.09,2A23,23,0,0,0,44.05,163a25,25,0,0,0,1.19,7.76,33.54,33.54,0,0,0,3.44,7.34A50,50,0,0,0,59.89,190.5a62.44,62.44,0,0,0,7,4.88c1.22.73,2.44,1.44,3.7,2.07a32.39,32.39,0,0,0,3.71,1.67,6.08,6.08,0,1,1-5.57,10.67Z"/><path class="cls-1" d="M232.74,123.13l0,1-.07,1.19c-.06.77-.13,1.51-.22,2.26q-.27,2.25-.76,4.46a44.62,44.62,0,0,1-2.9,8.53,48.93,48.93,0,0,1-10.24,14.52,45.28,45.28,0,0,1-64-.07c-8.29-8.41-13.27-20.15-12.76-32A43.77,43.77,0,0,1,146,106.28a50,50,0,0,1,9.76-14,44.63,44.63,0,0,1,14-9.63,44.94,44.94,0,0,1,33.82-.86,44.9,44.9,0,0,1,14.89,9.26,45.42,45.42,0,0,1,14.27,32Zm-11.12-.07a54.49,54.49,0,0,0-.46-6.9,34.17,34.17,0,0,0-1.75-6.73A35.94,35.94,0,0,0,212,97.5a36.62,36.62,0,0,0-11.5-8.39,36.53,36.53,0,0,0-40.84,7.16,33.05,33.05,0,0,0-7.89,12.42,37.63,37.63,0,0,0-2,14.41,41.2,41.2,0,0,0,3.1,13.85,36.49,36.49,0,0,0,40.63,21.62,35.18,35.18,0,0,0,6.77-2.09A36.24,36.24,0,0,0,212,148.58a33.1,33.1,0,0,0,7.41-11.88,36.11,36.11,0,0,0,1.73-6.74q.29-1.71.4-3.44c0-.57.06-1.16.08-1.72v-1.74Z"/><polygon class="cls-1" points="216.23 97.84 185.22 122.22 227.44 130.59 224.21 103.16 216.23 97.84"/><circle class="cls-1" cx="176.34" cy="107.87" r="8.64"/></g></g></svg>