<svg xmlns="http://www.w3.org/2000/svg" viewBox="0 0 388.61 223.48"><defs><style>.cls-1{fill:#fff;}</style></defs><title>eye4</title><g id="Слой_2" data-name="Слой 2"><g id="Layer_3" data-name="Layer 3"><path class="cls-1" d="M347.77,136.1a331.72,331.72,0,0,1-29.87,28.53,320.69,320.69,0,0,1-33.31,24.72A250.81,250.81,0,0,1,247.93,209a183.56,183.56,0,0,1-40,12.2,144.88,144.88,0,0,1-21,2.18c-7,.16-13.89.08-20.82-.18a373.08,373.08,0,0,1-41.37-3.89,313.73,313.73,0,0,1-40.8-8.7c-13.42-3.9-26.72-8.7-39.31-16l3.66.87h0c-9.68-.18-19.29.14-29.09,0-2.46,0-4.92-.11-7.47-.31-1.28-.09-2.57-.21-4-.44a20.88,20.88,0,0,1-2.18-.47,10.58,10.58,0,0,1-2.68-1.11,6.51,6.51,0,0,1-1.74-1.52A5.61,5.61,0,0,1,0,188.85a6.21,6.21,0,0,1,.23-2.41A10,10,0,0,1,.82,185c.37-.78.71-1.34,1-1.81a7.5,7.5,0,0,0,.5-1l.06-.16.12-.3c.12-.27.17-.35.24-.48s.23-.41.34-.58c.2-.33.39-.62.58-.9.37-.56.74-1.07,1.11-1.58.72-1,1.45-2,2.18-3,5.88-7.79,11.81-15.41,18.1-22.76s13.07-14.26,20-21q5.22-5,10.59-9.91T66.59,112c7.38-6.26,15-12.21,22.9-17.88,15.74-11.31,32.4-21.52,50.36-29.24a163.31,163.31,0,0,1,27.84-9.3A118.78,118.78,0,0,1,182.27,53c2.46-.26,4.93-.44,7.41-.52,1.25,0,2.46-.06,3.74-.06s2.39,0,3.65,0c19.63.44,39,4.76,57.26,11.58a233.4,233.4,0,0,1,51.46,27.56,264.1,264.1,0,0,1,22.93,18.09q5.46,4.86,10.67,10,2.6,2.58,5.13,5.24l1.26,1.34a8.79,8.79,0,0,1,1.17,1.44,6.7,6.7,0,0,1,1,4.08Zm-7.58-1a7.51,7.51,0,0,1-.78-.5,8.73,8.73,0,0,1-1.26-1.2L337,132.11q-2.4-2.54-4.89-5-5-5-10.24-9.66c-6.95-6.32-14.26-12.24-21.77-17.87a225.77,225.77,0,0,0-48.66-28,153,153,0,0,0-54.5-12,101.54,101.54,0,0,0-27.54,3A146.78,146.78,0,0,0,143,71.94c-17,7.92-32.88,18.29-47.85,29.77A484.35,484.35,0,0,0,52.54,139.1c-6.75,6.64-13.31,13.46-20,20.19S19.24,172.83,13.32,180.1c-.73.91-1.46,1.82-2.15,2.72-.34.46-.66.91-1,1.35l-.4.6L9.7,185l0-.08,0-.09,0,0A14.71,14.71,0,0,1,8.71,187c-.32.57-.6,1-.74,1.34a.88.88,0,0,0-.09.21,1.53,1.53,0,0,0,0-.63,2.45,2.45,0,0,0-.49-1.21,1.83,1.83,0,0,0-.37-.37,5.92,5.92,0,0,0,.64.2,13.29,13.29,0,0,0,1.33.24c1,.14,2.08.21,3.19.26,2.23.07,4.55,0,6.88-.09s4.68-.29,7-.49,4.71-.46,7.06-.75c4.71-.57,9.42-1.27,14.12-2.17h0l.29,0a5.53,5.53,0,0,1,3.36.89,121,121,0,0,0,17.32,9.19A194.68,194.68,0,0,0,87,200.72a299.53,299.53,0,0,0,39.23,9.62,364.27,364.27,0,0,0,40.31,4.7c6.75.4,13.56.66,20.25.61a137,137,0,0,0,19.89-1.78,169.58,169.58,0,0,0,38.55-11.26A238.66,238.66,0,0,0,281,183.76a314.1,314.1,0,0,0,32.77-24q7.81-6.52,15.22-13.5,3.7-3.49,7.28-7.09C337.61,137.81,338.92,136.45,340.19,135.09Z"/><path class="cls-1" d="M39.78,64.43A247.48,247.48,0,0,1,71.69,40.36a266.27,266.27,0,0,1,35.13-18.83A249.19,249.19,0,0,1,183.58,1.07Q193.51.11,203.5,0a179.16,179.16,0,0,1,20.05.86c13.37,1.35,26.88,4.62,39.19,10.76A101.8,101.8,0,0,1,280,22.57,155.39,155.39,0,0,1,295,36c9.29,9.41,17.65,19.16,27,27.67a4.78,4.78,0,0,1-6.39,7.1h0c-10-8.83-18.68-18.65-27.75-27.52a145.09,145.09,0,0,0-14.13-12.32A91.12,91.12,0,0,0,258,21.4c-11-5.26-23.13-8-35.52-9.06a167.94,167.94,0,0,0-18.77-.48q-9.45.24-18.86,1.31a236.37,236.37,0,0,0-72.48,20.61,244.78,244.78,0,0,0-62.7,41.58,7.37,7.37,0,1,1-10-10.85l.05,0Z"/><path class="cls-1" d="M278.84,77.87a3.14,3.14,0,0,1,.49,1.11l.35,1.16q.34,1.16.65,2.33c.41,1.56.78,3.12,1.13,4.7a81.61,81.61,0,0,1,1.6,9.58q.13,1.22.22,2.46c.07.81.1,1.69.09,2.44,0,1.69-.05,3.29-.15,4.94a78.62,78.62,0,0,1-1.17,9.77,83.7,83.7,0,0,1-15.76,35.71,85.55,85.55,0,0,1-105.43,24.75,87.93,87.93,0,0,1-30.11-24.1,82.94,82.94,0,0,1-16.53-35,81.38,81.38,0,0,1-1.62-19.42,79.44,79.44,0,0,1,1-9.72q.38-2.41.91-4.79c.17-.79.36-1.58.55-2.37l.15-.59c.06-.19.06-.4.23-.57.35-.33,1.15-.55,3-.48l1.52.4c1.64.82,2.25,1.36,2.41,1.78a1,1,0,0,1,0,.56l-.12.54c-.15.73-.3,1.45-.42,2.18q-.39,2.19-.66,4.39a83.72,83.72,0,0,0-.58,8.84,82.6,82.6,0,0,0,1.62,17.62,79,79,0,0,0,14.44,32.08,75.33,75.33,0,0,0,27.34,22.36,76.75,76.75,0,0,0,68.52-1.27A78.05,78.05,0,0,0,259,146.57a77.81,77.81,0,0,0,14-31.9,84.1,84.1,0,0,0,1.18-8.71c.12-1.45.2-3,.24-4.37,0-.8,0-1.47.08-2.22s0-1.46.05-2.2c0-2.95-.05-6-.26-8.95-.1-1.5-.26-3-.44-4.48l-.31-2.23-.17-1.1a3.34,3.34,0,0,1-.07-1.15Z"/><path class="cls-1" d="M67.18,203.3c-.71-.6-1.24-1.08-1.82-1.62l-1.66-1.57c-1.08-1.06-2.15-2.1-3.18-3.18q-3.1-3.22-5.92-6.64a77.58,77.58,0,0,1-9.74-14.92A55.14,55.14,0,0,1,39.64,158a54.26,54.26,0,0,1-.32-9.33,79.73,79.73,0,0,1,1.14-9.42l0-.3A6.15,6.15,0,0,1,52.63,141a6.28,6.28,0,0,1-.88,2.28A24.37,24.37,0,0,0,48.82,150a26.89,26.89,0,0,0-.94,7.35,32.33,32.33,0,0,0,3.86,14.56,47.69,47.69,0,0,0,9.4,12.38,54,54,0,0,0,6,5c1.07.76,2.14,1.5,3.26,2.16.56.33,1.11.66,1.67,1a16.42,16.42,0,0,0,1.61.77,6.14,6.14,0,1,1-6,10.48Z"/><path class="cls-1" d="M244.2,114.7l0,1-.06,1.16c-.05.75-.12,1.47-.2,2.21a42.9,42.9,0,0,1-.76,4.36,43.83,43.83,0,0,1-2.84,8.33,47.85,47.85,0,0,1-10,14.17,44.22,44.22,0,0,1-62.47-.07,41.24,41.24,0,0,1-8.33-47.57A49.15,49.15,0,0,1,169,84.63a43.56,43.56,0,0,1,13.68-9.4,44,44,0,0,1,61.5,39.4Zm-11.12-.07a54.9,54.9,0,0,0-.44-6.69,33.13,33.13,0,0,0-1.69-6.53,34.86,34.86,0,0,0-7.12-11.58,35.52,35.52,0,0,0-11.15-8.16A35.26,35.26,0,0,0,185,80.81a35.88,35.88,0,0,0-12,7.79,31.86,31.86,0,0,0-7.66,12.08,36.56,36.56,0,0,0-1.9,14,39.65,39.65,0,0,0,3,13.43,36.07,36.07,0,0,0,7.73,11.34,35.23,35.23,0,0,0,31.68,9.64,34.18,34.18,0,0,0,6.57-2,35.13,35.13,0,0,0,11.32-7.68A32,32,0,0,0,231,127.85a34.74,34.74,0,0,0,1.66-6.54c.18-1.11.3-2.22.37-3.34,0-.55.07-1.12.08-1.67v-1.68Z"/><polygon class="cls-1" points="218.12 82.21 197.66 114.71 231.39 94.57 227.18 84.47 218.12 82.21"/><circle class="cls-1" cx="183.73" cy="103.46" r="5.81" transform="translate(-24.09 67.84) rotate(-19.66)"/><path class="cls-1" d="M365.57,125.69a23.86,23.86,0,0,0,2.4.5c.84.14,1.7.25,2.57.33a42.16,42.16,0,0,0,5.23.17A38.32,38.32,0,0,0,386.18,125a1,1,0,0,1,.77,1.87,41.25,41.25,0,0,1-10.75,3.6,46.26,46.26,0,0,1-5.7.73c-1,.06-1.93.09-2.9.09a28.69,28.69,0,0,1-3-.14h0a2.77,2.77,0,0,1,.59-5.51A3,3,0,0,1,365.57,125.69Z"/><path class="cls-1" d="M48.53,205c2.15,1.67,4.46,3.3,6.77,4.85s4.69,3,7.11,4.4a67.07,67.07,0,0,0,15.21,6.63h0a1,1,0,0,1-.48,2,69.43,69.43,0,0,1-16.12-6c-2.56-1.28-5.06-2.67-7.53-4.12s-4.86-3-7.26-4.64A1.9,1.9,0,1,1,48.43,205l.08.05Z"/><path class="cls-1" d="M286.65,208.38a104.93,104.93,0,0,0,10.54-5q5.2-2.77,10.2-6A172.26,172.26,0,0,0,358,148a1,1,0,0,1,1.7,1.09,174.4,174.4,0,0,1-30.79,37.14,175.75,175.75,0,0,1-19,15.11q-5,3.45-10.29,6.52a109.6,109.6,0,0,1-11,5.65,2.76,2.76,0,0,1-2.21-5.06l.08,0Z"/><path class="cls-1" d="M369.83,134.71a15.17,15.17,0,0,0,1.92.72c.7.22,1.41.41,2.13.57a36.18,36.18,0,0,0,4.45.71,45.34,45.34,0,0,0,9.16-.07,1,1,0,0,1,.33,2,48,48,0,0,1-9.6,1.21,39.65,39.65,0,0,1-4.92-.2c-.82-.09-1.65-.2-2.48-.36a19.23,19.23,0,0,1-2.59-.64,2.13,2.13,0,1,1,1.34-4Z"/></g></g></svg>