<svg xmlns="http://www.w3.org/2000/svg" viewBox="0 0 799.25 979.41"><defs><style>.cls-1{fill:#36b5eb;}.cls-2,.cls-3{fill:none;stroke:#2cb9ef;}.cls-2{stroke-width:2px;}</style></defs><title>map-lightblue</title><g id="Слой_2" data-name="Слой 2"><g id="Karta"><g id="Rivers"><line class="cls-1" x1="265.32" y1="633.62" x2="266.89" y2="634.67"/><path class="cls-2" d="M108,586.25s.31-.44.63-.81.31-.81.69-1.19a5.87,5.87,0,0,1,.81-.69c.25-.19-.06-.44.5-.94a11.59,11.59,0,0,1,1.82-1.32c.38-.19,0-.63.5-1.19s1.19-.56,1.94-.94a4.79,4.79,0,0,0,1.69-1.69.94.94,0,0,0,0-1.07,2.76,2.76,0,0,0-1.44-1c-.38-.06-.56.19-.56-.5a3.67,3.67,0,0,1,1.06-2.07c.5-.56,4.95-4.82,5.45-5.39s1.82-1.94,2.13-2.26.25-.63.44-.94a6.81,6.81,0,0,1,3.19-4.13c.69-.38.81.13,1.32-.31s.75-1.38,1.19-2,1.38-1,1.32-1.63a3.79,3.79,0,0,0-1.25-2.07,9.89,9.89,0,0,0-1.69-.75c-.56-.31-.38-.94-.63-1.44s-.94-1-1-1.82.25-1.19,1.13-2.19,1.82-1.69,2.51-1.63.81,1.38,1.13,1.75.75.56,1.06-.12,0-1.44-.44-2.5-1.38-2-1.5-2.63-.06-.56.31-.94a2.13,2.13,0,0,1,2.13-.25,25,25,0,0,0,2.76.69c.63.13.94-.37,1.94-.25s1.69.94,2.32,1l.23,0"/><path class="cls-2" d="M139.66,543c.65,0,1.64,0,2.09,0a1.88,1.88,0,0,1,1.38.44,28,28,0,0,1,2.76,2.69c.44.56,2.19,1.94,2.88,1.94a18,18,0,0,1,3.44.06,6.36,6.36,0,0,1,1.88,1.38c.31.31.56.44.94.82s.31.44.63.69a1.87,1.87,0,0,0,1.44.38c.5-.12.81-1,1.32-1.32s.75,0,1.32-.25.81-1.44,1.25-1.75.69,0,1-.12.31-.44.31-.88.13-.31.56-.56.88-.06,1.38-.06.69-.44,1.44-.19a5.87,5.87,0,0,0,1.75.38,1.22,1.22,0,0,0,1.06-.5c.44-.44,1.19-2.07,1.75-2.69s2.32-.31,2.76.31-.19,1.63.38,2.82a6.84,6.84,0,0,0,1.82,2.19c.5.5,1.25.38,1.63.75s.19.69.44,1.19.88.75,1.06,1.31a3.41,3.41,0,0,1,0,1.94c-.19.69-1,2-1.13,2.44a1.94,1.94,0,0,0,.56,1.63c.44.44.81.56,2,.38a17.81,17.81,0,0,0,2.76-.81l.53-.19"/><path class="cls-2" d="M183.06,557.5a10.68,10.68,0,0,1,2.29-.88c.75-.06,1.38,1,1.94.75s-.12-.69.19-1.38.94-.75,1.94-.88A3,3,0,0,1,192,556a24.43,24.43,0,0,0,2.13,2.19,1.06,1.06,0,0,0,1.19-.12c.44-.31.56-.81.94-1.44s.31-.13.81-.69,0-.56.31-1.44,1.13-.5,2.19-.56a2.08,2.08,0,0,0,1.94-1.69c.19-.88.44-1.5-.31-2.38s-1.44-.12-2.32-.12-1.63-1-2.32-1.19a1.7,1.7,0,0,1-1.32-1.13c-.38-.75.38-2.25,1.13-3.32s1.13-1.94,2-2.38,1.82.31,2.32.62a1.89,1.89,0,0,1,.81,1.19c.13.44.25,1.69.94,1.69s.75-.56,1.75-.56,1.06.5,1.69.38a2.88,2.88,0,0,0,2.13-1.19c.5-.88.19-1.25.25-1.82s-1.69-.31-1.82-.75.63-.5.56-1.19-1.63-.44-1.88-1,.94-.75.88-1.44-1.94-.56-2.51-1.25-.31-.88-.12-1.5.44-1.06.94-1.06,1.75,1.31,2.25,1.5a1.72,1.72,0,0,0,1.44-.19c.56-.25.88-1.31,1.38-1.94a5.74,5.74,0,0,1,2.82-1.94,5.62,5.62,0,0,1,2.84-.35"/><path class="cls-2" d="M215.06,530.9a6.77,6.77,0,0,0,1,0c1.06-.06,1,.44,1.88.44a17.79,17.79,0,0,0,2.25-.44,8.14,8.14,0,0,1,2.44-.06,10,10,0,0,1,2.88,1c.94.5,2.51,2.69,3.32,2.88s1.69-.31,2.25,0,.5.94.88,1.38,1.19.19,1.57.44.56.56,1.25.5.88-.63,1.13-1.19-.5-1.57.25-1.82.69.38,1.63.75a2.05,2.05,0,0,0,1.69.19l.18,0"/><path class="cls-2" d="M239.64,535a9.24,9.24,0,0,0,3.08-2.16,23.11,23.11,0,0,1,2.51-1.94,16.12,16.12,0,0,1,3.45-1.69,30.43,30.43,0,0,1,3.45-.94,19.43,19.43,0,0,0,1.75-1,10.8,10.8,0,0,1,1.82-.44c.63-.19.5-.88,1.25-1.06s.88.25,1.63,0,2.32-2.19,2.69-2.63a3.41,3.41,0,0,1,2.63-.63,6.62,6.62,0,0,0,1.82.69,2.71,2.71,0,0,0,2.25-1.25c.75-1.06,3.26-3.19,3.51-3.57a2.91,2.91,0,0,0,.56-1.5,9.73,9.73,0,0,1-.25-2.25,3.68,3.68,0,0,1,1.94-2.69,6.43,6.43,0,0,1,3.38-1.07,15.35,15.35,0,0,0,3.38-1.06c.81-.31,2.44-2,2.88-2s.44.88.5,1.38-.88,1.75-.75,2.32.25.81,1.13,1.19a6.12,6.12,0,0,0,3.38-.31c.69-.25,1-.38,1.25-.94s.63-.56,1.06-1.06.88-.44,1.57-.12a4.5,4.5,0,0,0,2,.12,4.85,4.85,0,0,0,2.19-1.69c.19-.44.81-.38,1.13-.81a1.51,1.51,0,0,0,.13-1.38c-.12-.56-.88-.81-.75-1.44s1.25-.81,1.94-.56a3.2,3.2,0,0,1,1.5,1.19c.38.5.06.88.56,2.13s2.94,1.94,3.44,2.38.06.5.06.75-.5.25-.5.63a37.12,37.12,0,0,0,2.24,4"/><path class="cls-1" d="M190.19,651.78c.38-.34,1.72.38,2,.69a10.06,10.06,0,0,1,.69.94c.19.22.63.28.85.63s.34.72.19,1a.94.94,0,0,1-.94.41c-.5,0-.85-.59-1-.81a2.69,2.69,0,0,0-.41-.66c-.25-.28-.69-.41-1.1-.75a1.08,1.08,0,0,1-.5-.78C190,652.09,189.82,652.13,190.19,651.78Z"/><path class="cls-1" d="M185.21,647.93c-.19-.25.09-.78.34-1.07s1-.62,1.25-.22.63,1.16,1,1.66,1.06,1.32,1.16,1.57a.86.86,0,0,1-.22.85c-.22.19-.41.47-.91.31a1.24,1.24,0,0,1-.88-.94c0-.34.09-1.07.06-1.32a.87.87,0,0,0-.59-.6C186.09,648.05,185.4,648.18,185.21,647.93Z"/><line class="cls-1" x1="212.55" y1="628.74" x2="213.05" y2="628.96"/><line class="cls-1" x1="216.62" y1="632.03" x2="217.03" y2="632.34"/><path class="cls-1" d="M218.06,632.25a2.35,2.35,0,0,1,.85.81c.19.22.66.28.75.75s.19.75-.12,1.13a1.23,1.23,0,0,1-1.41.06c-.31-.22.19-.63.19-.94s-.34-.34-.56-.5-.66-.28-.72-.53-.16-.53.06-.75S217.62,632.06,218.06,632.25Z"/><path class="cls-1" d="M213.18,628.77c.28-.31.59-.19.88.09a7,7,0,0,0,1.19,1.16,5.3,5.3,0,0,0,1,.53.8.8,0,0,1,.56.72c0,.34.09.56-.16.78s-.94.13-1.28,0-1.13-1.25-1.32-1.41-.69-.09-1-.59A1.11,1.11,0,0,1,213.18,628.77Z"/><line class="cls-1" x1="210.45" y1="624.36" x2="210.73" y2="623.64"/><path class="cls-1" d="M210.45,624.2c-.13-.22-.94-.31-1.32-.31s-.5.09-.66.59a9.48,9.48,0,0,0-.22,2.66c.09.53.38,1.29,1,1.47a17.15,17.15,0,0,0,2.35.78,1.07,1.07,0,0,0,.94-.47.7.7,0,0,0-.06-.84c-.22-.22-1.85-.44-2.16-.94a5.12,5.12,0,0,1-.19-2.19C210.14,624.79,210.58,624.42,210.45,624.2Z"/><path class="cls-1" d="M210.86,623.64c-.85,0-.88-.25-1-1s.47-1,.78-1.16a1.28,1.28,0,0,0,.56-.88c.13-.44-.06-.85.34-1.32a.92.92,0,0,1,1.25-.19c.28.22.25.47.16.78s-.6,1.44-.78,1.91S211.71,623.64,210.86,623.64Z"/><polyline class="cls-1" points="195.3 618.02 195.74 617.62 196.55 618.62 196.08 619.03"/><path class="cls-1" d="M196.11,618.11a18.35,18.35,0,0,0-2.13,2.38,13.75,13.75,0,0,0-.56,2.63c-.25.94-1.06,2.94-1.06,2.94"/><path class="cls-1" d="M190.16,627.76c.13-1.69.81-1.82,1.82-1.75s.88.25.88.88-.81,1.32-.81,1.75.94,1,.81,1.94-.31.75-.69.94-.81,0-1.19.44-.49,1.55-1,2.26c-.63.88-1.75,1.13-2,1.82s-.25,1.38-.44,1.88-.59.36-.81,0,0-1.32.31-1.94a9.36,9.36,0,0,1,1.5-1.75,8.56,8.56,0,0,0,1-2.19c.31-.63.88-.75,1-1.44S190,629.45,190.16,627.76Z"/><path class="cls-1" d="M188.06,504c-.25-.6,2.13-2.38,3.63-3.07a61,61,0,0,1,8-2.51,1,1,0,0,1,1.13.88c.06.41-.38.66-.66.81a15.52,15.52,0,0,1-1.66.22c-.5.13-3.7,1.41-5.23,2a35,35,0,0,0-3.29,1.5C189.44,504,188.31,504.56,188.06,504Z"/><path class="cls-1" d="M360.51,583.25c-.6-.34-.34-1.85-.22-2.22s.41-.38.88-.44.66.19,1.22.31a2.67,2.67,0,0,1,1.16.34,1,1,0,0,1,.44,1,.85.85,0,0,1-.81.84C362.45,583.25,361.1,583.6,360.51,583.25Z"/><path class="cls-1" d="M327.25,575.93c-.5-.19-.41-.72-.06-1.07a1.94,1.94,0,0,0,.63-1.06c.13-.5-.22-2.51.41-2.91s1.19-.12,1.6-.16.56-.53,1-.31.31.75.25,1.19-2,2-2.19,2.26a10.48,10.48,0,0,0-.47,1.19C328.22,575.36,327.75,576.11,327.25,575.93Z"/><path class="cls-1" d="M160.72,607.21a1.47,1.47,0,0,1-1.32-.6.63.63,0,0,1,.34-.94,5.63,5.63,0,0,1,1.53-.28c.56-.06.91-1.1,1.47-1.38s1.25-.34,1.66-.56,1.06-.94,1.47-.85.63.19.66.56-.38.69-.44,1,0,.75-.22,1a3.29,3.29,0,0,1-1.41.63,4.75,4.75,0,0,0-1.72.47C161.94,606.68,162.07,607.12,160.72,607.21Z"/><path class="cls-1" d="M162.82,608.81a.73.73,0,0,1,.94.16.61.61,0,0,1-.09.81c-.22.16-.72.34-1-.06A.61.61,0,0,1,162.82,608.81Z"/><path class="cls-1" d="M123.58,634.3a8.44,8.44,0,0,1,1.94-1.44,1.27,1.27,0,0,1,.78.13,2.37,2.37,0,0,1,.44.94,1,1,0,0,1-.28.75c-.19.16-1.53,1-1.66,1a.6.6,0,0,1-.53.09,2.46,2.46,0,0,1-.75-.75A.67.67,0,0,1,123.58,634.3Z"/><path class="cls-1" d="M118.55,636.76c.31.06.28.72.44,1s.81.5,1,.75-.06.78-.31,1.07-2,1.69-2.13,1.88a1.05,1.05,0,0,0-.06.81c.06.22.28.5.41.85a1.51,1.51,0,0,1-.09,1.22c-.22.31-.72.69-1,1s-.66,1.07-1,1.28a1.52,1.52,0,0,1-1.22.19c-.41-.12-.85-1.13-.91-1.72s-.63-1.35-.53-1.91a11.34,11.34,0,0,1,2-3.1C115.79,639.23,118.24,636.7,118.55,636.76Z"/><path class="cls-2" d="M25.36,674.55a1.89,1.89,0,0,0,0,1.07,6.82,6.82,0,0,1,.85,1.82c0,.47-.12.91-.09,1.38a6.17,6.17,0,0,1-.09,1.94,4.4,4.4,0,0,0,0,2.13c.13.38.19.69.63.69s.63-.35,1-.44.53-.16.69.13-.35.72-.13,1.06.5.56.94.38.59-.63.69-1.19.63-.82,1.32-.69a2.53,2.53,0,0,1,1.57,1.32,9.1,9.1,0,0,0,1.5,1.69,4.71,4.71,0,0,0,1.38,1.07,8.86,8.86,0,0,0,2.82.25c.5,0,.91.25,1.25.13s.44-.37.44-.75-.6-.59-.63-.94,0-.53.69-.69,1.25,0,1.94-.12,1.13-.69,1.69-.81a4.83,4.83,0,0,1,1.63-.13,9.28,9.28,0,0,0,2.07.25c.78-.06,2.22-.22,3-.35s1.5-1,2.16-1,.81.22,1.25.44.34.44,1.13.44,1.79-1.41,2.51-1.63,1.44.78,1.82,1.25a17.27,17.27,0,0,0,1.19,1.66c.41.38,1.06.75,1.38,1.07a8.14,8.14,0,0,1,.81,1c.13.19-.16.5.56.81s.78-.88,1.25-1.07.72-.16.94.06-.09.72,0,1a.82.82,0,0,0,.91.34c.47-.06.94-.41,1.06-.19s-.5,1-.5,1"/><path class="cls-2" d="M77.41,689.65a6.41,6.41,0,0,1,1,1.88,6.31,6.31,0,0,1-.19,1.63c-.06.44.22,1.16,0,1.72A4,4,0,0,1,77,696.35a7.93,7.93,0,0,0-1.32,1.75,10.1,10.1,0,0,1-.44,1c-.25.47-1.19,1.38-1.41,1.79a11.33,11.33,0,0,0-.16,2c-.09.38-.5.56-.63,1.1A7.31,7.31,0,0,0,73,706.5a2.07,2.07,0,0,0,.63,1.07c.38.41,1,.47,1.28,1a6,6,0,0,1,.47,1.38,3.93,3.93,0,0,1,.34,1.35c0,.85-1.16,2.25-1.41,2.85a11.31,11.31,0,0,0-.38,2.69,4.42,4.42,0,0,1-.25,1.31c-.19.66-.69,1.54-.41,1.88s.91,0,1.1.19.19.25.19.57-.19,1,0,1.28a1.47,1.47,0,0,0,1,.69,5.37,5.37,0,0,1,1.6.22,1.71,1.71,0,0,1,1.1,1.47,34.68,34.68,0,0,0,1.41,4.17,1,1,0,0,1,.09.72c-.09.28-.38.5-.34.72a1.6,1.6,0,0,0,.41.88c.25.22.75.5.78.88a8.26,8.26,0,0,1-.56,1.75,5,5,0,0,0-.25,1.5,1.39,1.39,0,0,0,1,.94,11.38,11.38,0,0,0,1.57-.06,12.82,12.82,0,0,0,1.44.19,7.76,7.76,0,0,0,1.5-.5c.31-.09.59,0,.94-.25s.66-1,.91-.84a13.15,13.15,0,0,1,1,1.28c.19.19.53.22.75.5s.5.91,1,1.07a8.41,8.41,0,0,1,1.44.75.89.89,0,0,1,.31,1c-.13.5-.47,1.1-.56,1.63S91,741.89,91,742.2a14.68,14.68,0,0,1-.85,2.68"/><path class="cls-1" d="M94.17,690a6.29,6.29,0,0,1,1.6-1.13c.56-.37,2.1-2.22,2.47-2.16s.28.75.25,1.25a18,18,0,0,1-.41,2.72c-.22.82-1.16,1.85-1.28,2.41a11.4,11.4,0,0,0,0,1.47c-.06.28-.19.41-.53.31a9.73,9.73,0,0,1-1.85-3C94.13,691.12,93.82,690.46,94.17,690Z"/><path class="cls-1" d="M254,672.42a24.16,24.16,0,0,0,.91,2.63,12.29,12.29,0,0,0,1.6,1.94c.38.38.56.72.34.94a1.17,1.17,0,0,1-1.16.09,3.6,3.6,0,0,1-.81-.91c-.12-.22.06-.34-.19-.69s-1.24-.61-1.69-1.47a4.73,4.73,0,0,1,0-2.19.85.85,0,0,1,.59-.66C253.8,672.08,253.89,672,254,672.42Z"/><path class="cls-1" d="M289.24,724.05c.09.19-.44.91-.66.94a.81.81,0,0,1-.66-.06c-.22-.16-.34-.88-.47-1.1s-.56-.44-.56-.72.16-.57.38-.53A10,10,0,0,1,289.24,724.05Z"/><path class="cls-1" d="M289.58,725a.46.46,0,0,1,.63-.06,23.11,23.11,0,0,1,2.25,2,1.27,1.27,0,0,1,.25.75c0,.19-.13.5-.75.53a5.37,5.37,0,0,1-2.41-.56,2.76,2.76,0,0,1-.66-1.69C288.92,725.65,289.39,725.18,289.58,725Z"/><path class="cls-1" d="M265.86,817.74c0-.38.44-.82.85-1.32s1.57-1.1,1.79-.88,0,.85,0,1,.13.41,0,.56-.47.1-.56.31-.06,1-.22,1.22-.91.22-1.25.09A1.17,1.17,0,0,1,265.86,817.74Z"/><path class="cls-1" d="M287.59,824.15s.13-.47.41-.53.5.09.63.44,0,.6.19,1,.88.72,1,1,.06.44,0,.78a.83.83,0,0,1-.66.69.82.82,0,0,1-.75-.22,3.12,3.12,0,0,1-.47-1.44A16.09,16.09,0,0,0,287.59,824.15Z"/><path class="cls-1" d="M299.32,813.52c.28-.37.53-.34.85-.53a2.16,2.16,0,0,1,.72-.25c.41-.13,1-1.29,1.32-1.13s.19.78,0,1.22a9.41,9.41,0,0,1-1.75,2,1.13,1.13,0,0,1-1.06-.16A.9.9,0,0,1,299.32,813.52Z"/><path class="cls-1" d="M298.07,838.49c.09-.6.63-1.16.91-1.13s.22.31.47.38,1-.12,1.44.13,2.79,2,3,2.16.34.31.6.28.19-.66.5-.63.28.66.38.91a1.84,1.84,0,0,0,.63.88c.31.19.47,0,.78.22a1.79,1.79,0,0,1,.78.69,9.58,9.58,0,0,1,.44,1.5c.13.28.41.72.75.69s1.13-.56,1.38-.37.22.47.16.84a10.28,10.28,0,0,1-.38,1c-.09.34.22.81.16,1.16s-.34.16-.56.44a2.72,2.72,0,0,0-.5,1.63c.09.5.66.6.69.81a1.26,1.26,0,0,1-.16.91,2,2,0,0,1-1.35.63c-.41,0-.88-.09-1-.69s.72-1.57.88-1.85a1.63,1.63,0,0,0,.06-1.16c-.12-.34-1.38-1.16-1.75-1.44s-.91-.78-1.28-1.07a6.29,6.29,0,0,0-1.72-.59c-.19,0-.41-.19-.22-.53s.88-.53,1.1-.56a1.25,1.25,0,0,0,.72-.31c.16-.19.06-.41-.13-.66a7.07,7.07,0,0,0-1.5-1.38c-.38-.16-.69,0-1.13-.19s-1.28-1-1.53-1.16a1.25,1.25,0,0,0-.81-.19c-.28,0-.47.25-.75.31a.83.83,0,0,1-.91-.28A1.86,1.86,0,0,1,298.07,838.49Z"/><path class="cls-1" d="M314.11,848.07a1.69,1.69,0,0,0,.91.09c.31-.12.22-.47.56-.63s.44-.16.69.1a1.72,1.72,0,0,1,.41,1,5.9,5.9,0,0,0,.69,1.41c.22.38.85,1.16,1.13,1.53s.78.53.94.91-.13.44-.22.72a.81.81,0,0,0,0,.66,1.17,1.17,0,0,0,1,.66c.5,0,1.13-.6,1.91-.53a2.8,2.8,0,0,1,1.69.78c.72.5.53,1.82.22,2.29a4.32,4.32,0,0,1-.81,1.1c-.28.19-.63.06-1-.09s-.56-.41-1-.34-.53.16-.63.53.06.47.06.72-.19.38-.47.41-.22-.06-.31-.31.56-1.13.44-1.79-1-1.38-1.38-1.82-.6-1.22-.91-1.28-.22.13-.56.25-.56-.31-.72-.19,0,.34-.09.66,0,.18-.44.25a14.36,14.36,0,0,1-.25-2.69l-.47-1.38-.13-.85-.5.09a4.78,4.78,0,0,1-.75-1.07A3.68,3.68,0,0,1,314.11,848.07Z"/><path class="cls-1" d="M310,847.28s0,.76.35.91,1.4-.38,1.62-.24a2,2,0,0,0,1,.27.49.49,0,0,0,.44-.44c.06-.26-.09-.39,0-.58s.27-.36.47-.17a4.43,4.43,0,0,1,.53.91"/><path class="cls-1" d="M332.09,859.94c.16-.44.5-.39.72-.39s.3,0,.42.14,0,.5.17.61a.88.88,0,0,0,.66,0c.22-.06.5-.45.94-.44s1.49.85,1.88.91a5.22,5.22,0,0,1,1.22.13c.36.16.31.22.36.49s-.66.52-1,.7-.47.67-.81.88a.73.73,0,0,1-.75.13c-.28-.09-.12-.3-.5-.33s-.58.38-.88.49a.54.54,0,0,1-.63-.06c-.16-.14-.12-.5-.25-.88S331.94,860.38,332.09,859.94Z"/><path class="cls-1" d="M342.93,866c.14-.25.36-.23.83-.14a10.06,10.06,0,0,1,1.8.85c.39.2,1.06.08,1.11.38a1,1,0,0,1-.12.77c-.16.28-.38.52-.75.34s-.25-.52-.52-.64-.89.2-1.1.08-.17-.61-.39-.8a2.91,2.91,0,0,0-.74-.36S342.79,866.26,342.93,866Z"/><path class="cls-1" d="M348.72,868.44a.37.37,0,0,1,.52-.25c.25.09.47.34.72.47s.77.06,1,.19.31.3.34.64,0,.47-.12.63-.52.08-.71,0-.19-.34-.52-.55-.92-.25-1.14-.41A.58.58,0,0,1,348.72,868.44Z"/><path class="cls-1" d="M355.32,881.41c.41-.11.53-.14.83,0s.91.6,1,1a.83.83,0,0,1-.17.88c-.24.25-.71.22-1.16.44a10,10,0,0,0-1.64,1.58.41.41,0,0,1-.63.08c-.25-.22.06-.77.22-1.32a9.92,9.92,0,0,1,.58-1.63A1.8,1.8,0,0,1,355.32,881.41Z"/><path class="cls-1" d="M333.75,949.31a.94.94,0,0,1,1.35.53c.28.56.31,1.19.56,1.75s1.13.5,1.47,1.06a10.19,10.19,0,0,1,.56,1.41c.25.53.88,1,1,1.54s-.34.94-.5,1.16a.6.6,0,0,1-.72.19,4.28,4.28,0,0,1-1.1-1.32c-.16-.41-.06-1.22-.28-1.6s-1-.31-1.32-.75a3.27,3.27,0,0,1-.25-1.57c0-.31-1-1-1.16-1.35A.73.73,0,0,1,333.75,949.31Z"/><path class="cls-1" d="M377,890.16a6.05,6.05,0,0,1,.85-2.41.84.84,0,0,1,.69-.06c.19.11.2.31.27.56a8.88,8.88,0,0,1-.64,2.32c-.13.11-.42.06-.66,0S377.11,890.51,377,890.16Z"/><path class="cls-1" d="M374.7,893.81c.09-.42,1.19-1.47,1.28-1.71s.09-.91.45-1,.94.49,1,.83-.33,1-.53,1.38-.67,1.21-1,1.27a1.32,1.32,0,0,1-.83-.13A.51.51,0,0,1,374.7,893.81Z"/><path class="cls-1" d="M374.37,894.69a1.61,1.61,0,0,1,1,.72.82.82,0,0,1,0,.53,7.27,7.27,0,0,1-1.61,1.91,1.28,1.28,0,0,1-.86.11c-.22,0-.88-.42-.36-.89S373.89,894.63,374.37,894.69Z"/><path class="cls-1" d="M382.11,795.44a2.05,2.05,0,0,1,.81-.55,2.15,2.15,0,0,1,1.13-.33c.34.06.66.17.66.47a2.44,2.44,0,0,1-.28,1.36,1.24,1.24,0,0,1-1,.52,4,4,0,0,1-1.44-.13c-.19-.16-.14-.34-.16-.64A.92.92,0,0,1,382.11,795.44Z"/><path class="cls-1" d="M379,795.46a6.21,6.21,0,0,1,2.27-.16c.39.09.42.74.41,1s-.11.77-.44.89a8.62,8.62,0,0,1-2.15.11c-.49,0-.56-.52-.55-.92S378.55,795.65,379,795.46Z"/><path class="cls-1" d="M375.92,795.87c.25-.41.5-.41.91-.49s.91-.23,1.08,0a2.62,2.62,0,0,1,.13,1.44c-.11.12-.86,0-1.24,0s-.56.06-.72-.09A.65.65,0,0,1,375.92,795.87Z"/><path class="cls-1" d="M364.2,794.54c.41,0,.78.66.81.91s0,.41-.22.46l-1,.23c-.25.06-.58.27-.8.23a.42.42,0,0,1-.36-.5C362.66,795.63,363.79,794.52,364.2,794.54Z"/><path class="cls-1" d="M365.86,794.33c.19-.08.61.25.83.28s.63-.22.86,0a1.3,1.3,0,0,1,.38.86.56.56,0,0,1-.39.52,8.32,8.32,0,0,1-1.66,0,.52.52,0,0,1-.42-.47c0-.2.19-.14.3-.31S365.67,794.41,365.86,794.33Z"/><path class="cls-1" d="M363.7,632.91a3.9,3.9,0,0,1,1-.8,3.9,3.9,0,0,0,.92-.46c.38-.27,1-.89,1.33-1a.71.71,0,0,1,.83.34,1.83,1.83,0,0,1,.16,1.17,1.54,1.54,0,0,1-.92.67c-.42.13-1.25.11-1.58.17s-.64.39-1.3.36S363.7,632.91,363.7,632.91Z"/><path class="cls-1" d="M367.56,702.67c.56.09,1.41,2.29,1.38,2.72s-.91.56-1.28.5a1.16,1.16,0,0,1-1-.59,3.43,3.43,0,0,1,0-1.69C366.72,703.17,367,702.58,367.56,702.67Z"/><path class="cls-1" d="M380,715.44a18.47,18.47,0,0,1,3.62,0c.67.09.67-.25,1.3-.22a2.2,2.2,0,0,1,1.33.5c.25.22.17.41.44.56s1.06-.06,1.28.2a3.27,3.27,0,0,1,.19,1.93c-.14.56-1.64,1.21-2,1.11s-.14-.69-.36-1a9.33,9.33,0,0,0-2.87-1.16c-.59-.14-1-.39-1.68-.53s-1.55.08-1.86-.11-.23-.42-.17-.7S379.49,715.58,380,715.44Z"/><path class="cls-2" d="M202.86,970.74a1.37,1.37,0,0,0,.85-.06c.38-.19.22-.69.47-1.13s.72-.41,1.19-.78,1.13-1.41,1.47-1.5.25-.16.66.22.47,1.22.91,1.25,1-.94,1.6-1.1,1.19-.22,1.32.19-.25,1.16,0,1.66.63.53.85.78a6.72,6.72,0,0,1,.47.75,19.06,19.06,0,0,0,2.6,1.85,7.77,7.77,0,0,0,1.1.75c.38.16.63.41,1.1.22s.63-.69.91-.78.41,0,.72.22.22,1.13.53,1.28a2.67,2.67,0,0,0,1.32,0c.31-.06.5-.28.81-.37s.34.22.88,0,.47-.85.94-1.1,1.38,0,1.85-.19.63-.34.72-.78-.44-.94-.41-1.66,2.07-2.57,2.79-2.72,1.16-.09,1.85-.28.85-.88,1.75-1a11.71,11.71,0,0,1,3.88.69c.66.28,2,1.41,2.44,1.63s.72-.22,1.16,0,.5.66.91,1a16,16,0,0,1,1.82,1.5c.19.34.09,1.06.41,1.54a5.46,5.46,0,0,0,2.35,1.5,6.25,6.25,0,0,0,2.38-.09c.94-.16,1.32-1.13,2.25-1.28a3.89,3.89,0,0,1,2.66.34c.41.41.25,1,.88,1.25s2-.25,2.66-.12,1.22.53,1.69.47.47-.19,1.13-.5a1.85,1.85,0,0,1,1.91-.22c.94.38,1.79,1.28,2.66,1.32s1.94-.19,2.57-.19,1.88.59,2.38.59.91-.38,1.41-.28.78,1,1,1.13.34.28.66.09.53-.6.88-.66.47,0,.63.38-.06.66.31.88.91.13,1.35.34.49.69,1.85.69c1.1,0,2.47-1.47,3-1.57a8.14,8.14,0,0,0,2.38-.22c.69-.34,1.38-1.28,2.1-1.47a5.78,5.78,0,0,1,2,.09,2.45,2.45,0,0,0,1.79-1c.25-.47-.22-.91-.09-1.19s.22-.5.63-.44.94.38,1.41.44,2.13-1.69,2.38-1.91.41-.84.69-.94a11.12,11.12,0,0,0,1.54-.25c.41-.19,3.07-2.82,3.07-2.82"/><path class="cls-1" d="M221.59,956.05c-.38-.06-.44-.31-.47-.69a4.33,4.33,0,0,1,.31-1.25,20.82,20.82,0,0,0,.09-2.63s.16-.56.5-.44.28.41.35.94a25.78,25.78,0,0,1,.22,3.54c-.12.13-.31.06-.53.16S222,956.11,221.59,956.05Z"/><path class="cls-1" d="M222.21,957.3c.28-.19.28.25.53.31s.28-.19.56-.06.19.38.38.66.31,0,.56.31.16.44.31.69a1.24,1.24,0,0,0,.81.59c.5.16,1.13-.28,1.66,0a5.61,5.61,0,0,1,1.53,2.22,2,2,0,0,1-.16,1.32,1.72,1.72,0,0,1-1.25.94c-.53,0-1.13-.56-1.6-.75s-.75,0-1.16-.06-.53-.25-.56-.59.47-.28.5-.6a3.47,3.47,0,0,0-.5-1.22c-.12-.25-.12-.72-.25-1s-.88-.81-1.19-1.16S221.93,957.49,222.21,957.3Z"/><path class="cls-1" d="M254.6,955.46c.25-.16.41,0,.56.28s.28.94.44,1.28.63.72.75,1.06a5.8,5.8,0,0,1,.22,1.16c0,.28.25.34.34.63s.16,1.69.25,2,.19.85.56,1,.59,0,.56-.34a5.69,5.69,0,0,1,.63-2.85,12.3,12.3,0,0,1,1.79-2.47,19.37,19.37,0,0,1,1.44-1.57c.44-.34,1-1,1.35-1s.28.22.44.38.16.28,0,.44-.38-.13-.69,0-.47.94-.66,1.35-.94,1.63-1.38,2.47a9.08,9.08,0,0,0-.88,2.54c-.09.66,0,1.6,0,2.13s-.22.66-.28,1.28a3.52,3.52,0,0,0,0,1.13c.06.34.16.38.22.78s-.53.63-1,.66a7.44,7.44,0,0,1-2.07-.72,6,6,0,0,1-1.75-1c-.47-.38-.25-.72-.22-1.13a2.13,2.13,0,0,0-.09-1.1,2.53,2.53,0,0,1-.28-.66c0-.22.47-.59.66-1a2,2,0,0,0,0-1.19c-.06-.28-.19-.28-.31-.63s0-3.07-.12-3.41a3.46,3.46,0,0,0-.5-.91C254.41,956,254.35,955.61,254.6,955.46Z"/><path class="cls-1" d="M285.31,653.47c.63-.16,2,0,2.07.44s-1.22,1.13-1.47,1.47a3.64,3.64,0,0,0-.56,1.5.59.59,0,0,1-.72.59c-.38-.06-.56-1.35-.53-1.94S284.68,653.63,285.31,653.47Z"/><path class="cls-1" d="M261.1,629.17c.53-.41.88-.34,1.47.09a12.27,12.27,0,0,1,1.66,2,12,12,0,0,0,.88,1.22c.41.47.85.56.94,1s.25.75,0,.94a.85.85,0,0,1-1,0c-.38-.28-.16-.31-.44-.69s-.78-.47-1.1-.69a22.46,22.46,0,0,1-2.29-2C260.88,630.58,260.57,629.58,261.1,629.17Z"/><path class="cls-1" d="M267.24,634.05a3.86,3.86,0,0,1,1.75,1.06.91.91,0,0,1,.06,1.19,1.31,1.31,0,0,1-1.19.19c-.38-.12-.88-.91-1.16-1.28a.83.83,0,0,1-.09-.91C266.71,634.12,266.8,634,267.24,634.05Z"/><path class="cls-2" d="M239.73,535.07a2.2,2.2,0,0,0,.47,1.16c.45.59,1.85,1.22,2.16,2a15.59,15.59,0,0,1,.47,2.19c.22.83,1,1.86,1,2.33s-.66,1.65-.34,2.62a.67.67,0,0,0,1,.3c.44-.25.36-1.66.92-1.36a4.16,4.16,0,0,1,1.3,2c.16.74-.35,1.33-.27,1.77s.47.53.44,1-.74,1-.81,1.35.08,1.1-.12,1.25-.5-.22-.94-.25-.69.22-1.13.85-1.32,2.35-1.79,2.85-1.33,1-1.64,1.6,0,1.8-.38,2.33-1.53.72-1.9,1.13,0,.56-.28,1.3-2.4,2.27-2.69,2.87-.41,1.69-.72,2.05a2.12,2.12,0,0,1-1.17.88c-.58.13-1.06.2-1.77.41s-3.82,4-4,4.85-.27,5.78-.5,6.19-.85,1.13-1.16,1.58-.42,1.06-.75,1.38-.64.25-1,.75-.81,2.72-1.16,2.76-.49-.19-.78-.09-.34.7-.55.89-.39.19-.56.66,0,1-.2,1.36-.74,1.08-.7,1.52,1.74,1.74,1.83,2.21-.22,1.3,0,1.55,1.32.16,1.55.23.36.25.47.66,0,.58.13,1.06a15.17,15.17,0,0,1,.63,1.85,4.74,4.74,0,0,1-1,2.15c-.42.49-.94,1.88-1.58,2.11S221,601,220.37,601s-.81.67-1.06.91a9.31,9.31,0,0,0-1.08.81c-.27.33-.06,1.41-.33,1.57s-1.49-.11-1.88.19.08,1.5-.14,1.85-.7.5-.86.75,0,.39-.22.63a9.31,9.31,0,0,1-2.1,1.5,7.79,7.79,0,0,1-3,1c-.8-.06-.61-.36-1.38-.38s-1.41.8-2,.81-1-.45-1.6-.5-.89.28-1.28.25-.39-.37-.81-.41a2,2,0,0,0-1,.31"/><polyline class="cls-1" points="201.63 609.53 201.13 609.75 201.72 611.1 202.16 610.82"/><path class="cls-1" d="M224.35,598.51s3.57,5.72,4.28,6.74a4.32,4.32,0,0,0,1.88,1.16"/><path class="cls-2" d="M230.51,606.41a9.27,9.27,0,0,1,1.83.77c.3.36.31,1.21.64,1.58s1.64-.12,1.91.19.09,1.72.28,2a.93.93,0,0,0,1.17.31c.55-.23.44-1.55,1.19-1.46.58.07.47.86.89.89s.47-1.19,1.1-1.21,1,.47,1.72.39,1.74-1.06,2.38-1.19,1.27.13,1.91,0,1.43-.72,1.94-.69,1,0,1.38.45,1,1.38,1.53,2a13.39,13.39,0,0,1,1.93,2,15.41,15.41,0,0,1,.47,2.51c.14.47.49.64.72,1.13a10.17,10.17,0,0,0,.61,1.8c.42.67,1.53.89,1.88,1.16a2.37,2.37,0,0,1,1,1.25,25.17,25.17,0,0,1,.38,2.91,3.67,3.67,0,0,0,.5,1"/><path class="cls-2" d="M221.86,644.52s1.3,1.1,1.32,1.72c0,.47-.06,1.46,0,1.6s.17.55.6.52.67-.55,1-.42,1,1.32,1.3,1.49.92.2,1.24.39.38.39.71.53a2.67,2.67,0,0,0,1.41,0,6,6,0,0,1,1.39-.42,13.71,13.71,0,0,1,1.55,0"/><polyline class="cls-1" points="231.74 649.35 232.36 649.38 232.36 650.42 231.69 650.45"/><polyline class="cls-1" points="221.73 645.17 221.45 644.88 222.36 644.11 222.67 644.39"/><path class="cls-2" d="M240.54,651.68a7,7,0,0,1,1.38.56c.47.3.88.89,1.19,1.06s1.31,0,1.67.17.7.94,1.19,1.24,1.55.53,1.82.74.3.59.52.84.88.5,1,.72-.08.63.28,1.1,1,.48,1.5,1.16a10,10,0,0,1,.85,2.22c.17.38.86.8,1,1.19s.23,1.32.38,1.66a6.69,6.69,0,0,0,.69,1"/><polyline class="cls-1" points="240.84 652.51 240.26 652.15 240.81 651.14 241.39 651.47"/><path class="cls-1" d="M126.45,373.59a7.22,7.22,0,0,1,3.54,2.47,54.28,54.28,0,0,1,3.26,4.7c.6.88,1.19,2.76,1.57,3.13a28.92,28.92,0,0,0,4.45,3.51,33.48,33.48,0,0,0,7.52,1.57c2.47,0,5.57-1.13,8.08-2.25a34.09,34.09,0,0,0,6.64-4.07,19.15,19.15,0,0,0,3.38-3.51c1.13-1.25,1.56-1.1,2.35-.75s1.06,1.66,1.1,2.54.13,2.91.19,4.26,0,3.16,0,4.51a42.87,42.87,0,0,0,0,4.48,41.85,41.85,0,0,1,.56,4.2,3.27,3.27,0,0,1-1.91,2.72c-1.13.69-3.92,1.47-6.17,2.47s-4.39,2.16-6.39,3.07a19.63,19.63,0,0,1-6.14,1.53c-1.28,0-5.42-.85-7.77-1.16a75.73,75.73,0,0,0-8.49-.34c-2.47,0-7.92.06-9.36.22a16.83,16.83,0,0,1-4.7-.13,8.51,8.51,0,0,1-4.1-2.25c-1.16-1.16-1.44-3.51-1.57-5.17a18.46,18.46,0,0,1,0-4.57c.25-1.16.81-2.54,1-3.32s2.54-4.45,3.51-6.55a44.79,44.79,0,0,0,2.22-5.48A9.83,9.83,0,0,1,121,375.5C122,374.5,124.61,372.94,126.45,373.59Z"/><path class="cls-1" d="M197.52,430c.53-.56,1.79-.69,3.32-.94s3.73-.6,5.1-.69a34.38,34.38,0,0,1,3.82.06c.59,0,2.38-.59,2.66-.25s-.16.91-.41,1.63a72.59,72.59,0,0,0-2.16,8.36c-.28,2.19-.16,5.67-.19,6.86s-.09,5.42,0,7,.44,4.51.53,7.11a28.85,28.85,0,0,1-.69,7.08,24.07,24.07,0,0,1-2.32,6.26,37.31,37.31,0,0,1-4.76,5.79,37,37,0,0,1-5,3.32s-6.45,3.23-7.33,3.41-7,1.85-7.8,2a30.82,30.82,0,0,1-5.89,0c-1.13-.25-6.36-2.35-7.55-2.79s-4.95-3.07-5.7-3.45S160.9,479,160,478.7a8,8,0,0,1-2.35-1.28,4.94,4.94,0,0,1-1.57-3.13c-.13-1.69-.44-2.22.38-3.54a11.67,11.67,0,0,1,4.17-3.26,21.87,21.87,0,0,0,3.82-1.63c1.06-.75,1.44-1.82,2.63-2.57s4.26-2.69,6.45-3.13,2.66-.06,4.29-.69a10.63,10.63,0,0,0,2.63-1.35c.69-.44,1.78-2.19,2.6-2.57s4.07-2.41,4.57-2.79a11.47,11.47,0,0,0,2.19-3c.38-.88.72-2.19,1.22-2.51s2.32-1.38,3.07-1.94a8.82,8.82,0,0,0,1.63-2.47l.88-4.85.34-5.39S197,430.56,197.52,430Z"/><path class="cls-1" d="M126.45,373.59a7.22,7.22,0,0,1,3.54,2.47,54.28,54.28,0,0,1,3.26,4.7c.6.88,1.19,2.76,1.57,3.13a28.92,28.92,0,0,0,4.45,3.51,33.48,33.48,0,0,0,7.52,1.57c2.47,0,5.57-1.13,8.08-2.25a34.09,34.09,0,0,0,6.64-4.07,19.15,19.15,0,0,0,3.38-3.51c1.13-1.25,1.56-1.1,2.35-.75s1.06,1.66,1.1,2.54.13,2.91.19,4.26,0,3.16,0,4.51a42.87,42.87,0,0,0,0,4.48,41.85,41.85,0,0,1,.56,4.2,3.27,3.27,0,0,1-1.91,2.72c-1.13.69-3.92,1.47-6.17,2.47s-4.39,2.16-6.39,3.07a19.63,19.63,0,0,1-6.14,1.53c-1.28,0-5.42-.85-7.77-1.16a75.73,75.73,0,0,0-8.49-.34c-2.47,0-7.92.06-9.36.22a16.83,16.83,0,0,1-4.7-.13,8.51,8.51,0,0,1-4.1-2.25c-1.16-1.16-1.44-3.51-1.57-5.17a18.46,18.46,0,0,1,0-4.57c.25-1.16.81-2.54,1-3.32s2.54-4.45,3.51-6.55a44.79,44.79,0,0,0,2.22-5.48A9.83,9.83,0,0,1,121,375.5C122,374.5,124.61,372.94,126.45,373.59Z"/><path class="cls-1" d="M197.52,430c.53-.56,1.79-.69,3.32-.94s3.73-.6,5.1-.69a34.38,34.38,0,0,1,3.82.06c.59,0,2.38-.59,2.66-.25s-.16.91-.41,1.63a72.59,72.59,0,0,0-2.16,8.36c-.28,2.19-.16,5.67-.19,6.86s-.09,5.42,0,7,.44,4.51.53,7.11a28.85,28.85,0,0,1-.69,7.08,24.07,24.07,0,0,1-2.32,6.26,37.31,37.31,0,0,1-4.76,5.79,37,37,0,0,1-5,3.32s-6.45,3.23-7.33,3.41-7,1.85-7.8,2a30.82,30.82,0,0,1-5.89,0c-1.13-.25-6.36-2.35-7.55-2.79s-4.95-3.07-5.7-3.45S160.9,479,160,478.7a8,8,0,0,1-2.35-1.28,4.94,4.94,0,0,1-1.57-3.13c-.13-1.69-.44-2.22.38-3.54a11.67,11.67,0,0,1,4.17-3.26,21.87,21.87,0,0,0,3.82-1.63c1.06-.75,1.44-1.82,2.63-2.57s4.26-2.69,6.45-3.13,2.66-.06,4.29-.69a10.63,10.63,0,0,0,2.63-1.35c.69-.44,1.78-2.19,2.6-2.57s4.07-2.41,4.57-2.79a11.47,11.47,0,0,0,2.19-3c.38-.88.72-2.19,1.22-2.51s2.32-1.38,3.07-1.94a8.82,8.82,0,0,0,1.63-2.47l.88-4.85.34-5.39S197,430.56,197.52,430Z"/><path class="cls-1" d="M126.45,373.59a7.22,7.22,0,0,1,3.54,2.47,54.28,54.28,0,0,1,3.26,4.7c.6.88,1.19,2.76,1.57,3.13a28.92,28.92,0,0,0,4.45,3.51,33.48,33.48,0,0,0,7.52,1.57c2.47,0,5.57-1.13,8.08-2.25a34.09,34.09,0,0,0,6.64-4.07,19.15,19.15,0,0,0,3.38-3.51c1.13-1.25,1.56-1.1,2.35-.75s1.06,1.66,1.1,2.54.13,2.91.19,4.26,0,3.16,0,4.51a42.87,42.87,0,0,0,0,4.48,41.85,41.85,0,0,1,.56,4.2,3.27,3.27,0,0,1-1.91,2.72c-1.13.69-3.92,1.47-6.17,2.47s-4.39,2.16-6.39,3.07a19.63,19.63,0,0,1-6.14,1.53c-1.28,0-5.42-.85-7.77-1.16a75.73,75.73,0,0,0-8.49-.34c-2.47,0-7.92.06-9.36.22a16.83,16.83,0,0,1-4.7-.13,8.51,8.51,0,0,1-4.1-2.25c-1.16-1.16-1.44-3.51-1.57-5.17a18.46,18.46,0,0,1,0-4.57c.25-1.16.81-2.54,1-3.32s2.54-4.45,3.51-6.55a44.79,44.79,0,0,0,2.22-5.48A9.83,9.83,0,0,1,121,375.5C122,374.5,124.61,372.94,126.45,373.59Z"/><path class="cls-1" d="M197.52,430c.53-.56,1.79-.69,3.32-.94s3.73-.6,5.1-.69a34.38,34.38,0,0,1,3.82.06c.59,0,2.38-.59,2.66-.25s-.16.91-.41,1.63a72.59,72.59,0,0,0-2.16,8.36c-.28,2.19-.16,5.67-.19,6.86s-.09,5.42,0,7,.44,4.51.53,7.11a28.85,28.85,0,0,1-.69,7.08,24.07,24.07,0,0,1-2.32,6.26,37.31,37.31,0,0,1-4.76,5.79,37,37,0,0,1-5,3.32s-6.45,3.23-7.33,3.41-7,1.85-7.8,2a30.82,30.82,0,0,1-5.89,0c-1.13-.25-6.36-2.35-7.55-2.79s-4.95-3.07-5.7-3.45S160.9,479,160,478.7a8,8,0,0,1-2.35-1.28,4.94,4.94,0,0,1-1.57-3.13c-.13-1.69-.44-2.22.38-3.54a11.67,11.67,0,0,1,4.17-3.26,21.87,21.87,0,0,0,3.82-1.63c1.06-.75,1.44-1.82,2.63-2.57s4.26-2.69,6.45-3.13,2.66-.06,4.29-.69a10.63,10.63,0,0,0,2.63-1.35c.69-.44,1.78-2.19,2.6-2.57s4.07-2.41,4.57-2.79a11.47,11.47,0,0,0,2.19-3c.38-.88.72-2.19,1.22-2.51s2.32-1.38,3.07-1.94a8.82,8.82,0,0,0,1.63-2.47l.88-4.85.34-5.39S197,430.56,197.52,430Z"/><path class="cls-1" d="M147.78,412.21c.14,0,.18,0,.16,0C147.57,412.22,147.47,412.23,147.78,412.21Z"/><path class="cls-1" d="M49.15,334.84h0Z"/><path class="cls-1" d="M350.16,105.31c-.53-.41.53-1.47.91-1.94a3,3,0,0,1,1.41-1.1c.44-.06,1.75.75,2.66,1a30.16,30.16,0,0,0,3.38.78c.41,0,1.47.41,1.38,1.13s-1.75.72-2.07.75-1.13.88-1.57.78-.25-.91-.41-1.32-1-.78-1.44-.88a5.13,5.13,0,0,0-1.79-.25C352.23,104.4,350.69,105.71,350.16,105.31Z"/><path class="cls-1" d="M224.41,222.55c.13-.31,1.91,0,2.32,0a7.33,7.33,0,0,1,1.32.31c.31.09.94.56,1.22.66a8.44,8.44,0,0,0,1.53-.09,6.25,6.25,0,0,1,1.63.25c.34.16.25.94.56.94s1.63-.56,1.66-.22-.81,1-.85,1.32.19.78.13,1-.41.31-.53.63c-.06.16.16.81,0,1.06s-.94,0-1,.56.91.69.94,1a1,1,0,0,1-.94.88c-.27,0-.27.07-.56-.18s-.18-1.14-.29-1.39c-.19-.44-1.88.07-2.13-.38s-.31-1.38-.72-1.19.16,1.22-.25,1.47-1.79-.12-2.22-.09a7.69,7.69,0,0,1-2.69-.16,1.77,1.77,0,0,1-.41-1.47c.06-.53.22-1.5,1-1.38s.75.16,1,.75c.11.24-.06,1,0,1.22a.47.47,0,0,0,.67.47,1.08,1.08,0,0,0,.81-.69s-.22-1.53.09-1.66,1.25-.16,1.41.16,0,.88.6.91.38-.31.69-.44,2.79.13,3-.06.16.19.38-.6-2.69-.41-3-.69-.12-.85-.53-1.19a2.36,2.36,0,0,0-1.53-.38c-.25.06-1.13-.38-1.35.06-.07.15.11.44-.11.69a.65.65,0,0,1-.92.06c-.34-.25-.38-.34-.31-1s.13-.47-.25-.53S224.29,222.87,224.41,222.55Z"/><path class="cls-1" d="M285.46,160.94c0-.87,1-1.32,1-2.1s-.88-2.25-.12-2.51,1.19.63,1.38,1.19a6.57,6.57,0,0,1,.25,2.07c-.09.44.08,2.1-.34,2.35-.81.47-1,.19-1.41.13S285.59,161.44,285.46,160.94Z"/><path class="cls-1" d="M280.68,173.63c-.41-.19-.09-1.38.16-1.72s.06-1.41.16-1.79a1,1,0,0,1,.91-.63c.34,0,.72.63.78.94a9.67,9.67,0,0,1-.16,2.25c-.13.47-.31.63-.6.72S281.09,173.82,280.68,173.63Z"/><path class="cls-1" d="M259.17,248.24c-.09-.69.91-1.63,1.1-2a5.47,5.47,0,0,1,1.94-1.69,5,5,0,0,1,2.28-.05,2.26,2.26,0,0,1,1.51.9,9.8,9.8,0,0,1,1.69,2,5.58,5.58,0,0,1,.16,1.88s-.22,2.41.16,2.85a3.34,3.34,0,0,0,1.47,1c.78.34.66,1.88.75,2.63s-.85,1.07-1.28,1.38-1.85-.69-2.07-1.22.38-2-.16-2.47a2.53,2.53,0,0,0-1.07-.71,5.16,5.16,0,0,0-1.25.11c-.85.06-1.63-1.63-2.1-2s-1.5-.75-2-1.13A2.07,2.07,0,0,1,259.17,248.24Z"/><path class="cls-1" d="M257.54,262.27c.53.06.78.16.81.38a3.9,3.9,0,0,0,.09.78c.13.63,1.32-.41,1.44-.6a7,7,0,0,0,1.1-1.53,16.79,16.79,0,0,1,.59-2.07,5.86,5.86,0,0,1,1.41-1.57,9.78,9.78,0,0,1,2.07-1,2.88,2.88,0,0,1,2.16.25,1.41,1.41,0,0,1,.28,1.22c0,.31-.31.41-.63.88s-.19.85-.6,1.32a2.3,2.3,0,0,1-1.75.69c-.34-.12-.88.72-1.25.85a8.85,8.85,0,0,1-1.78.78,1.85,1.85,0,0,0-1.38,1.1,7.2,7.2,0,0,0-.34,1.75c-.06.53-1.44.47-2.1.56s-1.75.38-2.22-.19-.16-1.28,0-2A3,3,0,0,1,257.54,262.27Z"/><path class="cls-1" d="M295.42,277.27c-.34-.6,1.5-2.19,2.1-2.41s1.94.53,2.69.78.8.5,1.5.78.19-.06,1.13.28-1.22,2.32-1.22,2.32l-1.85,2.54-2,3.44a26,26,0,0,1-1.54,3.26c-.34.34-1.35,2.19-1.88,2.38s-1.75-.41-1.75-.94,2-4.6,1.47-5.36-5.48,1.72-5.7,1.57-.41-.12-.41-.66,3.32-2,3.66-2.19,4.42-.81,4.76-1.06a9.74,9.74,0,0,0,1.22-3.32c0-.28-.47-.63-.91-.78S295.6,277.57,295.42,277.27Z"/><path class="cls-1" d="M351.6,439.71a5.4,5.4,0,0,1-1.16-1.35,5.7,5.7,0,0,1-.55-2.6c.12-.54,1-.63,1.58-.56s.85-.34,1.19-.13a4.8,4.8,0,0,1,1,1.57,4.71,4.71,0,0,1,.31,1.63,1.94,1.94,0,0,1-.88,1.44A1.51,1.51,0,0,1,351.6,439.71Z"/><path class="cls-1" d="M357.08,434.29a1.72,1.72,0,0,1,1.13-.41c.44-.06.91-.53,1.32-.31s.38,1.57.22,1.72-.38,0-.69.28-.81,1.06-1.25,1S356.7,434.63,357.08,434.29Z"/><path class="cls-1" d="M309.31,454.38c.53-.44,1-.06,1.47.25a5.13,5.13,0,0,1,1.1,2.47c-.06.38-.56.56-1.13.66s-1.38-1.5-1.5-1.82S308.78,454.82,309.31,454.38Z"/><path class="cls-1" d="M168.11,417.08l-14.72,40.34,2.82,1.63,2.25-1.57,14.78-41.4ZM156.77,456.6l-1-.56,14.16-38.4,1.06-.25Z"/><path class="cls-1" d="M154.58,437.87c1.06.38-.56,2.07.13,2.32s1.57-.63,2.07.25-.75,5.2-.88,5.57-.81.06-1.25.13-.69,1.25-1,1.57a.9.9,0,0,1-1.25-.12c-.38-.38.06-.5-.13-1.19s-.25-.12-.31-.94a16.47,16.47,0,0,1-.12-2.32c.06-.5.69-1,1.06-1.69S153.52,437.5,154.58,437.87Z"/><path class="cls-1" d="M151.64,434.74c.38-.63.56-.31,2.25-1s1.63-1.13,2.44-1.19,1.69,0,2.07.56-.25,1.63-.25,2.32-.25,3-.88,3.2-.69.25-1-.25.56-1.69.38-2.44-.44-.81-1-.56-.5,1.25-1.06,1.25a2.46,2.46,0,0,1-1.25-.63,3.59,3.59,0,0,1-1.38.25A1.14,1.14,0,0,1,151.64,434.74Z"/><path class="cls-1" d="M149.88,438.25c1.19.25.94,1.69.88,2.51s.13,2.32-1.44,2.38-.75-1.94-.94-2.19S148.69,438,149.88,438.25Z"/><path class="cls-1" d="M55.83,271.21c.34-.63,1.53-.75,1.79-1.1s1.6-.19,2.07-.47,1.13-1.16,2-1.16a1.48,1.48,0,0,1,1.47.94c0,.34-.47,1-.13,1.6a3.58,3.58,0,0,0,1.32,1.35c.31.09,3.6-.5,4-.09s-.41,1.25-.81,1.35-1.16-.09-1.63.09-3,2.32-3.48,2.22c-.89-.19,1-1.16,1.13-1.85s-.91-1.53-1.28-1.85-.88-1.44-1.41-1.57-1.47.72-1.47.72.25,1.06,0,1.25-2-.19-2-.19S55.48,271.84,55.83,271.21Z"/><path class="cls-1" d="M47.15,5.74c.28-.72,2.73-.41,3.26.25s0,1.6-.22,2.38a8.92,8.92,0,0,1-.5,2c-.34.75-2.07,0-2.32-.38s-.06-1.44-.16-2.07A4.3,4.3,0,0,1,47.15,5.74Z"/><path class="cls-3" d="M73,.1c.19.88-.69,3.57-1.06,6s9.4,7.2,9.77,6.33-1.25-2-1.5-2.57,1.5-2.07,2.38-2.07.6,1.09,1.63,1c1.64-.14.48-1.71,1.38-2.19,1.07-.56,1.69.38,2.38.31s1-.19,1.63.19.06.88,1.06,1.19S93.79,7,94.91,8s-.38,1.69-1.32,3.07.75,3.82,2.44,4.13,4.95-1.63,5.89-2.07,4.51-1,5.57-1.38c1.13-1.19-.06-1.44,1.69-1.25s1.63.44,2.32-.19,1.88-.94,1.44-1.63-1.63-.13-1.94-1.5.56-1.32,1.19-2.13,3.07-1.57,3.51-1.32.5,2.69,1.44,2.94,1.38-1.5,2.88-1.19c.68.14,2.76.32,2.57-.18s1.38-1.26,2-1.57a6.13,6.13,0,0,1,2.69-.56c.56.13,1.63,2.38,2.19,2.76s4-.56,4.38.81-1.06,3.26-.25,3.44,2-.44,3.38-.12"/><path class="cls-1" d="M86.58,32.05c.94.31,2.76,2.82,3.38,3.45a25.31,25.31,0,0,1,2,3.26c.44.69,2.17,1.78,2.07,2.07s-1.38.19-2.19.06a18.35,18.35,0,0,1-4.2-1.94c-.56-.44-.81-1.44-1.38-2.44s-.94-.63-1.32-1.32.38-2.19.38-2.19S85.64,31.74,86.58,32.05Z"/><path class="cls-1" d="M95.42,39.94a7.43,7.43,0,0,1,4-.19c1.88.25,3.51,1.25,3.88,2.07a9.1,9.1,0,0,1,.81,3.57,14.31,14.31,0,0,0-.38,1.57c-.13.56.64,1.28.38,1.69s-1.19-.19-1.19-.19l-1.88-2-2.57-1.25-2.07-2.57-1.32-.38S94.29,40.38,95.42,39.94Z"/><path class="cls-2" d="M29.52,66.75a7.83,7.83,0,0,0,.06,2.69c.31.88,4.51,8.46,5.2,8.83s.81,1.38,2,1.25,5.45,2.63,6,3.51a17,17,0,0,1,.81,1.82c.31.5,1.13.56,1.25,1.57s.38,3.38,1.5,4.26-.06,0,1,.94-.88,5.51-.56,6.26,1,.38,1.06,1.38-1.13,3.63.94,3.76,3-.63,3.07-1.38-1.25-2.32-.31-2.13a1.64,1.64,0,0,1,1.19,1.13s.63,1.06.31,1.75,1.13,1.82,1.5,3,.19.88-.56,1.94-4.63,3.26-4.95,4.07a10.76,10.76,0,0,0-.19,3.38c.06.44-1.63,2.13-1.38,3.19a6.4,6.4,0,0,0,1.32,2.38c.63.94,1.13,2.07,1.75,2.07a3.17,3.17,0,0,0,2.19-1.57c.13-.63.19-2.57,1.38-2.44s1.44,5.07,2.57,5.07,1.69-.81,2.88.13.81,2.25,1.38,2.63,2.44.94,3.26,1.75.38,1.44.38,1.44.5.81,0,1.19-.75-.5-1.94-.19-.06,3.13.31,3.32a18.35,18.35,0,0,0,4.32.81c.94-.06,2.69-2,3.57-1.44s.75,1.63,1.44,2.19,2.44,1.19,3.13,3.13-2.69,3.57-3.95,4.07-.06,3.32-.13,4.07-.94,4.13-.25,4.26,1.94-.19,2.88.44.44,2.88.19,3.26A35.18,35.18,0,0,0,72,157.71a9.88,9.88,0,0,1-.5,2.51,17.85,17.85,0,0,0-1.63,2.38c-.19.56.81,1.75.75,3.13s.5,2.51,1.25,2.76,1.5-1.13,3.88-.75A5.72,5.72,0,0,1,79.88,170a23.56,23.56,0,0,0,1.07,2.17c1,1.32,2,2.21,2.06,3.34a1.18,1.18,0,0,1-.88,1.11c-.81.19-1.5-.36-2.5.64s.56,2.07.5,3,1,2.94,1.5,2.63.13-.56.75-.5.25.25.75.13.38-1.25,1.75-1.13-.56,2.51-.25,3.26,1.38.19,1.75,1.38-.69,3.38-1.5,3.63-1.57-1.25-1.88.12.5.81.25,2-.69,1.13-.38,1.5A3.79,3.79,0,0,0,84,194c.28.13.43-.09.84.51a3.1,3.1,0,0,1,.5,3.13c-.13.69-4.7,1.38-3.76,2.76s1.88,1.69,1.5,2.63-1.82,3.19-1.88,4,1.38.75,1.13,1.88c-.09.39.12,1-.48,1.59-1.21.92-3.09,2.23-3.41,2.42s-.31,3-.88,3.63-1.88,1.69-2,2.76,2.82,1.82,3.26,2.76,2,2.44,2.94,2.38,2.38-1.75,3.19-2.13,3.07.69,4,1,2.26-3.13,3.38-2.25,2.32,2.82,3.13,3,.38,3.38,1.38,2.63,2.57-2.63,3-2.26.69.13,1.38,1-1.5,6.08-1.88,7.14-1.88,6.41-2.7,6.6-.69-.81-1.38-1.75-2.44.63-2.76,1.38-.06,2.63-.88,3.26-.63.31-1.5.63S89.34,244,89,244.61s.06.06-.5.75-.17,1.4-.23,2.09-.39,1.27,0,1.7a15.54,15.54,0,0,0,2.51,1.63c.5.25,1.38.44,1.75,1.13s.94,2.63,1.63,3.13,3.58,2,5.51,1.88c.82,0,1,.21,1.9-.67a5.23,5.23,0,0,0,1.48-2.84c.13-.88.38-1,1.13-1s.44,3.95,1.88,3.76,1.5-1.32,2.51-.63-.06,1.19,1,1.38a15.76,15.76,0,0,1,2.88.63c.5.25-.06,2.51,1.13,2.38a4.75,4.75,0,0,0,3-1.88c.38-.69-1.88-1.75-1.75-2.76s1.38-2.13,2.25-1.63,1.5,2.94,2.13,2.63.44-1.13,1.13-1.63.88,0,1.32-.63-.63-1.57.56-2.51,3.95-.19,3.76,1-2.13,1.88-1.75,2.63,1.38,0,1.5.5a9.27,9.27,0,0,1-.52,2.76c-.25.38.64,1.44.27,2a8.85,8.85,0,0,1-3.13,1.63c-.44.06-2.82-.38-3.63.63s-.75,4.38-.75,4.38a52.74,52.74,0,0,1-1,5.39c-.38,1,2.88,2.63,4,2.63s1.82-1.94,3.38-1.5,2.57,1.06,3.51-.25-.13-2.13.25-4.32,3.7-3.38,5.89-2.19,3.57-1.63,6-1.38a3.46,3.46,0,0,1,3,3.51,9.77,9.77,0,0,0,1.1,3.83c.63.81,1.9,2.49,1.78,3.31s-2.82,4.45-3.38,5.51-4.45,8.46-5.39,8.64-4,1-4,1-1.44.38-3.88.88-5.89,4.38-5.89,4.38"/><path class="cls-2" d="M196.68,268.83a8.92,8.92,0,0,0-3.13,1.83,7.59,7.59,0,0,1-2.17,2.09,27.09,27.09,0,0,1-4.88,1.28,44.11,44.11,0,0,1-6.26-.56s-24.69-5.1-25.93-4.51-3.45,3.7-5,4.83A40.77,40.77,0,0,1,145.9,276"/><path class="cls-1" d="M53.95,193.35a12.8,12.8,0,0,0,2.63,3c1.13.69,3.82-.25,4.51,0a11,11,0,0,1,2,.94c.88.5,1.88-.12,2.94.06a10,10,0,0,1,2.07.75c.81.19,1.19-.94,1.82-1.06s.5.25,1.13.13.81-1,1.63-1.25,1.25.44,2.44-.06,2-2.57,2.82-2.32.31,1,1.25,1.06,2.07-.44,2.32.69S80.26,198,80.69,199s.94,1.19.94,1.19"/><path class="cls-1" d="M650.12,484.42c1,.28,5.2.09,5.26.66s-1.16.66-1.6.72-2.07.81-2.44.91-1.28-.06-1.66.06-1,1.72-2.29,1.25c-.54-.2.09-1.32.63-2.07S649.12,484.14,650.12,484.42Z"/><path class="cls-1" d="M677.86,430.68a9,9,0,0,1,3.67.5c.34.34,0,1.54-.25,1.79s-2.79,1.06-3.32.69S677.61,430.87,677.86,430.68Z"/><path class="cls-1" d="M673.85,431c0-.25,2.54-.38,3-.06s.28,3-.12,3.32a1.63,1.63,0,0,1-1.85-.41c-.22-.47.25-1.25.19-1.53S673.82,431.28,673.85,431Z"/><path class="cls-1" d="M677.52,427.05c.19-.72,2.16-.91,3.45-.81a9.54,9.54,0,0,1,3.95,1.32,1.42,1.42,0,0,1,.09,1.72,1.3,1.3,0,0,1-1.35.09c-.6-.22-.72-.78-1.19-1a6.67,6.67,0,0,0-2.79-.22c-.31.22.41,1.79-1.16,1.47C677.53,429.46,677.33,427.77,677.52,427.05Z"/><path class="cls-1" d="M672,421.38a4.31,4.31,0,0,1,2.41-1c.28.19.41,1.91.66,2.41s1.5,1.38,1.72,2.13.06,1.79-.56,2-2.82-1.28-3.23-2A12.21,12.21,0,0,1,672,421.38Z"/><path class="cls-1" d="M678.18,406.22c0-.47,3-.75,3.6-.47s.25,1.88-.19,2.13-1.13-.44-1.6-.72S678.21,406.69,678.18,406.22Z"/><path class="cls-1" d="M667.87,398.27c.44.13,3,3.29,3.82,3.63s2.63.31,3.57.78,1.88,1.44,1.88,2.07a2,2,0,0,1-1.32,1.69,19.35,19.35,0,0,1-3.26-.85,14.73,14.73,0,0,1-3-.78c-.5-.34-1.94-2.6-2.57-3s-1.47-1.06-1.5-1.47S667.43,398.14,667.87,398.27Z"/><path class="cls-1" d="M588.57,413.28a10.19,10.19,0,0,1,3,0,5.42,5.42,0,0,1,3,1.91,4.14,4.14,0,0,1,.56,3.23,3.6,3.6,0,0,1-2.29,2.76,11.32,11.32,0,0,1-3.76.56Z"/><path class="cls-1" d="M622,408.83a2.64,2.64,0,0,1,1.6.53,1.79,1.79,0,0,1-.75,1.47c-.63.56-1.79,1.72-1.85,2.54s-.41,2.88-.94,2.91-.59-2.91-.31-3.82A16,16,0,0,1,622,408.83Z"/><path class="cls-1" d="M619.64,394.49c.22-.85,1.66-.69,2.07-.56s3,.53,3.38,1.13-1.63,4.89-2.07,4.79-.6-2-1-2.79-.91-.75-1.41-.94A1.43,1.43,0,0,1,619.64,394.49Z"/><path class="cls-1" d="M612.65,397c.5-.69,2.72-1.91,3-1.22s-1,1.44-1.19,1.79-.28.94-.78,1.1S612.15,397.65,612.65,397Z"/><path class="cls-1" d="M611.68,387.6c.66,0,.72.75,1.07,1.69s.88,2.22.06,2.51a1.13,1.13,0,0,1-1.44-.5c-.13-.28,0-.88-.06-1.22s-.47-.41-.69-1.07A1.15,1.15,0,0,1,611.68,387.6Z"/><path class="cls-1" d="M657.82,279.36c-.06-.56,1.28-1.41,2.22-1.35s2.35-.09,2.85-.09.78.53.81.94-.75,1-1.1,1.06-1.06-.12-1.38-.06-.88.44-1.35.41S657.88,279.92,657.82,279.36Z"/><path class="cls-1" d="M564.55,329.38c.91.13,1.22,1.25,1,2.72a32.45,32.45,0,0,1-1,5.33c-.41.85-2.29,2.41-2.66,3.7s1.54,6.83,1.79,7.74.31,2.41-1.06,2.85-1.6-.63-1.94-2.32-1-4-1.19-5.36a8.11,8.11,0,0,1,1.91-7.08,8.48,8.48,0,0,0,1.63-2.66,13,13,0,0,0,.34-3C563.42,329.94,563.64,329.25,564.55,329.38Z"/><path class="cls-1" d="M524,144.83c0-.3.49-1.1.94-1.16a4.63,4.63,0,0,1,2.18.3c.16.25-.5.88-.5,1.11s.49.74.38.89-.67.16-.91.11-.39-.39-.64-.49a8.41,8.41,0,0,0-1.07,0A.78.78,0,0,1,524,144.83Z"/><path class="cls-1" d="M505.57,146c-.53-1.16-.16-2.13.44-2.41a7.73,7.73,0,0,1,2.73-.44,5.07,5.07,0,0,0,2,.06c.75-.19,1.28-1.1,2.25-1.22a5.37,5.37,0,0,1,2,.22c.59.09,1.28-.19,1.88,0s1.13,1.38,1.94,1.44,1.35-.81,2.16-.94,1,.38,1.38.53,1-.13,1.32.38a1.22,1.22,0,0,1-.31,1.57,4,4,0,0,1-2.76.16,38.27,38.27,0,0,0-6.11-1c-1.38.06-3.45,1.1-5.86,2.25C507,147.4,506.1,147.18,505.57,146Z"/><path class="cls-2" d="M412.44,122.35s-.31,2.26,0,2.57,1.72.47,2.22.88-.53,2.07-.5,2.73.38,3.1.13,3.7-1.22,2.38-1.38,2.63-1.22,2.63-.91,3.85a4.54,4.54,0,0,0,1.54,2.13s2,1.91,2.16,2.19.94,1,1.13,1.32,0,1.22.38,1.47a2.27,2.27,0,0,1,1.13,1.38,2,2,0,0,1-.94,1.6,4.67,4.67,0,0,0-1.32.38c-.41.28-.5.72-.88,1s-1.29.34-1.75.63-.85,2-1.16,2.19-2.13.31-2.57.66-.38,1.88-.6,2.19-2.07.5-2.69.63-1,2.6-1.19,3.38a3.65,3.65,0,0,1-1.41,1.79,13.82,13.82,0,0,0-2.19,1.69c-.56.85-.65,3.91-.31,4.2.84.72,1.63.63,2.16,1.25a4.29,4.29,0,0,1,.13,3.51c-.47.6-1.19,1.35-1.38,1.57s-.19,1.16.28,1.32a11,11,0,0,1,1.22.28c.53.22.13,1.82-.19,2.38s-.66,1.85-.13,2.29a3.4,3.4,0,0,0,1.82.6c.66.09,1.5,2.5,1.75,3.29a13.35,13.35,0,0,0,2.91,3.45c.47.25,1.38,2.85,1.63,3s2.85,2.63,3.67,2.66.84,2,1.41,2.32.81,0,1.32.13.72,2.25.59,2.94.94,2.44.94,2.44.63,2.29,1.22,2.19,1.44-1.1,2-1.32,1,1.44.78,1.82.69,1.82,1.32,1.94,2.69.72,3,1.47-.6,1.25-.56,1.6a3.2,3.2,0,0,0,1.19,1.47,3.55,3.55,0,0,0,1.91.28c.82-.16,2-1.62,2.12-2.13a24.65,24.65,0,0,1,1.61-2.7c.38-.59,2.22-1.5,2.5-2s2.13-2.69,3-2.91,4.45.75,4.63.81c.92.31,3.73-1.42,2.41-.88,1.28-.53,2.91-2,2.94-2.63s-.19-2.13-.16-2.41a1.74,1.74,0,0,1,.85-1.06,3.91,3.91,0,0,0,1.57-1.28c.69-.81.16-1.13,1-2.1s1.06-1.47,1.53-1.88a16.36,16.36,0,0,1,2.57-1.85c.47-.16,1.53-.53,2-.75a11.25,11.25,0,0,0,2.07-1.91,4.25,4.25,0,0,0,0-1.88c-.12-.41-1-1.72-1.19-2.41s0-6.73.06-7.7a13,13,0,0,1,.75-3.95,7.86,7.86,0,0,1,2-2.35c.81-.53,4.35-2.94,5.23-2.73s1.13,1.16,1.38,1.41.69.16,1.25.59S471.29,167,472,167s2.25-1.41,3-1.6,2.89-.24,3.14-.3.94-.28.85-.75-1.19-.88-1.41-1.22a.94.94,0,0,1,.56-1.25c.56-.16,2.66.75,3.16.78a25.34,25.34,0,0,0,2.69-.25c.47-.06,1.35,0,1.82-.31a44,44,0,0,0,2.79-4.82,21.58,21.58,0,0,0,1.32-2.47c.25-.72,1.06-3,1.57-4.26a12.54,12.54,0,0,1,2.13-3.23,19.34,19.34,0,0,0,2.76-4.32,8.63,8.63,0,0,0,.81-3.6c-.06-1.38-.47-3.76-.56-4.6a7.06,7.06,0,0,1,.34-3.19,5,5,0,0,1,1.94-1.75c.44-.28,1.22-.81,1.22-.81"/><path class="cls-2" d="M428.88,210.2c-.5,0-1.38.17-1.44.61s.92.84.86,1.46-1.06,1.1-1.24,1.67.2,1.35-.24,2-1.81,1.33-2.3,2.08a2.46,2.46,0,0,0-.23,2.23,5.18,5.18,0,0,0,1.18,2.62,21.13,21.13,0,0,0,2.87,2.89,1,1,0,0,1-.08,1.69,3.84,3.84,0,0,1-2.38.33c-.88-.12-1.79-1.11-2.61-1.17s-1.56.67-2.12,1-1.56.26-1.81,1.08.43,2.66.5,3.79-.44,3.45-.31,4.2a1.45,1.45,0,0,0,1.33,1.4,17.84,17.84,0,0,1,2.63.23c.88.31,1.48,1.24,2,1.61s2.17,1,2.61,1.89-1.2,2.86-1.38,3.55"/><path class="cls-2" d="M426.77,245.39c-.18.69.17,2-.26,3.1s-2.64,2.71-3.2,3.22a3.15,3.15,0,0,0-.48,2.95c.38.94,1.27,2,1.52,2.53a12.6,12.6,0,0,0,.77,2.37A2.68,2.68,0,0,0,427.3,261c.94,0,3.72-.37,4.35-.32s1.54,1,2.36,1.48a4.27,4.27,0,0,0,3.14.6c1.25-.26,3.41-.78,4.1-.85s2.59-.55,3.41-.56,2,.7,2.67.76,2.37-.17,2.81-.11a1.25,1.25,0,0,1,1,1.3,7.21,7.21,0,0,1-1.61,2.36,1.6,1.6,0,0,0,0,2.22c.69.75,1.06.88,1.26,1.88s.37,2.4.57,3.21,3,4.49,3.42,5.17.83,2.37.34,3.13a4.76,4.76,0,0,0-.6,3.83c.51,1.37,1.27,1.68,3.47,2.6s7,1.89,8.35,2.57a29.62,29.62,0,0,1,5.42,3.65c1.45,1.3,1.58,1.8,2.65,2.61s2.27,1.17,3.15,1.92,1.27,2.37,1.84,3.24,1.64,1.24,3,2.36.77,2.31,2.22,3.93,4.77,1.47,5.84,2,4.28,2.28,5.72,2.84,3.88.1,5.83,1.08a5.65,5.65,0,0,1,1,.67"/><path class="cls-2" d="M503,314.61a19.05,19.05,0,0,1,3.41,4.18c.7,1.06,3.52,1.79,4.09,2.29s0,2.51.59,2.88,4.07-.53,4.44-.47.95,1.18,1.33,1.24.94-.13,1.32.18.52,2.63,1.09,3.31a27,27,0,0,1,2.53,3.3,5.49,5.49,0,0,1-.15,4.32c-.74,1.88-2.16,4.53-2.65,5.85a11.33,11.33,0,0,0-.58,5.64,36.84,36.84,0,0,0,2.69,7.62c1.11,2.58,2.62,5.68,3.65,7.67"/><path class="cls-2" d="M524.8,362.61c.39.76.72,1.35.93,1.69.76,1.25,1.71,2.56,1.66,3.81a5.2,5.2,0,0,1-1.6,3.4c-1.06,1.2-2.8,2.34-4,3.48a9.84,9.84,0,0,0-2.66,4.84c-.42,1.95.41,4,.61,6.38s.49,6.32,1.19,8.32,2.42,5.24,2.87,6.3,1.15,2.87.78,4.25a17.09,17.09,0,0,1-2.16,4.72,29.17,29.17,0,0,1-4.22,5c-1.49,1.45-3,3-4.1,4.17s-2.16,3.84-3.66,5.16-3.8,2.47-4.8,3.29a13.71,13.71,0,0,0-3.66,4.35c-.82,1.78-1.12,4.29-1.88,6.37"/><path class="cls-2" d="M500.12,438.13l-.13.35a15.53,15.53,0,0,1-2.9,5.1c-1.61,2-3.49,2.47-5.62,2.86s-5.52-.65-7-1.07-3.62,2.35-4,3.41a6.61,6.61,0,0,0,.34,4.07c.51,1.25,2.36,4.93,2.74,5.55a4.52,4.52,0,0,1-.53,3.83c-.81.82-3.54,3.47-4.17,4.23-.13.16-.29.35-.48.56"/><path class="cls-2" d="M478.43,467c-.71.78-1.72,1.76-2.32,1.72-.75-.06-3.65-1.79-4.59-2.16s-4.52-1.41-5.4-1.59a12.26,12.26,0,0,0-4,0c-1.19.26-5.37,1.73-6.56,2.05s-4,.28-5.45.48a19.05,19.05,0,0,0-5.25,1.86c-.68.51-1.63.26-3,1.15a23.49,23.49,0,0,0-3.32,3"/><path class="cls-1" d="M467.54,579.63c0-.69,1.5-2.88,2.38-3.51s3.76-1.32,4.38-.44-.06,3-.44,3.57-1.94.38-2.44.75-.88,1.57-1.88,1.69S467.54,580.32,467.54,579.63Z"/><path class="cls-1" d="M454,506.65a9.48,9.48,0,0,0,1.94,2.76c.38.38,1.9.8,1.75.31a17.86,17.86,0,0,0-2.76-4.07C454.33,505,453.58,505.59,454,506.65Z"/><path class="cls-1" d="M658.58,501.5a40.28,40.28,0,0,1,2.26-3.57,1.35,1.35,0,0,1,1.19,0c.63.31,9.21,5.07,10.15,5.57a27.75,27.75,0,0,1,3,1.44c.5.44.19,1-.06,1.44a14.38,14.38,0,0,1-1.32,1.44c-.31.38-.81.06-1.31-.31s-2.19-1.88-2.82-1.94-1.57.94-2.13.81.13-1.5-.81-2a22,22,0,0,0-4.26-.94c-.56-.13-1.57-1.32-1.82-1.44s-.69.31-.69.56a4,4,0,0,1,.06,1.57c-.19.63-.63,1.13-1.13,1s-.12-1.75-.12-2.13A12.55,12.55,0,0,1,658.58,501.5Z"/><path class="cls-1" d="M662.15,514.66a1.2,1.2,0,0,1,.88,1.44c-.12.69-.25,1.25-.94,1.19a1.14,1.14,0,0,1-1-1.44C661.21,515,661.59,514.59,662.15,514.66Z"/><path class="cls-1" d="M678.94,508.45c.31-.38.94-.19,1.38.13s.94.56.56,1.19-1.07.13-1.57-.25S678.62,508.83,678.94,508.45Z"/><path class="cls-1" d="M682,510.27a1,1,0,0,1,.88-.63c.69-.06,1.32.38,2.57.44s1.69-.06,3.44.06a5.11,5.11,0,0,1,3.76,2,3.28,3.28,0,0,1,.19,2.51c-.12.38-.25.5-.81.38s-.69-.75-.94-1.25a3.13,3.13,0,0,0-1.25-1.5,4.7,4.7,0,0,0-2.63-.25,5.42,5.42,0,0,1-2.19.31,7.24,7.24,0,0,1-2.82-1C681.76,511,682,510.27,682,510.27Z"/><path class="cls-1" d="M721,514.78c1.06-.25,2.13,1.63,2.44,2.88a20.13,20.13,0,0,1,.12,4.26A5.07,5.07,0,0,0,724,524a8.38,8.38,0,0,1,.81,2.19,3.63,3.63,0,0,0,1,1.94,2.39,2.39,0,0,0,1.69.63c.44-.06.69-1.25,1.57-1.32s2.38,1.32,3.38,1.75a15.24,15.24,0,0,1,2.69,1,3,3,0,0,1,.75,2.95,19.58,19.58,0,0,1-1.07,3.45,7.22,7.22,0,0,1-2.25,2.32,7.48,7.48,0,0,1-4.57.63,2,2,0,0,1-1.69-1.69,4.25,4.25,0,0,1,.13-2.13,12.21,12.21,0,0,1,1-1.75,8.87,8.87,0,0,0-.44-2.25,15.36,15.36,0,0,0-.19-1.69,1.35,1.35,0,0,0-1.38-.81c-.5,0-.88,1.19-1.44,1.5a8.79,8.79,0,0,1-2.13.5c-.56.13-.88,1.13-1.38,1.13s-.19-.94-.25-1.38-2,.19-2.44-.69a3.16,3.16,0,0,1,.44-2.76c.38-.5,1.88-.82,2.38-1.5s.31-2.57.19-3.51a10.17,10.17,0,0,0-1.13-2.76c-.31-.63-1.19-1.38-.94-2.69A2.86,2.86,0,0,1,721,514.78Z"/><path class="cls-1" d="M716.65,548.23c-.06-1.13,1.5-2.38,1.5-2.38s1-.88,1.75-.31a4.12,4.12,0,0,1,1.69,1.88c.38.94.81,2.57.38,3.07a1.85,1.85,0,0,1-1.82.69,4.74,4.74,0,0,1-1.88-1.63C717.9,549,716.71,549.36,716.65,548.23Z"/><path class="cls-1" d="M714.52,554.37c.12-.5.56-.75,1.19-.81a12.37,12.37,0,0,1,2.13.25c.63.06,1.06-.38,1.63.06s.25,1-.13,1.63-.75,1.25-1.38,1.44-1.32-.5-1.82-.75-1.38-.12-1.69-.56S714.39,554.87,714.52,554.37Z"/><path class="cls-1" d="M751.1,542.47a3.44,3.44,0,0,1,3.13-1.07,3.67,3.67,0,0,1,2.5,2.19,6.37,6.37,0,0,1-.37,3.38c-.31,1.07-1.57,2.25-2.19,2.25a6,6,0,0,1-3.57-3.07A3.58,3.58,0,0,1,751.1,542.47Z"/><path class="cls-2" d="M770.41,518.43s.94,1.38,1.75,1.63a14.84,14.84,0,0,1,3.07,1.06c.63.44.25,1.25.88,1.75s.88.25,1.57.44.56.69,1,.94,1.06.19,1.75.94.94,2.63,1.75,3.51a24.31,24.31,0,0,0,3.38,3c.81.5,2.07-.06,2.69.06s.94.63,1.57.44a18.15,18.15,0,0,0,2.26-1.13s1.89-2.71,3.29-1.51,3.1-.9,3.1-.9"/><path class="cls-1" d="M597.52,608.38c.75-.56,3.76-.75,4.51-.56s1,.88,1.63,1,1.07-.31,1.94.25,1.5,1.63,1.32,2-1.38-.75-1.94-1.06a.87.87,0,0,0-1.25.56,1.42,1.42,0,0,1-1.07,1.06c-.63.13-1.32-.37-2.25-.37A6.88,6.88,0,0,0,598,612a2.3,2.3,0,0,1-1.75-.31c-.88-.56,0-1.06.38-1.63S596.77,608.94,597.52,608.38Z"/><path class="cls-1" d="M565.39,736.07c-.17-1-1.57-1.16-2.57-1.72s-1.25-1.35-1.91-2-1.41-.69-2.85-.59a5.27,5.27,0,0,0-2.94.66c-.88.56-.12,3.23-.69,3.41a2.78,2.78,0,0,1-2.47-.12c-1.06-.6-2-2.51-3.48-3.26s-2.22-.56-4.2-.25-3.88,1.94-4.57,2.22a17.38,17.38,0,0,1-2.5.78c-1.22.31-2.25,1.16-3.07,1.38s-1.19-.09-2-.09-1.25.66-1.85.78a20,20,0,0,0-3.73.47c-1.22.44-2.32,1.54-3.54,1.72s-.94-.78-2.13-.75-1.32.85-2.25,1.38-1.38.22-2.29.56-1.25,1.1-1.69,2.19-1.16,2.88-.06,3.63,1.94-.69,2.54-1.06a3.13,3.13,0,0,1,1.38-.56c.53-.09,1.25-.69,2.13-.63s1,.44,1.72.28,1.25-.88,1.85-.81.78.38,1.44.28,0-1,1-1.25,2.07,1,2.79,1.06,1.91-.94,3-1.19a21.58,21.58,0,0,1,3.13-.31,21.29,21.29,0,0,1,2.94-.31c1.19,0,1.13.78,1.94.75a4.79,4.79,0,0,0,2.54-1.47c.85-.75,3.35-2.25,4.38-2.19s1.63.85,2.47,1,2.47.56,4.07.81,2.13.94,2.73.85,1-.75,1.82-1.07,1.25-.12,2.35-.41a8.27,8.27,0,0,0,2.88-1.35C564.7,738.23,565.64,737.48,565.39,736.07Zm-32.76,5a12.55,12.55,0,0,1-2.79,1.1c-1.06.22-1.41.13-1.66-.28s.22-1.1,1.1-1.5a13.42,13.42,0,0,1,2.6-.81c.59-.12,1.38-.28,1.5.13A1.42,1.42,0,0,1,532.63,741.05Z"/><path class="cls-2" d="M565.39,736.73a5.11,5.11,0,0,1,1.63.16c.6.22,1.38,1.41,1.88,1.44s1.16-.5,1.88-.6,3.95.31,5.39.28,3.54-1.16,4.48-1.1,1.75.72,2.35.72,1.66-.78,2.54-.72,1.94,1,2.91,1.1,1.94-.59,2.6-.31,2.1,1.88,2.79,2.29,1.41.41,2,.85.94,1.38,1.54,1.35,1.1-.91,2-.85,2,1,3.32,1.38,2.85.31,3.35.66-.19,1.66.5,1.88,2.35-1.91,3.92-1.69c1.09.15,1.72,1.82,2.66,1.5s1.28-2.63,2-3.26c.32-.27,2.94-.34,4.1-.34s2.94-2.29,4.1-2.54c.61-.13.72.25,1.32.31a4.67,4.67,0,0,1,1.57.28c.44.22.6.75.78,1.07s.47.34.63.94-.25,1.79-.16,2.29a2.16,2.16,0,0,0,.94,1.38c.38.13,1.16.38,1.5.53s.75.5,1.41.81a8.48,8.48,0,0,1,2.26,1.16c.41.47.44,1.63.75,2.32a5.92,5.92,0,0,0,1.1,1.44"/><polyline class="cls-1" points="635.51 750.41 635.42 751.48 634.38 751.73"/><path class="cls-1" d="M573.53,735.57c0-.31.47-.44.66-.88s0-1.5.25-1.85a.79.79,0,0,1,.88-.28c.31.06.38.25.44.53s0,.63.19.82a.74.74,0,0,0,.66.22c.38,0,.53-.5.66-.78a.82.82,0,0,1,.72-.53,1.3,1.3,0,0,1,1,.88,2.87,2.87,0,0,1,0,1.63c-.22.31-.63.22-1,.34s-.31.56-.66.66-.75-.38-1.28-.47-1.13.75-1.63.78S573.53,735.88,573.53,735.57Z"/><path class="cls-2" d="M631.1,746.41a15.82,15.82,0,0,0-3,.16,5.38,5.38,0,0,0-2.16,1.63,16.27,16.27,0,0,1-1.85,2.5c-.44.25-2.94,1-3.32,1.31s-1,.91-.75,1.44a5,5,0,0,0,1.94,1.66,10.72,10.72,0,0,1,2.47,1.22c.56.56.25,2.32.69,3.07s1.41.69,1.88,1.16.51,1.45.72,1.79,1.16.41,1.25,1.47-1.69,1.82-2,2.41-.78,1.79-.94,2.13-1.1,1.57-1.19,1.94.28,1.35-.06,1.94-2.44,1-3.38,1.63-2.79,2-3.35,2.25-1.35.19-1.91.5-1.38,1.22-1.63,1.31a14,14,0,0,0-2.38.5c-.94.38-2.72,2-3.7,2.38a12.08,12.08,0,0,1-3.16.47,35.28,35.28,0,0,0-5,1.22c-1.13.38-3.48,1.63-3.95,1.69a3.75,3.75,0,0,0-1.88.38,5.75,5.75,0,0,0-1.63,1.57"/><path class="cls-3" d="M610.33,789.5a12.77,12.77,0,0,0,1.31-2c.25-.66,0-1.5.19-2.26s1.06-1.5,1.22-2-.09-1.28.19-2,.88-1,1.07-1.57a6.46,6.46,0,0,0,.13-1.72"/><path class="cls-1" d="M569.71,819.91c-.31-.31-.19-1.19.09-1.6a4.62,4.62,0,0,1,1.1-.91c.25-.19.22-.63.56-.72a1.09,1.09,0,0,1,1.1.44,1.36,1.36,0,0,1-.22,1.57c-.41.44-1.25,1.31-1.63,1.38S570,820.23,569.71,819.91Z"/><path class="cls-1" d="M507.73,730.53c.34.09.34.47.66.56s.5,0,.84.13.19.31.78.47,1.66.06,2,.66a1.91,1.91,0,0,1-.16,1.69c-.19.31-1,.66-1.06,1.1a5.85,5.85,0,0,1-.22,1.69c-.28.6-1.13,1.53-1,2.32s.94,1.16,1,1.94-1,4.2-1.16,5.36.16,2.94-.5,3.45-1.28-.13-2.22-.06-1.25.85-2.07.94-1.1-.53-1.75-.47-.85.47-1.19.69-.78.19-.94.66a2.71,2.71,0,0,0-.09,1.5,3.18,3.18,0,0,1,.19,1.5c-.12.5-.69.75-.94,1s-.16.63-.78,1a3.91,3.91,0,0,1-1.6.31c-.34.06-.47.5-.91.59a11.21,11.21,0,0,1-1.94-.09c-.72,0-.78.22-1.57.13a1,1,0,0,1-.84-1.22c.06-.5.5-.85.66-1.1a3,3,0,0,1,.72-1.13c.47-.37,1.25-.28,1.94-.88s.66-1.88,1.38-2.6.94-.34,1.88-.91.66-1.44.88-2.19.53-.94.69-1.5-.06-.94.53-1.57a4.8,4.8,0,0,1,1.57-.88c.31-.22.44-.91,1.19-1.13s1.1.47,1.63.13.16-2.94.78-5a9.79,9.79,0,0,1,1.06-2.41,7.9,7.9,0,0,0,.09-2.47c-.09-.75-.34-1.22-.22-1.69S507.38,730.43,507.73,730.53Z"/><path class="cls-1" d="M493.1,761a8,8,0,0,1,3,.13c1,.19.44,1.66.19,2.19s-.75.85-.91,1.63a21.74,21.74,0,0,1-.25,2.79c-.25.5-.91.78-1.06,1.47s.06,1.35.56,1.47,1.28-.22,2,.13a.92.92,0,0,1,.16,1.56c-.47.31-1.54.41-1.85.88a1.08,1.08,0,0,0,.06,1.19,4.22,4.22,0,0,1,.59,1.25c.06.5-.12,3.54.06,4.17s.69,1,1,1.63.25,1.41.69,1.63,1.16.22,2,.53,2.66,2.38,3.26,2.51,1.1-.41,1.38-.41.47.16.47.38a3.19,3.19,0,0,0-.09,1.16c.13.41,1.53,1.07.91,1.63s-2.41-1-3-1.38-1.19-.41-1.91-.81-1.47-1.41-1.94-1.6-1.5.25-2.38.06-1-2.79-2.22-2.94-5.17,2.66-5.7,2.32,0-.94.38-1.41a7.34,7.34,0,0,1,2.19-1.82,18,18,0,0,1,2.07-.34c.81-.16.28-1.72.16-2.38s-.16-1.19-.38-2.1-1-.22-1.88-.56-.78-.69-1-1.47a5.41,5.41,0,0,1-.12-1.44c-.06-.41-.78-1.06-.38-1.44s2.32.34,2.88-.06a1.55,1.55,0,0,0,.66-1.47c0-.62.09-.91-.44-1.22s-1.44,1.22-1.94,1.16-.44-.44-.47-.81a8,8,0,0,0-.09-.94c-.06-.31-.47-.5-.66-.91a1,1,0,0,1,.09-1.19c.38-.37,1.22-.31,1.79-.59a14.86,14.86,0,0,0,2.35-2,1,1,0,0,0,0-.72c-.06-.22-.47-.12-.59-.41A1.75,1.75,0,0,1,493.1,761Z"/><path class="cls-1" d="M480.2,773c.38-.22,1.38,0,1.88-.09s1.38-.63,1.75-.47a2.27,2.27,0,0,1,.78,1.66,1.85,1.85,0,0,1-1.32,1.41,8.28,8.28,0,0,1-2.35,0c-.56-.09-1.41-.22-1.5-.56A3,3,0,0,1,480.2,773Z"/><path class="cls-1" d="M473.9,774.66c-.25-.34.72-1.41,1.79-1.88a3.63,3.63,0,0,1,3,.13,1.3,1.3,0,0,1,0,1.13.79.79,0,0,1-.75.56c-.44,0-1.32-.09-1.91-.06S474.15,775,473.9,774.66Z"/><path class="cls-1" d="M483.93,789.47a8.14,8.14,0,0,1,.44-3.1c.25-.47,1.47-1.16,1.63-1a16.11,16.11,0,0,1,.25,3.26,1.24,1.24,0,0,1-.78.85C484.93,789.63,484.11,789.72,483.93,789.47Z"/><path class="cls-2" d="M409.87,610.09a9.5,9.5,0,0,1,0-3.28c.19-1.13.75-3,1.57-3.45a6.35,6.35,0,0,1,2.5-.31c.5-.06,1.38-1.13,1.94-1.32a2.29,2.29,0,0,1,1.82.06c.56.31,1,.81,1.44.81a40,40,0,0,0,4.19-1.79"/><path class="cls-2" d="M404.13,617.79s1,5.62.77,6.56a2.3,2.3,0,0,1-1,1.57c-.44.38-1.07.44-1.44,1.07s-.12,1.19-.5,1.63-1.19.63-1.25,1.19.38.57.31,1.25-1.94,1.32-2.07,1.82.13,1.25,0,1.63-.19,1-.88,1.13-2,0-2.34.26-.15.82-.34,1.15-.56.52-.75,1-.11,1-.49,1.38a3.6,3.6,0,0,1-2.08.23,1.49,1.49,0,0,0-1.36.59,5.44,5.44,0,0,0-.74,1.61c-.19.53-.44,1.33-1,1.6s-1.5.27-1.88.52a4.24,4.24,0,0,0-1,1.13,15.56,15.56,0,0,0-.89,2.3,9.4,9.4,0,0,1-.85,1.55,11.22,11.22,0,0,1-1,1.52,11.89,11.89,0,0,1-1.3,1.25,9.62,9.62,0,0,0-1.25,1c-.41.42-1.07,1.67-1.52,2.18a20.2,20.2,0,0,1-2,1.71c-.39.3-1.44,1.14-1.69,1.32a4.58,4.58,0,0,1-1.1.58c-.28.06-.77.11-1.06.17a3.35,3.35,0,0,1-1.41.34,2,2,0,0,1-1.1-.53,2.75,2.75,0,0,0-.8-.55c-.42-.16-.74.2-1.14.33s-.61.74-1,.66-.7-.71-1.22-.63-.28.91-.44,1.1a.75.75,0,0,1-.81.34,12.24,12.24,0,0,0-1.85-.5c-.66,0-.92.44-1.32.5s-1.16,0-1.41,0-.28.36-.6.34-.59-.34-.85-.34-.25.39-.56.41a3.78,3.78,0,0,1-.94-.19"/><path class="cls-1" d="M418.22,801.09a2.12,2.12,0,0,1,.56-1.63c.38-.34.72-.31,1.19-.72s.72-1.22,1.1-1a1.59,1.59,0,0,1,.6,1.35c-.09.31-.66.16-.72.56s.16.66.09.94-.6.25-.66.59.41,1.16-.28,1.38-.78-1.1-1.07-1.25S418.37,801.37,418.22,801.09Z"/><path class="cls-1" d="M459.72,854.4c-.16-.44.69-.57,1.06-.6s1.19.81,1.63,1,1.28-.22,1.69,0,.63,1.06.38,1.31a4.79,4.79,0,0,1-2.57-.06c-.31-.22-.91-1.1-1.22-1.28S459.87,854.83,459.72,854.4Z"/><path class="cls-1" d="M480.86,859.75c.72-.5,2.94,2.07,2.94,2.54s-.69,1-1,1S480.14,860.25,480.86,859.75Z"/><path class="cls-1" d="M483.71,863.89c.22-.53,1.72.19,2.26.59s.72.91,1,1.1.44-.12.85.41-.66,1.41-1.1,1.44-1.32-1.28-1.57-1.57S483.49,864.42,483.71,863.89Z"/><path class="cls-1" d="M491.19,870.59c-.8-1,1.28-2.32,1.57-2.44s1-1.88,1.38-2.26a11.74,11.74,0,0,1,2.38-1.35c.53-.22.94-.85,1.25-1s1.38.09,1.69,0,.5-1,.75-.94.5,1.31.28,1.75-2.29,1.38-2.82,1.75a20.36,20.36,0,0,0-1.94,1.69A13.5,13.5,0,0,1,494,870C493.07,870.74,491.58,871.08,491.19,870.59Z"/><path class="cls-1" d="M562.76,704.28c.38-.5,1.5-.31,1.82.12s.44,2.69,0,3.13a1.61,1.61,0,0,1-1.82.06A6,6,0,0,1,562.76,704.28Z"/><path class="cls-1" d="M563.26,699.46c-.38-.44,0-3.51.44-3.51s.06,2.25.25,2.57.69-.06.94.25.06.5-.19.75A1.14,1.14,0,0,1,563.26,699.46Z"/><path class="cls-1" d="M568.21,568c.44-.44,1.13.13,1.88.06s1.69-1,2.5-1,1,1.13.75,1.63-1.57,1.13-2.25,1.5-2,.94-2.69.56S567.77,568.48,568.21,568Z"/><path class="cls-1" d="M623.25,595.95c-.31-.69.25-1.38,1-1.63a9.92,9.92,0,0,1,3.32-.13c.69.13,1.38,1,2.32.88s2.88-1,3.45-.75.44,1.75,0,2-1.94,0-2.63.19-1.13.63-1.75.63-.56-.94-1.5-1.13-2.5.81-3.13.75S623.56,596.63,623.25,595.95Z"/><path class="cls-1" d="M634.77,595.57a1.1,1.1,0,0,1,1.38-1.07c.94.13,2,.81,2.57.81s1.13-.69,1.88-.25.56.94.94,1.69,1.82,2.19,1.63,2.82a1.24,1.24,0,0,1-1.19,1c-.5-.06-.56-.75-.88-1.25s-.81-.06-1.19-.63,0-1.57-.81-2-1.82-.13-2.76-.19S634.83,596.07,634.77,595.57Z"/><line class="cls-1" x1="633.71" y1="595.51" x2="634.71" y2="595.44"/><path class="cls-1" d="M642.54,603.59c.34.41,0,2.88.13,3.26a1.68,1.68,0,0,0,1.07.88,4.92,4.92,0,0,1,1.75.38c.56.35,1.72,1.54,2.13,1.5a4.75,4.75,0,0,0,1.75-1.25c.5-.5.69-1.19,1.38-1.69s2.6-.78,3.38-1.16,2.07-1.72,2.94-1.63a7.77,7.77,0,0,1,1.75.59c.34.06.75,0,1,.06s.47.28.75.38a8.88,8.88,0,0,0,1.19.1c.53.06,5.36,1.47,5.51,2s-.31,2-1,2.1-.81-.44-1.5-.66a11.08,11.08,0,0,0-1.94-.12c-.5-.09-1.88-1.07-3.07-1.38a6.74,6.74,0,0,0-3.63.06,42.93,42.93,0,0,0-4.67,2.32c-1,.59-2.94,2.85-4.29,2.94s-3.95-2.07-4.51-2.44-1.91-.25-2.54-.88-.94-2.5-1-3.13.13-1.91.63-2a5.37,5.37,0,0,1,1.44,0C641.5,603.78,642.19,603.18,642.54,603.59Z"/><path class="cls-1" d="M404.34,716.5c.38-.28,3.79,0,4.2.22s.41,1.72.16,2a3.82,3.82,0,0,1-2.35.47,3,3,0,0,1-1.91-1C404.22,717.87,404,716.78,404.34,716.5Z"/><path class="cls-1" d="M505.86,501.58c.13-.75,1.5-.81,2.76-.5s2.25,1.38,3.45,1.57,2-.44,2.5.38a1.09,1.09,0,0,1-.75,1.75c-.88.19-1.5-.63-1.94-.81s-1.13.63-1.69.56-1.88-1.69-2.44-2.07S505.73,502.33,505.86,501.58Z"/><path class="cls-1" d="M654.55,751.95c-1.25-1.16-3.85-3.23-5-4.57a21.05,21.05,0,0,1-3.32-4.82c-.66-1.54-1-2.88-1.69-4.29s-1.32-1.82-2.13-4.6-.38-8.3-.85-9.8-2.32-5.36-2.91-9.11,3-7.74,3.13-10.71.34-3.23-1.06-6.14-3.38-3.85-6.42-3.76-8.3,2.54-10.84,3.41a94.48,94.48,0,0,0-9.74,3.76c-8.17,3.38-13.66,6.86-15.28,7.49s-2.29.28-3.95.88-4.38,3.41-10.05,4c-4.56.45-4.6.06-7.58-.09a45.07,45.07,0,0,0-7,.25c-2.6.19-8,1.16-9,1s-1.22-.69-2-.72-2,1.13-2.63,1.13c-1.13,0,0-1.91-1-2.44a2.63,2.63,0,0,0-3.1,1c-.66.91.13,1-.88,1.35s-1.25-.75-2.5-.75c-2.41,0-2.91,2.66-6.64,2.91-1,.07-.82-.5-1.75-.78s-1.75,1.19-5,.94a33,33,0,0,1-8.58-2,131.07,131.07,0,0,1-12.78-6c-3.63-1.88-9.24-5.2-12.12-7.17a86.81,86.81,0,0,1-8.86-6.64c-3.1-2.72-6.33-5.89-7.36-8.39a12,12,0,0,1-.66-6c.06-1.69.22-1.19.5-1.88s.88-.84.81-1.88-.91-1.66-.91-3.35A85.12,85.12,0,0,1,487.15,663a14.71,14.71,0,0,1,2.1-5.2,2.22,2.22,0,0,1,1.5-.69c.56-.09,1.5.25,2.16-.09s2.66-2.44,5-4a17.16,17.16,0,0,1,6-2.41c2.16-.59,2.47-.78,3.82-1.06s2.69-.19,4.29-.6,3.41-1.35,4.48-1.47,1.25.09,2.25-.06,2.47-1.16,3.45-1.16,3.32,2,3.95,2.41a9.14,9.14,0,0,1,2.07,1.25c.63.63,2.85,4.76,3.95,6a5.66,5.66,0,0,0,3.91,2.07,9.85,9.85,0,0,0,4.35-1c2.13-.88,4.79-7.3,5-8.52a10.56,10.56,0,0,0-.5-4.2,58.4,58.4,0,0,1-2.22-9.62c-.22-2.19-.72-7-.66-10s.34-8.68.5-10.08.88-3.32,1.1-4.63.13-2.29.38-3.51,1.16-2.19,1.1-3-2.69-4.54-4-6.61a49.82,49.82,0,0,1-3-5.33c-1.06-2.13-1.16-3.38-2.35-4.76a34.7,34.7,0,0,0-7.55-5.26c-1.22-.41-1.91-1.22-2.88-1.35s-5.2,2.38-6.48,2.63-1.57,0-3.32-.75-9.46-4-11-4.07-1.88,1.06-3.45,1.13a20.23,20.23,0,0,1-4.38-.44c-1.79-.28-2.88-1-3.92-1.13s-1.69.19-2.69,0-2.32-1.19-4.35-1.75-4.38-1.44-5.42-.91-.94,2.19-.85,3.38a2.77,2.77,0,0,0,.94,2.13c.31.13,1-.28,1.44-.16s.63,1.82.94,2,1.25-.06,1.31.41-1.47.31-1.57,1,.84.85,1.38,1.44a3.92,3.92,0,0,0,2.07,1.32,26.13,26.13,0,0,0,4,.31c2.32,0,3.26,0,3.38-.78s-.91-2.22-.41-2.47,1.32,1.47,1.79,1.69.85-.22,1.28,0,1.79,1.78,1.6,2.1-1.22-.69-1.5-.31.16,1.22.56,1.82a1,1,0,0,0,1.06.56c.41,0,.88-.5,1.32-.41s.88,1.28,1.32,2,1.19,1.13,1.19,1.82a4.63,4.63,0,0,1-1.69,3.26c-1.41,1.35-2.79,2.82-8.71,6.58l-10.09,6.39a10.7,10.7,0,0,1-3.63,1.69c-1.63.25-8.27.13-10.65.31s-13.34,1.32-15,1.06-1.57-1-1.57-1.94,9.65-10.59,10-11.09-.06-1.07.38-1.69,4.32-4.2,4.51-4.63-.44-.63-.88-.81a8.73,8.73,0,0,0-2.94-.19c-.75.13-1.25.69-2.19,1.5s-5.45,5.51-5.7,6.33a15.11,15.11,0,0,1-.88,2.69c-.37.63-2,1.69-2.19,2.07s0,.81-.31,1.44-6.15,6.34-8,7.39c-1,.56-5.5.23-8.39-.38-1.5-.31-3.95-4.64-5.51-8a35.81,35.81,0,0,1-2.76-11.34c-.31-3.63-.94-17.35-.56-20.29s.63-4.2,2.25-6a4.75,4.75,0,0,1,4.26-1.88,38.5,38.5,0,0,1,6.08.69c2.07.38,4.2,1.5,6.08,1.69s6.08-1.44,8.52-3.13a7.34,7.34,0,0,0,3.32-6.08c0-2-1.13-4-1.69-5.83a33.91,33.91,0,0,1-1.38-7c-.19-2.5.31-3.26,1.75-5.2a39.18,39.18,0,0,1,6.14-6.39c3.26-2.88,3.63-5.2,4.26-7.14s0-3.82-.44-5.45a16.59,16.59,0,0,0-2.07-4.76,13.54,13.54,0,0,0-4.13-4.45,15.08,15.08,0,0,1-4.2-4.26c-1.13-1.75-1.57-2.69-2.69-4.82s-1.38-2.38-2.5-4.64c-.32-.63-.68-1.34-1.05-2a27,27,0,0,1-.78-4.85s-.39-2.5-1-5.39a35.59,35.59,0,0,0-2.44-7.31,26.58,26.58,0,0,0-5.52-8.33,19.42,19.42,0,0,0-7.35-4.37,25.78,25.78,0,0,0-7.72-1.57,32.53,32.53,0,0,0-8.35.39,29,29,0,0,0-8.16,2.09,22.51,22.51,0,0,0-7.37,5,19.75,19.75,0,0,0-4.76,7.29,16.81,16.81,0,0,0-1.31,7.53,15.89,15.89,0,0,1-.13,3.11,1.48,1.48,0,0,1-.28.57,6.48,6.48,0,0,1-1.88,1.44,32.06,32.06,0,0,0-5.26,3.7,87.51,87.51,0,0,0-9.21,9.46c-1.19,1.44-1.94,3.57-3,6.26a86.66,86.66,0,0,1-6.2,11.21c-1.44,2.07-1.57,2.94-3.44,6.45s-5.83,7.77-6.83,9.46a52,52,0,0,1-4.82,6.14c-1.25,1.38-2.25,2.26-3.95,3.88A21.38,21.38,0,0,1,342,552.4a20,20,0,0,1-5.7,2A37.39,37.39,0,0,1,331,555a20.34,20.34,0,0,1-3.88.06,24.45,24.45,0,0,1-7.58-1.56,29.41,29.41,0,0,1-3.44-2.13,50.54,50.54,0,0,1-5-3.26A15.31,15.31,0,0,1,308,545.2a12.79,12.79,0,0,1-2.32-4.82c-.62-2.33-2-4-2.13-6.77a43.92,43.92,0,0,1,.5-7.33,16.85,16.85,0,0,1,2.51-6.51,10.52,10.52,0,0,1,4.95-3.88c2.25-.75,5.2-3,6.77-3.51s2.88-.88,4.2-1.44a14.65,14.65,0,0,0,3.95-2.13c1.75-1.32,3.7-3.26,5.76-4.89s5.07-4.57,6.58-6.08a69.42,69.42,0,0,0,5.14-5.76l3.2-2.74s2.22-4.24,2.81-5.63A45.23,45.23,0,0,0,352,476a38.6,38.6,0,0,0,.21-6,27.83,27.83,0,0,0-.63-5.16,14.33,14.33,0,0,0-2.16-4.84,6.62,6.62,0,0,0-2.9-2.61,16.86,16.86,0,0,0-4.8-1.44,54.35,54.35,0,0,0-6.58-.48,23.12,23.12,0,0,0-4.95.47,21.74,21.74,0,0,0-5.43,2.2,66.47,66.47,0,0,0-6.48,4.78c-1.65,1.39-5.7,4.86-7.5,6.41s-3.8,3.22-5.35,4.42a47.69,47.69,0,0,1-5.7,3.86,7.5,7.5,0,0,1-3.56,1.34,19.64,19.64,0,0,1-4.67-.15,13.73,13.73,0,0,1-4.2-1.16,21.42,21.42,0,0,1-4.4-2.25,10.78,10.78,0,0,1-3.28-3.64c-.89-1.65-1.69-4-2.36-5.62a25.67,25.67,0,0,1-1.54-4.84,14.56,14.56,0,0,0-.65-3.85c-.48-1-2.19-3.74-3.11-5.15s-2.31-3.58-3.51-5.17-2.84-3.3-3.41-3.92a5.7,5.7,0,0,0-1.92-1.55,4.82,4.82,0,0,1-2.26-1c-1.2-.87-2.91-4.08-4.74-6a38.53,38.53,0,0,0-4.92-4.51c-1.92-1.49-2.39-1.8-4.47-3.19a41.15,41.15,0,0,0-4.78-2.88,16.73,16.73,0,0,0-7.16-2.08,29.81,29.81,0,0,0-5.95.29c-1.53.07-3.88.25-5.76.54a29.49,29.49,0,0,0-4.81,1.29c-1.25.42-2.31,1.3-3.75,1.59s-5,.76-6.48,1a38.47,38.47,0,0,1-4.72.69,30.67,30.67,0,0,1-3.26-.67,15.63,15.63,0,0,1-3.83-.5,12,12,0,0,1-3.72-3c-.95-1.12-2.85-4.08-4.3-6.11s-4.65-6.48-5.69-7.66a22.59,22.59,0,0,0-3.15-2.86c-1.2-1-3.18-2.11-4-2.92a8.73,8.73,0,0,1-2-3.87,37.14,37.14,0,0,1-.67-5.51c-.11-1.6-.28-4.29-.36-5.82s-.43-3.82-.42-5.79.22-4.61.27-5.86-.12-3.07.06-5a29.13,29.13,0,0,1,1.3-6.43,26.38,26.38,0,0,0,1-5.21,24.78,24.78,0,0,1,2.4-6,15.85,15.85,0,0,0,1.72-4.46c.18-1.41,0-6.29.2-7.58a31.9,31.9,0,0,1,1.44-4.74c.46-1.13,1.48-3.74,1.32-4.36a6,6,0,0,0-.89-1.56l5.61-21.28s.75-.82,1.06-1.26a9.19,9.19,0,0,0,.89-2.36c.24-.91,5.1-17.67,5.23-18.11a4.47,4.47,0,0,0,.05-1.57,2.6,2.6,0,0,0-.57-.87s5.62-19.8,5.83-20.49a7.9,7.9,0,0,1,.71-1.92c.31-.44,1-.76,1.31-.23s-.08,1.63-.3,2.54-1.18,2-.57,2.92,3,2.3,3.25,3-.17,2.44.15,2.82,1.1.52,1,1.43-1.65,2-1.67,2.46,1.22,3.5,1.22,3.81a4.78,4.78,0,0,0,.13,1.13c.1.34,2.57,4.84,3,4.68s.43-1.07.87-1.38a6.9,6.9,0,0,1,2.78-.65,11.53,11.53,0,0,0,2.69.2c1-.16,3.49-6.66,3.17-7.66a13.06,13.06,0,0,0-1.3-2.46s-.35-.91-.2-1.28,2-.86,2.09-1.24-.43-3.44-.93-3.5-1.71,1.33-2.12,1.52-1.5-4.47-1.51-4.81a10.58,10.58,0,0,0,0-1.72c-.1-.34-.7-1.19-.45-1.62s1.25-.45,1.5-.92.58-1.57.33-1.85-1.22.6-1.35.2.9-1.57.89-2a3.18,3.18,0,0,1,.65-1.48c.22-.25,1.25-.7,1.18-1s-.6-.28-.82-.53-.35-1.44-1-2.09-2.07-.83-3-2-1.28-4.35-1.38-4.85c-.19-1-.55-2.16-.92-2s.11,1.91,0,2.57-1.69.61-2.25.74a10.43,10.43,0,0,1-2.5.24c-.38-.09-.69-.43-1-1.18S187.4,211.46,186.6,209.4s-3.35-9.09-3.67-10.09a7.2,7.2,0,0,1-.78-3.38,12.33,12.33,0,0,1,.79-3.26,14.5,14.5,0,0,1,1.86-3.21,1.66,1.66,0,0,1,1.31-.64c.44.06.73.78,1.07.56s.27-1.44.14-2.07-.89-1.31-1-1.87a4,4,0,0,1,.3-2.19c.34-.72.62-1.45,1.59-1.61s.85.81,1.51.84,1.52-1.64,1.65-2,1.16-.16,1.28-.82-.48-.94-.48-1.22.4-.66.62-.79.59-.13.72-.38,1.94-4.12,2.07-4.4.31-.53.09-.85-.72.1-1.37.76-2.14,2.24-2.39,2.37a3.74,3.74,0,0,0-1.15.82c-.44.47-1.08,1.67-1.43,2a1.6,1.6,0,0,1-1.34.51c-.38-.12-.54-1-.45-1.88a18.19,18.19,0,0,0-.05-2.91c-.07-1-.52-3-.62-4s-.39-2.56-.39-2.56l-3.88.22s.52,3,.66,4,.43,3.38.6,5.19a21.07,21.07,0,0,1-.49,5.45,17.45,17.45,0,0,1-1.45,3.49,6.74,6.74,0,0,1-1.12,1.32c-.31.28-2.5,1.3-3.09,1.71a14.66,14.66,0,0,0-1.65,1.58s-1.4.92-1.62.83,0-1.25-.2-1.56-1.92-1.3-2.55-2a26.54,26.54,0,0,1-1.68-3.25c-.25-.53-1.1-1.09-1.33-1.46a16.07,16.07,0,0,0-.7-1.47c-.25-.31-1.29-.77-1.32-1.24s.31-.82.43-1.07.06-.78-.41-.75-1.18.89-1.5,1-.72-.46-.88-.84a4.18,4.18,0,0,0-.79-1.09c-.32-.34-.91-.56-1.26-1.12s.05-1.38-.42-1.94a6.56,6.56,0,0,0-2.92-1.17c-.6-.06-2.31.39-1.72.76a4.19,4.19,0,0,1,1.18,2.62c-.06.56-.62,1.45-.23,2.19s1.66.46,1.82.93-.74,1.23-.43,1.51,1.85,0,2.38.11a6.72,6.72,0,0,1,2.71,2,18.33,18.33,0,0,0,1.4,2.5c.5.56,1.36,1.18,1.39,1.59s-.49,1.19-.18,1.47,1.22-.13,1.82.17,1.14,2,1.46,2.31.85.68.89,1.18-.84,1.38-.55,1.7.84-.82,1.38-.39a11.23,11.23,0,0,1,1.58,1.93,8.06,8.06,0,0,1,1,2.75c.13.5-.3,1.19.26,1.44s2.62-1.39,3.13-.46c.76,1.4-1.67,2.92-1.53,4.71.06.78,1.55,2.24,1.62,3.28s-1.27,2.67-1.13,3.64S179,214,179,215s-1.17,2.83-.91,3.83,1.58,1.65,1.77,2.18.31,3.44.47,3.75.76.71.85,1.15-.08,1.25,0,2,.8,2.28.52,2.81-2.56,1-2.36,2.27c.11.72,4.11,1.6,4.59,1.91s.87,3,1.59,3.25,2.22,0,2.51.86-.7,3.42-.44,3.95,1.76,1.05,2.24,1.61,1.25,3.34,1.59,3.62,1.22.34,1.38.93-1.83,2.33-1.23,2.48,2-1.42,2.34-1.43,1.13.65,1.35.68.78,0,1.07.24a5.11,5.11,0,0,1,1,1.87,9.25,9.25,0,0,0,.46,2.31c.25.31,1.16.68,1.29,1.12a8.85,8.85,0,0,1-.38,3.26c-.37,1.29-6.93,25.23-7,25.45s-.65,1-.74,1.32-5.93,20.9-6,21.22a2.85,2.85,0,0,0-.1,1.55,2.1,2.1,0,0,1,.12,1.12s-4.42,16.48-4.88,18.26a13.18,13.18,0,0,1-1.79,3.21,30.76,30.76,0,0,0-2,3,31.41,31.41,0,0,0-.79,3.14c-.18.6-.62,1.54-1.3,1.51s-.76-1.72-1.62-2.9A8.73,8.73,0,0,0,169,333.4a30.79,30.79,0,0,0-9.06-1.5c-2.5.08-5.25.93-7.11.62a68.54,68.54,0,0,1-10.43-3.71,58.57,58.57,0,0,1-8.82-6.39,8.07,8.07,0,0,1-1.69-4.65c0-2.16,0-9.18-.14-10.46s-.88-4.25-2.36-5.75-5.74-5.22-5.74-5.22a15,15,0,0,0-3.59-2.32c-2-.86-4.71-1.38-6.28-2s-3.27-1.6-5.47-2.53-4.92-.75-6.74-1.3-6.31-2.46-7.25-2.36-2.5,1.24-3.94,1.41-8.49-.35-9,.25,0,3.35,0,4.64-.68,5.67-.48,6.64,1.61,2.34,1.88,4.09-1.24,6.08-2.67,7.82a55.06,55.06,0,0,0-4,5.38C75,317.8,73,322.2,72.32,323.33s-2.16,3.77-4.35,5-8.34,2.66-10.5,2.77-5.24-1-6.9-1.14-5.12,3-6.43,3.74-3.15,1.59-5.49,2.73-4.5,2-4.5,2-4.75,2.13-6.34,2.86-2.18,1.14-4.09,2.16-4.52,2.73-6.71,3.68-2.93,1.34-4.9,2.23a28.22,28.22,0,0,0-6,3.68c-1.87,1.52-4.86,4.11-4.86,4.11l-.43,5.42s2.54-.17,3.1-.62.74-1.76,1.93-2.08,1.11,1.46,2.21,2.18,7.17.35,10.28.61A41.35,41.35,0,0,1,26.83,364c3.86,1,5.18,2.72,6.57,3.9,1.76,1.49,4.21,5.64,4.07,8.21a28.56,28.56,0,0,1-2.34,10.26c-1.94,4.68-5,8-7.81,11s-7.41,6.22-8.59,7.27-6,6-7,6.25a14.9,14.9,0,0,1-3.67-.35c-1-.12-7.44-1.64-7.44-1.64l-.65,5s1.5-.17,4.88-.16a35.58,35.58,0,0,1,5.42.49c.85,0,2.2.64,3.73.57s6.22-6.12,6.65-6.88A20.08,20.08,0,0,1,24.36,404c1-.66,6-4.3,6.54-4.81s4.27-3.38,6.43-6.87,1.55-2.86,2.62-5.91c.27-.75,1.19-4.89,1.34-5.65a25.87,25.87,0,0,0,.14-6.52,13,13,0,0,0-2.87-6.62,19.73,19.73,0,0,0-3.35-4c-2-1.71-12-5-12.25-5.11a1.59,1.59,0,0,0-.78,0c-.34.06-.6-.75-1.2-.9s-.66.35-1.72.45c-.34,0-1-.89-.92-1s-2.47.36-2-.27c1-1.38,1.41-3,2-2.77s-.06.88.63,1.12,1.71-1.45,1.9-2.14-.14-1.1-.64-1.72a.61.61,0,0,1,.15-.85c1-.63,2,.33,1.88.39s.83.25.76-.06a2.65,2.65,0,0,1,.08-1.26c.44-.36,1-.37.87-.91s-.87-.14-1-.9a1.57,1.57,0,0,1,1.12-.88,5,5,0,0,0,1.13-.23c.88-.19,1.9-1.52,2.59-1.27s-.9,1.73-1.24,2,0,.58-.32.73c-.46.24-.84.14-1.24.44-.08.06-.49,1.75-.49,1.19.1.19-1.25,1-1.52,1.67a3.89,3.89,0,0,0,.11,2.44c.19.44.35.75,2,.8a6.79,6.79,0,0,1,1.63,0c.44.15,1.07.59,1.54.55s1.44-1,2.09-1.08c1.17-.11,3.7.41,3.69-.4s-2.22-3.4-2.6-4.27,0-2.76-.59-3.41-2.45,0-2-1.61c.11-.43,1.53-.7,2.44-1a13.81,13.81,0,0,0,2-1.2,25.24,25.24,0,0,1,2.91-.4c1-.13,2.81-1.15,3.19-.21s-.71,1.63-1.93,2.11a5.12,5.12,0,0,0-1.78.64c-.33.21,0,1.12-.84,1.29-.64.13-1.16-.27-1.6,0s.06,1.7-.14,2a3,3,0,0,0-.08,2.07,12.54,12.54,0,0,1,1.27,1.93c.1.38.29,1.78,1.14,1.75a7.37,7.37,0,0,0,3.28-1.46c.44-.32,2.12-1.53,1.8-2.39s-1.13-.43-1.26-.84c-.19-.6.71-1.67,1.18-2a1.65,1.65,0,0,0,.68-1.82c-.32-.62-1.45-1.43.27-1.94a11.83,11.83,0,0,1,2.66.11,4.68,4.68,0,0,0,2-.08c.42-.13,1.38.18,1.85-.29.12-.53.51-2.79,1.42-3a15.15,15.15,0,0,0,2.26-.65c.25-.13,1.63-1,1.74-1a1.34,1.34,0,0,0,.45-2.16c-.41-.56-.89-1.15-1.57-.71a2.67,2.67,0,0,1-1.76.5s0,0-.15,0-.34-.56-.06-.79.91,0,1-.09a1.41,1.41,0,0,0,.09-1.19c.17.46-1.11-.62-.7-.9a1.71,1.71,0,0,1,1.66.21c.28.21,1.26.59,1.57,1.24a1.61,1.61,0,0,0,2.32.36,3.57,3.57,0,0,1,2.5-.39c.78.25.15,3.13.21,3.26s-.23,3.13-.57,3.14a6.58,6.58,0,0,0-1.66.2c-.19.13-.59.94-1,1.26s-1.22.13-1.5.29-.33,1.79-.33,1.79-.32-.25-.75.35a1.92,1.92,0,0,0,.42,1.88,2.18,2.18,0,0,1,.92,1.94c0,.38-.06.91-.56.79-3.11-.76-4.78-5.89-6.52-4.9-.28.16-.92.22-.17,3,.13.45-1,1.07-.33,1.79s2.29.08,2.7.36,0,1.35-.46,1.66-1.11-.13-2.32.27c-.57.19-.59,5,.13,5.48a7.32,7.32,0,0,1,2,1.68c.35.59,0,2,.43,2.56s.54,3,2.19,3.49a4.18,4.18,0,0,0,2.5-.39A22.84,22.84,0,0,1,59.78,361a23,23,0,0,0,6.09-2.55,7.87,7.87,0,0,0,3.73-4.1c.15-.6.15-3.34-.21-3.69s-.93-.33-1.91-.49c-.38-.06-.91-1.38-2-1.74-.75-.25-1.56,1.3-2.06,1.24A2.87,2.87,0,0,1,61,347.84a33.67,33.67,0,0,1,.34-4.42c.1-.85-1.23-1.84-1.27-2.65s.14-2.82,0-3.6-.15-3.51.79-3.26a49.26,49.26,0,0,0,5.23.31,7.15,7.15,0,0,0,4.33-2.57c.33-.39,1.58-1.65,2.7-3a15.9,15.9,0,0,0,1.09-1.47c1-1.39,4.12-6.79,4.12-6.79l3.41-5s2-3.64,2.2-3.84a12,12,0,0,0,2.23-3.81,16.76,16.76,0,0,0,1.18-5.46c0-1.79-1.76-5-2-5.87,0-.13,0-3.82,1.69-4.77a12,12,0,0,1,6.5-1.77,28.87,28.87,0,0,1,6.71,1.71,5.52,5.52,0,0,0,1.4.44,6,6,0,0,0,2.17.25c.22,0,1.54.21.08,2.72-.14.24-.08,1.63-.45,2.16s-1.42,1.88-1.36,2.58a6.34,6.34,0,0,1,.08,1.79c-.09.85-.67,1.27-.49,1.63a2.15,2.15,0,0,0,1.73.55,2.76,2.76,0,0,1,1.44,0c.41.15,1.33,1.52,1.83,1.68a4.19,4.19,0,0,0,1.57.05c.16,0,1.67.77,2.06-.33s-.83-2-.27-2.1c.93-.16,1.95.55,3,1s2.22,3.74,2.41,3.83a5.83,5.83,0,0,1,1.6.27c1.45,1.44,2.2,1,2.29.86a2.27,2.27,0,0,0-1.27-2.62c-1.64-.9-2.14-1.08-2.48-1.33-1.32-1.2-1.08-1.91-2.28-3.24s-1.61-1.3-2.31-2.18c-.37-.47-.51-1-1.07-1s0,.91-.43.94a1,1,0,0,1-.89-1.25,5,5,0,0,1,.39-1c.13-.29.12-1.24.31-1.26.81-.1,1.67.71,2,.83s1.47-.14,2.26.52a4.5,4.5,0,0,1,1.51,1.21c1.31.43,3.17,1.07,3.86,1.38a26.07,26.07,0,0,1,4.32,3.32c1.26,1,1.62,3.28,1.6,4.06s-.51,2.95-1.26,3-.65-.34-1-.47-.42,0-.63-.05c-.5-.11-1.28,0-1.22.48.33,2.35,1.59,7.07,1.78,7.85s1.42,1.68,2.27,1.86c.6.28,2.95.61,3.77,1.6.36.43,1,.34,1.18,2.69a2.47,2.47,0,0,0,1,2.4c.56.49,2.61,1.32,3.43,2a16.41,16.41,0,0,0,3.27,2.06c.88.28,6,2.62,6.88,2.93a42.69,42.69,0,0,0,5.87,2c.75.15,4,.85,4.05,1.6s-2.18,1.86-3.46,2.19a10.19,10.19,0,0,1-2.47.11c-.47.1-2.25.39-2.4,1s.84,1.92,1.06,2.07.68,1.64,1.29,1.67c1,.06.56-.6,1.66-.7a7.63,7.63,0,0,0,2.69-.52c1-.41,2.32-.67,2.25-1.18s-.07-1.72.36-2,1.6.08,2-.45c.62-.51,1.67-3.05,2.61-3.18a12.43,12.43,0,0,1,3,.35c.91.12,2.58,0,3.23.45,2.62,1.69,2.49,2.33,4.16,4.26a13,13,0,0,1,2.48,5.06,13.51,13.51,0,0,1,.1,4.89c-.29,1.2-2,4.09-2.81,6.16s-.56,5.95-.67,7.58a30,30,0,0,1-1.3,6.27,12.82,12.82,0,0,1-3.16,5.35c-1,1-2.68,2.49-3.8,3.47a12.9,12.9,0,0,1-3.94,1.94c-.5.13-2,.93-2.49,1.11-1.34.51-3.18,1.5-4.9,2.17-1.29.5-2.31-1.4-3.8-1.95-1-.36-3.15-1.23-3.55-2.1-.73-1.59-.82-5.51-2.11-6.44-.77-.55-1.79-.8-1.64-1.37a4.47,4.47,0,0,1,2.87-1.84c.69,0,1.39,1.22,1.58,1.93s.82,1.24,1.89,2.64a4.14,4.14,0,0,0,2.45,1.67,27.88,27.88,0,0,0,5.52,1,13.67,13.67,0,0,0,5.86-1.5,21.67,21.67,0,0,0,2.76-2c.58-.46,2.52-2.37,2.61-3s.09-.94-.45-1.19-1.31.29-1.44.32a8.23,8.23,0,0,1-1.24,1.51c-.75.57-2.79.15-3.25.4s-2.59,1.87-3.84,2.06-3.14-.48-4.36-.69-2.35.08-3.54-.41-1.86-2-2.18-2.18-.58-1.84-.26-2a1.9,1.9,0,0,1,1.38,0c.5.22.57.56,1.19.55s1.19-.51,1.84-.8,1.33-.17,2-.52a4.46,4.46,0,0,1,1.47-.76c1-.29,1.5.08,2.35.08s2.72-1.18,4-2.22a19,19,0,0,0,2-1.89c.52-.47.78-.44,1.53-1.08s2-3.62,2.64-3.46c1.06.26.15,3.44,0,4.38s-1.19,2.35-.54,2.82,1.69-.08,1.94-.33a11.5,11.5,0,0,0,1.29-3.08,13.83,13.83,0,0,1,1-2.64,31.66,31.66,0,0,0,.91-3.42,9,9,0,0,0,.2-3c0-.58-.17-2.5-1.12-3.06-1.35-.8-1.83-2-2.83-1.89-.47,0-1.65,2.82-2.52,2.77-.71,0-.55-2.16-.27-2.88a5.17,5.17,0,0,0,.07-2.85c-.23-1.35-1.36-1.74-1.74-2.09s-1.82,0-2.1-.08-2,.27-2.34,1.08-1.89,3.3-2.23,3.37-.28.75-3.31.9c-.06,0-1.4,0-1.57-.71-.26-1.13-.8-2.25-1.27-2.4s-.72-.28-2.57.11a12.52,12.52,0,0,0-3.38.93,46.29,46.29,0,0,1-4.27,1.84c-2.09.74-5.5,2-6.79,2.5a3.34,3.34,0,0,0-2.39,3.27,4.22,4.22,0,0,0,2.06,2.87,18.93,18.93,0,0,1,3.39,1,12,12,0,0,1,2.09,1.32c1,.91,1.18,1.71,1.12,1.35a11.94,11.94,0,0,0,.93,2.59c.09,0,1.49,2.4,2,2.58s.66-.07,1.38.08,2.17.8,2,1.64-2,1-2.66.83-1.48-.55-2.07-.64a12.43,12.43,0,0,1-2.45-.39c-.53-.25-2.75-2.83-3.34-2.83s-.68,1.32-.36,1.91.92,1.28.89,1.72-.78.82-1.56.67-2.3-1.67-2.61-1.89a4.28,4.28,0,0,0-1.68-.68,5.86,5.86,0,0,0-2.09,0,7.85,7.85,0,0,0-2.31.86c-.78.44-.84,1.52-1.77,2.55a8,8,0,0,0-1.52,2,57.8,57.8,0,0,0-3.06,6c-1,2.2-2.9,5.66-2.9,5.66a31.12,31.12,0,0,0-2.73,4.15,19.58,19.58,0,0,0-2.09,5.09,12.79,12.79,0,0,0-.53,4.76,16.44,16.44,0,0,0,1.42,5.19,10.48,10.48,0,0,0,3.1,4.36,11.2,11.2,0,0,0,5.16,2.66,22.17,22.17,0,0,0,5.64,1c2.16,0,3.44-.13,4.73-.19,1.5-.07,2.41-.71,5.66-.76a57,57,0,0,1,8.4.44c2.47.18,7.05.34,7.24.42a21.93,21.93,0,0,0,6.47-1.68c3.06-1.53,5.83-3.21,5.68-3.14a30.38,30.38,0,0,1,6.44-1.93,10.6,10.6,0,0,1,5.08,1.15,8.88,8.88,0,0,1,4.23,3.92,49.07,49.07,0,0,1,2.62,6.81,26.63,26.63,0,0,0,2.92,5.05c.95,1.25,4.29,4.42,4.29,4.42s3.79,3.64,4.54,4.41a9,9,0,0,1,1.85,4.37,13.64,13.64,0,0,1-1.21,5.58,30,30,0,0,1-2.85,4.78,21.22,21.22,0,0,1-3.92,4.1c-1.37,1-2.49,1.71-3.21,2.22a36.5,36.5,0,0,1-3.59,2.25c.09-.19-2.22.95-3.32,1.11a39.63,39.63,0,0,0-4.68,1.48c-.56.22-3.53,1.75-4,2s-3.4,2.06-3.4,2.06-5.8,3.55-6.33,4a28.21,28.21,0,0,0-3.41,4.54,7.55,7.55,0,0,0-.6,4.08c.27,2.28,1.3,2.81,2.28,4.12a15.56,15.56,0,0,0,3.81,3.42c1.54,1.05,5.73,3.62,5.73,3.62s4.75,3,5.85,3.47l2.9,1.2a11,11,0,0,0,2.53.61c.72.09,4.67.22,7,.17a49.53,49.53,0,0,0,8.14-.65c3.47-.59,7.65-3.34,9.11-4.29a32.15,32.15,0,0,0,3.54-2.47c1.26-1,2.48-2.16,3.07-2.68a22.74,22.74,0,0,1,2.64-2.43,11.42,11.42,0,0,0,2.52-3.18,15.66,15.66,0,0,0,1.62-2.78,29.74,29.74,0,0,0,1.28-4.45c.33-2.1.56-8.52.56-8.52s-.37-11.59-.38-9.89-.45-6.14-.42-6.1.33-6.64.27-6,0-4.17,1-5.74c.56-1,1.67-3.33,3-4.16.62-.44,2.53-1.15,6.69-1.49,1.26-.1,6.57-.46,7.64-.43s5.39.21,7.47,2.26c1.64,1.62,5,5.6,5.3,6a14.24,14.24,0,0,0,1.36,1.3c.91.87,2.61,3.09,2.87,3.18.32.4,6.27,5.31,6.3,5.53s2.81,3.21,3.82,4.2c.5.49,3.13,2.41,4.55,3.43a47,47,0,0,1,4.12,3.65,8.14,8.14,0,0,1,2.06,3.74c.36,2.11.28,4.2,1,6.48a35.36,35.36,0,0,0,3.5,7,19,19,0,0,0,3.89,4.7,20.4,20.4,0,0,0,5.57,3.94c1.76.64,4.15,2,7.12,2a19.22,19.22,0,0,0,9.28-3.07c2.74-1.77,5.45-3.7,8.2-5.6s7.13-5.22,8.75-6.39,5.89-4,7.54-5a12.64,12.64,0,0,1,5.68-2.23,36.51,36.51,0,0,1,7.52.13c1.88.27,4.11.44,5.34,1.9a8.37,8.37,0,0,1,2.28,4.06,33.69,33.69,0,0,1,1,6,23.23,23.23,0,0,1-.25,4.07c-.24,1.76-2.13,3.87-2.78,5.57-.56,1.46-3.46,5.48-4.57,7.19l-4.9,5.52-6.64,4.64-7.2,4.7-9.9,6.08a26.06,26.06,0,0,1-3.51,2.69,15.77,15.77,0,0,0-4.07,3.13,12.34,12.34,0,0,0-3.19,4.57c-1.13,2.51-1.57,3.19-1.82,6.14a38,38,0,0,0,0,8,33.74,33.74,0,0,0,1.69,6.45,20.8,20.8,0,0,0,2.63,6.2,15.44,15.44,0,0,0,3.95,3.88,25.27,25.27,0,0,0,6.7,4.32,54.8,54.8,0,0,0,8.14,2.51,22.29,22.29,0,0,0,7.52.31,37.37,37.37,0,0,0,10.59-2.19c2.82-1.19,6.39-3,7.89-4.57a32.53,32.53,0,0,1,5.2-3.95c1.82-1.25,5.39-6.76,6.83-8.08s1.63-1.82,2.63-2.76a55.38,55.38,0,0,0,5.39-6.83c1-1.63,1.82-3.95,3-5.32s2.32-4.7,2.88-6.2,1.06-1.94,1.63-3.51.94-3.63,1.38-4.95a17.08,17.08,0,0,1,2.13-3.63,45.21,45.21,0,0,1,5.76-6.08c1.94-1.75,3.88-3.13,6-4.7,1.82-1.38,4.32-2.76,5.36-3.79a17.36,17.36,0,0,0,3-.79c.95-.46,5.58-6.17,6.52-6.92a61.91,61.91,0,0,1,5.74-3.52,32.46,32.46,0,0,1,6.66-3.26,12.55,12.55,0,0,1,5.87-.52,22.75,22.75,0,0,1,7.18,2.74,14,14,0,0,1,4.57,4.7,17.52,17.52,0,0,1,2.15,6.23,19.6,19.6,0,0,1,.07,2.54,17.14,17.14,0,0,0,.41,3.82,24.28,24.28,0,0,0,3.19,6,13.56,13.56,0,0,0,4,3.45c1.44.75,2.94.94,3.45,1.32s2.51,3.51,3.51,4.82a37.62,37.62,0,0,0,3.76,3.88,15.8,15.8,0,0,1,3,3.88,16.1,16.1,0,0,1,1.57,4.38,5.58,5.58,0,0,1-1.07,3.82c-.69,1.19-8.14,10-9.58,11.71s-1.69,4.07-1.82,5.7a17.24,17.24,0,0,0,.88,5.51c.56,2.13,1.5,2.95,1.63,4.89s.31,3.07-.56,4.57-2.19,1.94-4.07,2.88-4.38.25-6.26-.44a33,33,0,0,0-7.7-1.38,9.16,9.16,0,0,0-5.45,1.32,7.84,7.84,0,0,0-3.57,3.8,17.1,17.1,0,0,0-2.19,6.53,57.21,57.21,0,0,0-.38,7.27c0,2.07.5,8.58.82,11.59a56.33,56.33,0,0,0,1.32,7.58c.38,1.38.81,2.13,1.13,3.57s.94,4.38,1.5,6.2a12.85,12.85,0,0,0,2.82,5.2c1.44,1.5,3.13,2.82,7.08,2.94s11.15-.5,11.15-.5,7.27-.94,11.21-1.69a48.93,48.93,0,0,1,8.58-1.19c3.13-.12,2.82.06,6.45-.06s6.33-.25,9.52-1.38,9.65-6.08,15-9,7.14-3.38,10-4.13c6.74-1.8,7.33-1.13,10.9-.75a25.2,25.2,0,0,1,8.77,3c1.06.69,1.25.75.81,1.57a1.43,1.43,0,0,1-2,.5c-.75-.31-1.94-1.06-2.51-1.32s-1.13.19-2.13-.31a12.11,12.11,0,0,0-3.51-1.19,1.44,1.44,0,0,0-.94,1.44c.13.5,2.13,1.38,3.38,2a15.75,15.75,0,0,1,2.19,1.38c.5.31,1.57.44,1.63.81s-7.71,19.54-7.71,19.92-.19.69.19.75,1.69-1.57,2.25-1.88,1.13-.19,1.75-.5,3.51-7.52,5-9.65a42.8,42.8,0,0,0,3.57-5.51c.19-.69-1.13-1.88-1-2.7a1.4,1.4,0,0,1,1.5-1.13c.56.06,1.25,1.38,1.75,2.51a18.37,18.37,0,0,0,1.44,3.26c.5.56,2.07,1.19,2.76,2.51a6.78,6.78,0,0,1,.63,3.95c-.06,1.69-.25,1.88-1.19,4.76s-2.88,4.07-4.7,5.7-2.44,1.5-5.51,3.07a15.31,15.31,0,0,0-4.7,3.19,36.17,36.17,0,0,1-2.69,2.44A22.6,22.6,0,0,1,514,639.7c-1.5.94-3.38,2.94-5.51,4.13a20.24,20.24,0,0,1-5.76,2.51c-2.76.75-2.76.38-5.51,1.44a32.36,32.36,0,0,0-6.45,3.82A27.3,27.3,0,0,0,487,654a11.11,11.11,0,0,0-2.57,4.07,33.57,33.57,0,0,0-1.82,6.77c-.63,3.19-1.57,11-1.82,13.47a22.46,22.46,0,0,0,.81,7.89,10.63,10.63,0,0,0,2.13,4.64c.94,1.5,7.27,7.77,9.14,9.4a41.6,41.6,0,0,0,6,4.13c2.88,1.82,7,4.32,11,6.51s8.27,4.45,11.59,6.2,10.46,5.89,13.34,6.76a24.9,24.9,0,0,0,7.27.82c2,.06,4.51-1,7.58-1.25s4.89.56,6.58.94a9.3,9.3,0,0,0,4.38,0c1-.31,1-1.57.82-2.13s.06-.94.38-.94.75.63,1.06,1.13.63,1.63,1.13,1.88a28,28,0,0,0,5.45.44c1.32-.06,2.94-1.13,4.57-1.5a3,3,0,0,0,2.38-1.94c.25-.63-.31-1.19-.06-1.5a5.82,5.82,0,0,1,2.76-.75c.88,0,1.13,1.06,2.76,1.06a15.94,15.94,0,0,0,4-.37c2-.38,6.64-3.19,9.21-4.57a60.38,60.38,0,0,1,8-3.76c2.38-.82,4.76-1.82,8.46-3.45a76.31,76.31,0,0,1,8-3.38,29.73,29.73,0,0,0,5.89-2.44c1.44-.81,2.51-.94,2.88-.75s.31.75.44,1,.44.56.56.81,0,.5.06.81a.55.55,0,0,0,.56.5c.31,0,.94-.56,1.38-.81s-.19-1.5.25-2.63a2,2,0,0,1,2.13-1.25c.75,0,1.75-.31,2.44-.25s1.19,1.57,1.07,1.88-.81.38-1,.82-.06,1.5-.19,1.94-.63,1.06-.63,1.38a2.27,2.27,0,0,0,.38,1.06c.16.19.47.19.47.59s-.53,1.75-.91,1.88-.38-1-.63-1.28-.66-.28-1.16-.44-.66-.78-1.1-.69-.41.44-.5,1a9.71,9.71,0,0,0-.38,2.82c.19.56.69.59.94.81a1.6,1.6,0,0,0,.75.5c.38.09.66-.16.81.16s-.25.59-.47.69-.69-.12-1.22.16-.31,1.25-.25,1.54.91.78,1.28,1.44a15.33,15.33,0,0,1,.72,1.88,26.58,26.58,0,0,1,1.19,2.79A21.39,21.39,0,0,1,636,724c.06,1,.22,4,.38,5.48a17.62,17.62,0,0,0,1.91,4.92c.69,1.35,2.19,3.23,2.35,4.92s.34,4.07.34,5a3.77,3.77,0,0,0,.47,1.91,2.34,2.34,0,0,1,.5,1.13c0,.53-.72,1.35-1,1.75s-.06,1,0,1.28a5.54,5.54,0,0,0,1.72,2.1c.81.47,2.44.31,3.13.38s.63.44,1.57.56a5.09,5.09,0,0,1,2.57,1.13c.85.66,3.82,4,3.82,4l4-3.7S655.81,753.11,654.55,751.95ZM167.17,401.09c-1.13.69-3.92,1.47-6.17,2.47s-4.39,2.16-6.39,3.07a19.63,19.63,0,0,1-6.14,1.53c-1.28,0-5.42-.85-7.77-1.16a75.73,75.73,0,0,0-8.49-.34c-2.47,0-7.92.06-9.36.22a16.83,16.83,0,0,1-4.7-.13,8.51,8.51,0,0,1-4.1-2.26c-1.16-1.16-1.44-3.51-1.57-5.17a18.46,18.46,0,0,1,0-4.57c.25-1.16.81-2.54,1-3.32s2.54-4.45,3.51-6.55a44.76,44.76,0,0,0,2.22-5.48A9.83,9.83,0,0,1,121,375.5c.94-1,3.57-2.57,5.42-1.91a7.22,7.22,0,0,1,3.54,2.47,54.28,54.28,0,0,1,3.26,4.7c.6.88,1.19,2.76,1.57,3.13a28.92,28.92,0,0,0,4.45,3.51,33.48,33.48,0,0,0,7.52,1.57c2.47,0,5.57-1.13,8.08-2.25a34.12,34.12,0,0,0,6.64-4.07,19.15,19.15,0,0,0,3.38-3.51c1.13-1.25,1.56-1.1,2.35-.75s1.06,1.66,1.1,2.54.13,2.91.19,4.26,0,3.16,0,4.51a42.87,42.87,0,0,0,0,4.48,41.85,41.85,0,0,1,.56,4.2A3.27,3.27,0,0,1,167.17,401.09ZM212,429.81a72.59,72.59,0,0,0-2.16,8.36c-.28,2.19-.16,5.67-.19,6.86s-.09,5.42,0,7,.44,4.51.53,7.11a28.85,28.85,0,0,1-.69,7.08,24.07,24.07,0,0,1-2.32,6.26,37.31,37.31,0,0,1-4.76,5.79,37,37,0,0,1-5,3.32s-6.45,3.23-7.33,3.41-7,1.85-7.8,2a30.82,30.82,0,0,1-5.89,0c-1.13-.25-6.36-2.35-7.55-2.79s-4.95-3.07-5.7-3.45S160.9,479,160,478.7a8,8,0,0,1-2.35-1.28,4.94,4.94,0,0,1-1.57-3.13c-.13-1.69-.44-2.22.38-3.54a11.67,11.67,0,0,1,4.17-3.26,21.87,21.87,0,0,0,3.82-1.63c1.06-.75,1.44-1.82,2.63-2.57s4.26-2.69,6.45-3.13,2.66-.06,4.29-.69a10.63,10.63,0,0,0,2.63-1.35c.69-.44,1.78-2.19,2.6-2.57s4.07-2.41,4.57-2.79a11.47,11.47,0,0,0,2.19-3c.38-.88.72-2.19,1.22-2.51s2.32-1.38,3.07-1.94a8.82,8.82,0,0,0,1.63-2.47l.88-4.85.34-5.39s0-2.07.53-2.63,1.79-.69,3.32-.94,3.73-.6,5.1-.69a34.38,34.38,0,0,1,3.82.06c.59,0,2.38-.59,2.66-.25S212.27,429.09,212,429.81ZM447.63,505c-.19.5-2.44-.38-3.51-1.25a27.07,27.07,0,0,1-3.19-4.07,8.79,8.79,0,0,1-1.38-4,9.49,9.49,0,0,1-.06-2.69h0a10,10,0,0,0,.28-3.17c-.2-1.53-.72-2.84-2.09-5.48a16.19,16.19,0,0,0-4.14-5.35,20.79,20.79,0,0,0-5.32-2.87,17,17,0,0,0-4.79-1.5c-1.86-.16-5.06.78-7.8,1.63a45.35,45.35,0,0,0-8.74,4.37,25.65,25.65,0,0,0-3.92,3.59c-.78.85-3.69,5.12-4.31,5.48-.34.2-1.51.48-1.86.2a8,8,0,0,1-.8-2.26,8.6,8.6,0,0,1-.08-2.63,12.21,12.21,0,0,1,1.83-6.26c1.78-3.13,3-4.76,5.31-6.26a26.72,26.72,0,0,1,8.87-3.48,34,34,0,0,1,9-1.09,18.1,18.1,0,0,1,7.37,1.44c2.15.91,4.37,1.63,6.79,4s3.52,4.74,4.87,7.66a25,25,0,0,1,2.09,5.74c.63,2.39,1.41,6.19,1.41,6.19s.38,1.94.94,3.88S447.81,504.46,447.63,505Zm82.93,93.58c-.56-.31-3.7-2-5.7-2.82a21.28,21.28,0,0,0-7.08-1.44c-2.13,0-4.76.38-5.7.25s-.69-.88-.75-1.38.06-.88.56-1,3.76.19,4.45,0,1.07-1.13,1.88-1.25,1.25.38,1.88.56,2.38.44,3.19.69,2.94,1.57,3.88,2,1.5.44,2.82,1S531.12,598.86,530.56,598.54Zm-2.94,45c-.12-.44.81.31,1.25.19a4,4,0,0,1,1.07-.31c.38,0,1.13.5,1.63.56s1.38-.31,1.5.25-.94.63-1.38,1-.19.94-1.57.75S527.74,644,527.62,643.52ZM538,642.39c.38,0,.38,1.19.88,1.57s1.19-.13,1.44.38-.12,1.19-.25,1.63.06.56-.13,1.06a4.11,4.11,0,0,0-.25,1.69.87.87,0,0,0,.69.75c.38.13.88-.19.94.5s-.63.81-1.06,1.75a2.76,2.76,0,0,1-1.88,1.75c-.94.25-1.19-.44-2.25-.82s-2.07.19-2.25-.19.81-.56,1.13-.94.13-.5-.31-.75-1.5.44-2.13.25a1.81,1.81,0,0,1-1.13-1,8.93,8.93,0,0,1-.56-1.38c-.19-.5-.75-.69-.63-1.19s1.25-.19,1.94-.5a19.39,19.39,0,0,0,2.44-2.19,13.9,13.9,0,0,1,2-1.13C537.07,643.33,537.58,642.39,538,642.39Zm-22.17-1.32a16.39,16.39,0,0,1,2.63-2.25c1.32-.81,5.89-2.38,7.45-3.57s5.26-3.82,6.08-4.7,1.82-2,2.38-1.88,1.19,1.69,1.13,2.75a37.49,37.49,0,0,1-.38,4.64c-.31,1.82-.19,3,.25,3.32s1.69-.63,1.94.19-1.25,1.94-3,2.63-2.69-.06-4.51,0-4.63-.5-6.76-.44-8.64,1.88-9.21,1.19S514.84,641.89,515.78,641.08Z"/><path class="cls-1" d="M319.09,517.91c-.87-.52,1.22-3.31,2.26-4.18s1.74-2.09,2.61-2.09,1.91.7,1.91,1.39-1.91,2.26-2.44,2.61-.7-.17-1.57.52S320,518.44,319.09,517.91Z"/><path class="cls-1" d="M375.81,524.09a2.17,2.17,0,0,1-.87-2.09c.17-.87,3.31-1.91,4-1.57s-.7,1.74-1.22,2.26S376.34,524.44,375.81,524.09Z"/><path class="cls-1" d="M385.82,511.56c-.87-.52,0-1.57.52-2.61s1-1.22,1.74-.87.35.7-.17,1.74S386.69,512.08,385.82,511.56Z"/><ellipse class="cls-1" cx="317.52" cy="519.65" rx="1.23" ry="0.86" transform="translate(-271.14 363.64) rotate(-43.73)"/><path class="cls-1" d="M291.77,50.12c-.44-.52,1-2.61,1.83-2.87s.7.61,1.3.52.61-1,1.31-1.31,1.22.17,1.91-.17,2.09-2.09,2.61-2.44,1.39.35,1.57-.17,0-1-.7-1.91-1.57-1-1.91-2.26a37,37,0,0,1-.52-4.35c-.17-1.22-2.44-3.31-1.74-4s2.44-.35,3.13,0a2.91,2.91,0,0,1,1.22,2.26c.17,1,0,1.57.17,2.44s.7,1.22,1,2.26,0,2.61.35,3.48,1.22,1.91.87,2.44a11.76,11.76,0,0,1-2.09,1.91c-.87.7-2.09,1.74-3.13,2.61s-1.91,1.57-2.78,1.57-.87-.87-1.91-.7S292.21,50.64,291.77,50.12Z"/><ellipse class="cls-1" cx="298.99" cy="26.89" rx="1.72" ry="1.6"/><path class="cls-1" d="M398.35,299.46c.7-.09,1.35.09,2.26,0s2.13-1.09,2.44-.52.39,1.91-.17,2.09a16.6,16.6,0,0,1-2.78-.22c-.78,0-1.57.39-2.09.39s-1-.09-1-.7S397.65,299.55,398.35,299.46Z"/><path class="cls-1" d="M771.84,313.73a9.85,9.85,0,0,0,4,3.39c2.09.78,4.79,1.74,7,2.52s4.7,2.44,6.52,1.83a8.47,8.47,0,0,0,4.7-4.18,12.77,12.77,0,0,0,1.48-4c.52-2.35-2.44-4.18-4.44-4.87a43.3,43.3,0,0,0-6.44-1.22l-6.09-1.31s-2.87-.78-3.39.26,1.39,2,2.44,2.35,3.83,1,6.26,1.83a15.39,15.39,0,0,1,5.22,2.44,2.41,2.41,0,0,1,.17,3.22c-.7.78-1.65,1-3,.78s-3.91-1.22-5.39-1.57-4.87-1.22-6.09-1.57S772.18,312.94,771.84,313.73Z"/><path class="cls-1" d="M610.94,363.15c-1.16-1.28-1.94-.63-2.57-.78a11.57,11.57,0,0,0-2.79-.53c-1.19,0-4,0-4.6.34s-.16,1.13-.41,1.44-.91.31-1.28.44-.88,1.1-1.63.72-.34-2.13-1.06-2.54c-1.32-.75-2.41.72-2.88.81s-1.25-.09-1.32.06.31.78.28,1-.28.72-.16.85,1.07-.41,1.32-.09-2.22,3.07-2.22,3.57,1,1,1.22,1.41a15.69,15.69,0,0,0,1.41,2.51,7,7,0,0,0,4.13,1.82,8.31,8.31,0,0,0,4.35-.78c1.29-.78,2.72-1.66,3.19-2s1.79-.06,2.41-.16a4.91,4.91,0,0,0,2.35-1.35,3.8,3.8,0,0,0,1.5-2.85A5.28,5.28,0,0,0,610.94,363.15Zm-1.86,5.32c-.52.59,0,1.44-.85,1.89s-1.63-.13-2.41.26-2.22,1.24-3.07,1.63a7.37,7.37,0,0,1-2.81.26c-.52,0-1.5.46-2,.13a20.08,20.08,0,0,1-1.76-1.57c-.46-.39-2.15-.65-2.28-1.5s.72-1,1.37-1.37.07-1.37,1.43-1.7,3.59-2.28,4.7-2.35,1.37.85,2.28.85,2.15-.72,2.81-.65.72.59,1.44,1.11,2.22.52,2.28,1.44S609.6,367.88,609.08,368.47Z"/><path class="cls-1" d="M572.87,599.52c.35-.52.78-.35,2.09-.26s4.87,4.44,7.22,5,6-.26,7.92.09,4.79,1.39,4.61,2-.87,1.83-1.39,1.83a39,39,0,0,1-3.83-1.65c-1-.35-4.18.17-4.87.17s-2.35-.52-2.78-.35a10.92,10.92,0,0,0-1.65,2.44,14.63,14.63,0,0,0,.09-3c-.17-.7-2.35-1.3-3-2s-1.74-2.18-2.17-2.26-1.39,1-1.83.44A3,3,0,0,1,572.87,599.52Z"/><path class="cls-1" d="M629,739c-.23-.34-.46-.66-.69-1l-.12.19a6.7,6.7,0,0,0-3.09-1.74l-.18.3a6.5,6.5,0,0,1,3.23,1.5l0,.06C628.42,738.55,628.72,738.76,629,739Z"/><path class="cls-1" d="M374.61,888.28c-.75.91-.52,1.14-.22,1.36s.82-.3,1-.91.67-1.21.3-1.44S374.61,888.28,374.61,888.28Z"/><path class="cls-1" d="M373.88,890.36c.37.23.45.76-.07,1.44s-.88,1.56-1.64,1.17-.12-1,.36-1.7C373.17,890.29,373.51,890.13,373.88,890.36Z"/><path class="cls-1" d="M371,893.59a1.1,1.1,0,0,1,.84,1.76,8.4,8.4,0,0,1-1.56,1.83,1,1,0,0,1-1.47.13c-.42-.39-.1-.91.91-2.19C370.15,894.53,370.68,893.67,371,893.59Z"/><path class="cls-1" d="M48.48,89.3c-.08-.69-.18-1.34-.24-2l-.33.2a11.18,11.18,0,0,0-3.24-4.94l-.5.3a10.82,10.82,0,0,1,3.63,4.7l-.11.06C47.93,88.19,48.22,88.72,48.48,89.3Z"/><path class="cls-1" d="M410.07,188.81c-.61-.33-1.18-.66-1.8-1l.3-.23a11.17,11.17,0,0,1-3.37-4.85l.46-.35a10.84,10.84,0,0,0,3,5.12l.1-.08C409.24,187.89,409.63,188.36,410.07,188.81Z"/><path class="cls-1" d="M260.79,525.45c-.21.36-.42.69-.62,1.06l-.13-.19a6.7,6.7,0,0,1-3,1.94l-.2-.29a6.5,6.5,0,0,0,3.13-1.71l0-.06C260.22,525.93,260.5,525.71,260.79,525.45Z"/><path class="cls-1" d="M131.19,557.07c-.07.41-.14.8-.19,1.21l-.19-.13a6.7,6.7,0,0,1-2.07,2.88l-.29-.19a6.51,6.51,0,0,0,2.3-2.73l-.06,0C130.84,557.72,131,557.41,131.19,557.07Z"/><path class="cls-1" d="M462.69,185c.15-.39.29-.75.46-1.14h-.23a6.71,6.71,0,0,0-.29-3.53h-.35a6.49,6.49,0,0,1,.56,3.52h-.08C462.72,184.28,462.72,184.64,462.69,185Z"/><path class="cls-1" d="M511.82,419.74c.11-.4.23-.78.33-1.19l.18.15a6.71,6.71,0,0,1,2.38-2.63l.27.22a6.49,6.49,0,0,0-2.59,2.45l.06,0C512.25,419.12,512,419.41,511.82,419.74Z"/><path class="cls-1" d="M572.34,719.37c-.64.26-1.05.48-1.55.64l-.11-.26c-1.69.29-3.31.54-5.19.7l-.11-.5a27,27,0,0,0,5.26-.3l0-.1C571.13,719.45,571.65,719.44,572.34,719.37Z"/><path class="cls-1" d="M16,52.68c.31-1.75,2.76-1.13,3.38-1.19a3.75,3.75,0,0,1,1.69.31c.88.25,1.06,1,1.5,1.94a15.31,15.31,0,0,0,2.88,3.07,19.17,19.17,0,0,1,2,3.13c.31.63,1.06.69,1.25,1.63s-1.38,1.57-.88,2.69,2.82.44,2.38,2.25-1.82,1.32-2.82,1.25a6.16,6.16,0,0,1-2.69-.5c-1.5-.56-1.19-1.25-1-1.63s.13.06.75-.19.19-.88-.19-1.63-1.07-1.69-1-2.32.94-.38.69-1.06a23.23,23.23,0,0,0-2.19-3.95c-1.25-1.44-1.75-2.32-2.82-2.63S15.65,54.44,16,52.68Z"/></g></g></g></svg>