<svg xmlns="http://www.w3.org/2000/svg" viewBox="0 0 807.26 1058.06"><defs><style>.cls-1,.cls-2{fill:none;stroke:#1a669e;}.cls-1{stroke-width:1.83px;}.cls-2{stroke-width:2.87px;}.cls-3{fill:#fff;}</style></defs><title>map-blue</title><g id="Слой_2" data-name="Слой 2"><g id="Karta"><path class="cls-1" d="M346.37,489c-1.57,3.78-7.78,9.64-8.92,10.7-1.31,1.22-3.13,2.83-4.84,4.14s-3.82,2.64-5.65,3.95-4.65,3.31-6.09,4.44a59.42,59.42,0,0,1-7.17,4.77,64,64,0,0,1-5.89,2.5,50.22,50.22,0,0,0-6.26,2.51,16.81,16.81,0,0,0-3,2.38l-51.89,50.26"/><path class="cls-2" d="M434.76,436.58l13.72-16,1.93-1.39,11.49-5,5.3-2.8,6.11-4.49,12.46-9,7-8.26,3.85-4.35,5.67-4.24,11.79-7.17,8.24-3.63,8.38-1.56,7.14-.43,48.89-13.39,10.93-4L632,335.33l2.5-.71,38-1.54,3.38-.59s21.7-5.42,23.45-5.87,5.25-1.48,7.44-1.93,5.44-.92,7-1.18a33.93,33.93,0,0,0,6.13-1.61c1.44-.64,6.36-4.18,7.48-4.94s4.3-3.29,5.42-4a53.49,53.49,0,0,1,4.86-2.92,64,64,0,0,1,8.25-2.75c3.62-1.09,60.89-22,60.89-22"/><path class="cls-1" d="M398.6,397.62s6,2.41,6.7,2.9a10.24,10.24,0,0,1,2.4,2.11,24.46,24.46,0,0,1,2.35,5.06,45,45,0,0,1,1.86,5.87,33.25,33.25,0,0,1,.53,4.13"/><path class="cls-1" d="M416.36,447s-2.15-2.49-2.34-3.43a12.9,12.9,0,0,1,0-3.45c.12-1.44.84-4.77.84-4.77L415,418"/><path class="cls-1" d="M433.39,378.83a22.56,22.56,0,0,0,3.19-.46,13.26,13.26,0,0,0,4-1.91,31.64,31.64,0,0,1,5.93-3.11,16,16,0,0,1,5.45-.6c1.69.11,3.88.28,5.52,1.52A51.45,51.45,0,0,1,463,379.8c1.33,1.49,6.69,6.78,8.27,8.46s2.59,2.61,4.36,4.35a39.86,39.86,0,0,0,7.43,5.21c3.21,1.92,15.58,9.36,15.58,9.36l7.73-9.33"/><path class="cls-1" d="M398.43,376.8s12.46-.61,14.58-.76a34.14,34.14,0,0,1,8,.69c2,.49,4,1.22,6.4,1.83a34.2,34.2,0,0,0,6,.71"/><path class="cls-2" d="M566.65,154.41s-8.13,9.14-9.37,10.78S553,172,551.21,175s-7.49,12.65-9.16,15.23a46,46,0,0,1-4.21,6,89.15,89.15,0,0,1-7.89,9.08c-3,2.9-9.28,7.77-13.13,11.19s-11.7,10.61-14.93,13.64c-1.69,1.58-9,9.35-12.49,13.25-2.05,2.27-11.3,13.18-13.42,15.51s-7.27,8.57-8.94,10.46-5.34,5.87-6.77,7.94a42.57,42.57,0,0,0-3.22,5.47c-1.3,2.58-5.55,12.13-6.41,13.83s-7.34,14.78-7.34,14.78-2.35,4.53-2.53,5.34-7,45.59-7.17,46.78-.53,4.64-.7,6.52a37.27,37.27,0,0,0,.18,7c.26,1.69,2.62,16,2.88,17.2a11.87,11.87,0,0,1-.21,5c-.43,1.07-2.09,4.9-2.52,6.16a12.6,12.6,0,0,0-1.15,4.77c-.29,3.2-.51,7.27-.62,10s-.35,4-.52,6.21a33.3,33.3,0,0,1-1.08,6.21,40.27,40.27,0,0,1-3,7.35c-1.3,2.7-3.52,7-3.52,7"/><path class="cls-1" d="M406.89,345s1.47,46.78,1.48,47.91a17.26,17.26,0,0,1-.47,4,5,5,0,0,1-1.3,2.39A5.69,5.69,0,0,1,404,400"/><line class="cls-1" x1="409.1" y1="338.74" x2="433.42" y2="365.55"/><line class="cls-2" x1="399.3" y1="445.13" x2="418.54" y2="461.94"/><polyline class="cls-1" points="418.6 461.88 424.78 459.64 429.61 459.42 436.42 457.24 444.55 472.71"/><path class="cls-1" d="M398.94,473.51s2.36-4.92,2.79-6.06,1-6,1.27-6.59,5.51-8.81,5.76-9.19a13.11,13.11,0,0,1,2.92-2.59,18.13,18.13,0,0,1,6.06-2.17,46,46,0,0,1,5.51-.17l9.61,11.58"/><path class="cls-1" d="M697.67,326.95S700,347,700,348s-.29,3.38-1.28,4.27-6.16,5.06-6.66,5.44a3.37,3.37,0,0,0-1.3,2.7c.07,1.31,1.45,17.84,1.52,18.78s-.35,2.88-2.23,3L628.12,387"/><line class="cls-1" x1="599.11" y1="350.11" x2="600.39" y2="352.79"/><path class="cls-1" d="M583.74,456.27s-2.15-36.75-2.3-40-1-13.46-1.12-15.65-.49-7.64-.58-10.83a79.7,79.7,0,0,1,.53-12.47c.65-5.39,4.1-22,4.1-22"/><path class="cls-2" d="M801.2,370.34l-114,49s-161.75,57.76-165.44,59.11a50.22,50.22,0,0,1-14.64,2c-3.07-.29-8.34-.75-10.4-.93s-5.15-1.21-7-1.2-8.38,1.63-9.26,1.7-4.08-.53-5.39-.59-13.59,1-14.28.86l-11.29-2"/><polyline class="cls-1" points="446.24 472.26 450.75 480.5 452.41 485.68 454.37 487.92 458.28 491.4 467.7 495.22 487.92 497.15"/><line class="cls-1" x1="463.93" y1="493.87" x2="468.98" y2="498.96"/><path class="cls-1" d="M460.27,497.53"/><path class="cls-1" d="M458,492.6"/><path class="cls-1" d="M709.24,409.8s3.92,5.17,4.62,6.1a6.36,6.36,0,0,1,.84,3.5c-.06.75-.2,49.17-.2,49.17s-3.31.65-4.56,1a9.18,9.18,0,0,0-2.93,1.46c-.62.51-6.85,5.31-7.91,6.2a8.33,8.33,0,0,1-2.56,1.58c-.5.13-12.12,4-12.12,4L683,480.72s-5.56,1.79-7.62,2.37-6.45-.08-8.46-.19S595,478,594.11,478.06s-.81.63-.68,1.88,1,5.25,1.11,5.75a4.19,4.19,0,0,0,1.26,1.56c.44.37,12,9.12,12,9.12s8.05,5.83,8.92,6.44,7.48-1.91,7.48-1.91"/><path class="cls-1" d="M684.3,382.61s1.7,9.82,1.9,11.07a9.55,9.55,0,0,1-.16,3.38c-.18.82-2.14,6.47-2.14,6.47l7.19,32s-10.68,38.23-11,39.73a11.29,11.29,0,0,0-.22,4.32,31.94,31.94,0,0,0,1.54,5.5c.45,1.06,2.74,5.74,3.37,6.8a17.5,17.5,0,0,0,2.91,3.86,33.62,33.62,0,0,0,6.12,4.42"/><path class="cls-1" d="M725,495.31a11.55,11.55,0,0,1,2-6.15c.87-1.57,3.68-2.6,5.68-2.61s16.9-1.75,16.9-1.75l20.51-4.66s.85,4.44,1.11,5.63,0,2.44,2,3.62,12,.1,12,.1"/><line class="cls-1" x1="784.02" y1="481" x2="763.43" y2="495.09"/><path class="cls-2" d="M718.68,496.28s.84-9.38.81-12.64-1-77.67-1-79.8a87.81,87.81,0,0,0-.7-10.14c-.53-4-7.92-71-8.32-74.1a95.11,95.11,0,0,0-1.84-11,38,38,0,0,0-5.09-11,75.34,75.34,0,0,0-8.34-9.84c-2.9-2.86-13.87-12.3-13.87-12.3L582.88,188S549,158.8,545.43,155.69A63.54,63.54,0,0,0,534,148c-3.27-1.73-7.54-3-13.06-4a56.66,56.66,0,0,0-12.54-1.29c-5.39-.08-19.67-.23-25.43-.31s-14-.27-18.92-.74a269.41,269.41,0,0,1-26.73-5.56c-6-1.83-10.29-3.06-17.46-5.88s-24-10.61-24-10.61"/><line class="cls-1" x1="404.7" y1="460.24" x2="408.7" y2="453.72"/><path class="cls-2" d="M402,519.42s-22.47,25.73-33.42,38.2c-6.28,7.16-30.54,30-40.77,40.28-4.11,4.15-14.53,13.4-18.29,17.41s-30.44,32.7-50.49,55.88a113.36,113.36,0,0,1-8.39,9c-2.88,2.63-8,7-10.9,9.4-1.55,1.28-56,45.63-58,47.1s-180,58.53-180,58.53"/><path class="cls-1" d="M381.47,496.15l-3.12,2.78-3.51,10.27-12.15,9.9-66.77,83.19S244.18,652.4,241.55,655s-10.27,6.76-12,8.39a29.2,29.2,0,0,0-5.14,6.51,25.12,25.12,0,0,0-2,6.14c-.5,2.63-2,9.9-2.38,13.65s.13,3.26-.88,7.89A70.48,70.48,0,0,1,215,709"/><path class="cls-1" d="M222.48,491.06l7.79,13.76L235,515.6l-.13.75,22.42,48.11,38.46,37.71,22.8,21.92,15,13.78s43.85,25.18,45.35,26.06a21.84,21.84,0,0,0,4.51,2.13,37.14,37.14,0,0,0,7.14,1.75c2.38.38,9,1.9,9,1.9"/><path class="cls-1" d="M384.86,623.09l-19.54,33.07-18.79,31.57s-11.4,19.61-12.72,21.23c-1.06,1.31-2,3.88-3.45,6a28.79,28.79,0,0,1-5.76,5.64,64.36,64.36,0,0,1-8.14,4.51,39.2,39.2,0,0,0-6.77,4.38c-1.63,1.38-2.76,3.38-3.88,4.89a16.36,16.36,0,0,0-2.94,5.45c-.5,2-.37,4.7-.19,8.46a71.71,71.71,0,0,0,1.25,8.89s1.19,6.45,1.25,8.39a36.15,36.15,0,0,1-.75,7,15.84,15.84,0,0,0-.5,1.63l-17.35,44"/><path class="cls-1" d="M152.19,495.41s7.54,5.41,9,6.79a39.16,39.16,0,0,1,5,4.87,44.28,44.28,0,0,1,4.35,6.09c1.25,2.32,2.76,5.7,2.76,5.7l4.76,15.91,6.51,23.18,1,10.27,7.52,19.17s20.61,24.87,20.92,25.43,1.32,2.38,1.75,3.13,1.19,1.32,2.07,2.57a42.74,42.74,0,0,1,2.82,4.45c.94,1.75,1.69,3.51,2.38,5.14s1.38,3.19,2.13,5.39,1.88,5.45,2.38,6.89a21.82,21.82,0,0,0,1.63,3.88,16.61,16.61,0,0,0,2.51,4,24.32,24.32,0,0,0,4,4c1.57,1.25,3.26,1.82,5.26,2.94s4.13,1.44,5.89,2.44a18.15,18.15,0,0,1,4.38,3,21.18,21.18,0,0,1,3.76,4.26c1.25,2,2.51,4,3.26,5.51a28.91,28.91,0,0,0,1.75,2.88,35.54,35.54,0,0,0,3.26,3.88c1.38,1.63,2.88,1.88,4.76,3a30.55,30.55,0,0,0,5.76,2.75c2.13.75,4.13,1.5,8.27,2.76s18,3.76,18,3.76"/><path class="cls-1" d="M175.85,527.8,143,527.3l-1.75.88-16.47.07-10.65,2.38L92.84,540.9a1.16,1.16,0,0,0-.5.5.92.92,0,0,0,0,.63l1.13,5.26a3.07,3.07,0,0,0,.36.8c.26.37,1.66.55,1.66.55l10.14,1.53"/><path class="cls-1" d="M143.08,540.65l-5.2,35.71,19.61,60.76a5.06,5.06,0,0,0,.6,1.38,3.81,3.81,0,0,0,1,.91l1.94,1.35a2.64,2.64,0,0,1,.56.91,1.85,1.85,0,0,1-.22,1s-5.54,11.28-5.73,11.62a5.88,5.88,0,0,1-.94,1.07,9.85,9.85,0,0,1-1,.94l-6.08,2.88-.25-.35-27.06,9.62L99.67,673.7l-5.76-.44a2.61,2.61,0,0,1-.81-.37,1.66,1.66,0,0,1-.56-.75l-3.38-5.45-6.51-.12a.7.7,0,0,0-.53.12.71.71,0,0,0-.28.44l-1.31,11a1.9,1.9,0,0,1-.38.88,1.68,1.68,0,0,1-.75.38l-10.16.38"/><path class="cls-1" d="M297.23,552.43,267.6,574.79l-50.17,43.47L202.15,638l-4,4.13s-2.35,2.29-3.95,3.57-3.48,2.69-5.14,3.88-5.64,3.29-7.2,4.39a8.41,8.41,0,0,0-1.63,1.25,42.76,42.76,0,0,1-3.82,2.19,28.81,28.81,0,0,1-3.63,1.32,3.41,3.41,0,0,0-1.19.5,4.37,4.37,0,0,0-.81.94l-7.58,13.91a3.2,3.2,0,0,1-1.44,1.06,9.9,9.9,0,0,1-1.88.31l-33.89.44a33.78,33.78,0,0,0-3.7.41,37.83,37.83,0,0,0-4.95,1.47,35,35,0,0,0-3.38,1.25c-1.1.53-3.38,1.82-4.57,2.44A24.09,24.09,0,0,0,105.3,684a27.31,27.31,0,0,0-3.82,3.76c-.56.85-1,1.69-1.63,2.6a21.45,21.45,0,0,1-2.32,2.66,15.31,15.31,0,0,1-2.44,2,8.87,8.87,0,0,1-2.13.69,17.14,17.14,0,0,1-3.13.31,8,8,0,0,1-2.38-.44,15.05,15.05,0,0,0-2.51-.75,7.84,7.84,0,0,0-2.57,0,10.74,10.74,0,0,0-3.19.85,18.84,18.84,0,0,0-3.88,2.41c-1.47,1.22-4.38,3.95-4.38,3.95L39,734.21a25.64,25.64,0,0,1-2.41,2.07,11.16,11.16,0,0,1-2.47,1.47l-3.88,1.54S19.34,741,17.19,741.09c-3.65.2-12.4.33-12.4.33"/><polyline class="cls-1" points="380.54 630.29 350.1 612.19 335.25 603.92 335 604.11 273.56 548.48"/><path class="cls-1" d="M399.78,720.83s-22.31-.93-23.31-1a16,16,0,0,1-2.38-.31,33.81,33.81,0,0,1-3.95-1,23.68,23.68,0,0,1-3-1.31c-2-1-3-1.47-5.39-2.69s-5.54-2.66-7.58-3.63-5.17-2.13-6.83-2.91-3.76-1.54-5.32-2.16a40.76,40.76,0,0,0-4.76-1.63c-1.47-.38-2.54-.44-4.57-.88s-5.36-1.1-7.33-1.38-3.63-.25-5.39-.63a18.2,18.2,0,0,1-4.13-1.38c-1.22-.56-3.79-1.85-5.23-2.72s-3.92-2.88-4.79-3.48-2.22-1.82-3.19-2.38-2.69-1.44-2.69-1.44"/><path class="cls-2" d="M399.47,794.56,382.23,851s-1,3.51-1.38,5.83a77.42,77.42,0,0,0-.38,16.6,29,29,0,0,0,1.75,8.14c.94,2.19,2.19,3.19,3.26,5.14a70.18,70.18,0,0,1,3.26,6.51c.94,2.25,1.92,5,1.92,5"/><path class="cls-2" d="M381.27,878.59a30.77,30.77,0,0,1,.4,5.76s0,3.2-.19,5.45a21.38,21.38,0,0,1-1.57,6.58,61.05,61.05,0,0,1-3.26,6.26,16,16,0,0,1-3.32,3.51c-1.06.94-2.76,2.13-3.45,3.88a31.66,31.66,0,0,0-1.19,4.07l-25.57,143.7"/><line class="cls-1" x1="373.78" y1="905.72" x2="366.95" y2="905.78"/><path class="cls-1" d="M367.08,905.78,362.6,909a8.27,8.27,0,0,1-1,.47l-18.79,5.7a3.89,3.89,0,0,0-.75.31,4,4,0,0,0-.44.5l-.38.69a1,1,0,0,1-.31.25,2.35,2.35,0,0,1-.63.13s-4.32,1.25-6.14,1.82a43.38,43.38,0,0,0-5.64,1.94c-2.07.94-7.2,3.38-7.2,3.38"/><path class="cls-1" d="M324.61,948.88l6.08-.25,6.56,4.85,2.76.06a1.15,1.15,0,0,1,.63.13,1,1,0,0,1,.31.44l3.26,7a3.45,3.45,0,0,0,.88,1,3.92,3.92,0,0,0,1.44.38,1,1,0,0,0,.75-.44l2.24-12.79,14.38-7.84"/><path class="cls-1" d="M320,917.3a13.26,13.26,0,0,1-1.19,2.88,15.78,15.78,0,0,1-3.88,3.38c-1.19.72-3.13,1.6-4.35,2.19a34.13,34.13,0,0,1-3.48,1.32l3.13,14.09a16.3,16.3,0,0,0,.94,2.79,10.8,10.8,0,0,0,1.94,3,11.22,11.22,0,0,0,2.76,2.19c.91.38,7.45,2.63,7.45,2.63a13.66,13.66,0,0,0,1.38-3.32,9.54,9.54,0,0,0-.25-2.57,23.86,23.86,0,0,0-1.22-2.94c-.41-.88-1.47-3-1.85-4.07a9.63,9.63,0,0,1-.5-3.07,32,32,0,0,1,.69-3.82c.19-1,.5-2.32.63-3.26a7.81,7.81,0,0,0-.44-2.69c-.22-1.06-.81-2.82-.81-2.82"/><path class="cls-1" d="M321,923.41a15.69,15.69,0,0,1-.91-3,12.88,12.88,0,0,1,0-4.38"/><path class="cls-1" d="M320.13,916.27a111.66,111.66,0,0,1,4-11.43c1.19-3,2.85-7,3.51-8.27a33.87,33.87,0,0,1,2.72-3.88c.75-1.06,3.66-6.14,4.92-8.39s3.26-6.89,3.26-6.89,1-2.29,1.75-3.88a37,37,0,0,1,2.76-4.38c1.35-2,7.14-10.15,7.14-10.15"/><line class="cls-1" x1="279.32" y1="566.02" x2="304.81" y2="591.08"/><path class="cls-2" d="M361.25,565.83l-10.77,46.42-64.71,99.66s-6.14,19.23-7.89,23.68a128.83,128.83,0,0,1-6.51,13.66c-2.38,4.38-5.14,8.64-7.64,12.78a100,100,0,0,1-7.64,11.4c-2.63,3.19-6.77,7.89-8.52,9.65a49.66,49.66,0,0,1-7.14,5.89c-2.88,1.94-7.89,5-7.89,5A44.73,44.73,0,0,0,220,809.17c-3.31,7-11.14,30.45-11.14,30.45"/><path class="cls-1" d="M230.71,697.25s.13,2.25.19,3.32-3.48,4.1-3.95,4.7a.85.85,0,0,0,.06,1.13l43.78,25.75s13.75,7,15.35,7.77a23.74,23.74,0,0,0,4,1.44,14.28,14.28,0,0,0,5.7.44,9.21,9.21,0,0,0,5.14-1.88,11.54,11.54,0,0,0,3.26-3.13"/><path class="cls-1" d="M135.94,349.81s-4.68,6.15-5.18,6.84a12.69,12.69,0,0,0-1.68,3.14c-.19.82.14,3.7,0,4.32a11.68,11.68,0,0,1-1,2.63,57.66,57.66,0,0,1-3.3,5.27c-.94,1.19-2.37,2.64-2.37,2.64"/><path class="cls-1" d="M112,384.91l-35,.67-8.55-2.65s-20-10.29-20.57-10.66a58.67,58.67,0,0,0-13.24-6.61c-7-2.27-29.51-5.75-29.51-5.75"/><path class="cls-1" d="M393.7,482s-2.8,4.58-3.86,6.21-3.32,3.4-4.32,4.53a39.53,39.53,0,0,1-4,3.39"/><path class="cls-1" d="M293.68,490s1.15,0,2.71-.14a21.51,21.51,0,0,0,5.88-2,58,58,0,0,0,6.13-3.9c2.06-1.32,17.06-12.21,19.06-13.47a15,15,0,0,1,6.19-2.59c2.69-.45,3.44-.07,5.7,0a9.82,9.82,0,0,1,5.89,1.61c1.7,1.25,2.2,2.44,2.58,4.88a40.36,40.36,0,0,1,.33,5.7"/><line class="cls-1" x1="337.33" y1="483.7" x2="314.75" y2="486.53"/><path class="cls-3" d="M347.28,480.14h1.78a23.38,23.38,0,0,1-.22,3.65,18.58,18.58,0,0,1-1.09,4.35,17.6,17.6,0,0,1-1,2.22l-7.09-3.18-2-1.91-.91-2.39,5.39-1.09Z"/><polyline class="cls-1" points="389.71 468.87 363.58 483.74 357.26 485.07 348.17 484.1"/><polyline class="cls-1" points="322.95 415.47 330.85 436.8 327.51 450.47 330.56 461.55"/><polyline class="cls-1" points="364.16 413.52 353.47 420.32 349.4 419.2 339.39 424.56 334.44 443.31"/><path class="cls-1" d="M367.05,416.07,361.44,425s-2.37,4-3.42,6a11.54,11.54,0,0,0-1.36,5.77,14.17,14.17,0,0,0,.77,5.89c.63,1.81,1.07,1.88.76,3.13a25.48,25.48,0,0,0-.23,5.39c.07,1.38.33,4.7.33,5.7a17.26,17.26,0,0,1-.55,4.45,9.62,9.62,0,0,1-3.45,5.14"/><path class="cls-1" d="M367.74,453.41l-4.39-.3-5.71-3.93-52-13.17a1.81,1.81,0,0,0-2.31,1.32c-.25,1.32-3.08,16.23-3.08,16.23l2.72,8.57"/><path class="cls-1" d="M396,484.36,390,478.14s-.14-5.07-.15-7.45a26.5,26.5,0,0,0-.45-4.7,45.26,45.26,0,0,0-1.27-5.38c-.38-1.25-1.58-4.57-1.83-5.32a2.92,2.92,0,0,1,.18-1.75l6.85-13.11a20.16,20.16,0,0,1,2.37-2.83,24.77,24.77,0,0,1,3.23-2.56,14.31,14.31,0,0,1,2.87-1.22,5.64,5.64,0,0,1,1.94-.39c.69,0,11.23,2,11.23,2S425,434.08,425.85,434s2.19-.08,2.88-.08a8.49,8.49,0,0,1,2.57.48c.57.25,2.52,1.55,3.33,2.1a43.4,43.4,0,0,1,3.84,2.85c1.2,1.06,3.41,3,4.35,4s2.15,2.79,2.78,3.55,3.61,5,3.61,5,2.28,3.55,2.6,4.3a4.38,4.38,0,0,1,.46,3.19c-.43,1.26-1.23,3-1.54,3.89s-2.46,6.16-2.83,7a4.37,4.37,0,0,1-2.05,2.08c-.56.13-1.5.39-1.88.52a3.87,3.87,0,0,0-1.56,1.2c-.31.5-7.88,10.58-8.62,11.46s-5.1,4.8-5.35,5.05a2.45,2.45,0,0,0-.74,1.51c0,.63-.31,5.78-.31,5.78"/><polyline class="cls-1" points="398.6 397.62 391.98 394.76 387.28 395.15 381.77 396.92 364.48 413.89"/><line class="cls-1" x1="383.77" y1="377.37" x2="387.84" y2="395.02"/><path class="cls-1" d="M370.37,377.16s-1.17,5.14-1.85,8-1.36,6-1.85,8.09-1,4-1.48,5.77a16.09,16.09,0,0,1-2.3,4.64c-1,1.51-4,5.21-4,5.21"/><path class="cls-1" d="M303.81,347.07l10.25-7.3,16.05,23.88s3.15,4.69,3.53,5.19,1.51,1.5,2,2,7.35,5.11,8,5.42A7,7,0,0,0,346,377l36.71.38s4.63-.08,7.39-.21,8.33-.36,8.33-.36"/><path class="cls-1" d="M309.65,372.48l5-7.35,3.87-3.83,1.69.5,6,4.3s1.33,4,1.58,4.63a4.16,4.16,0,0,0,1.13,1.88,8.9,8.9,0,0,0,2.39,1.62l15.43,6.84"/><path class="cls-1" d="M67.45,417.44s20.72-5.33,21.91-5.65a22.39,22.39,0,0,0,3.82-1.39,16.37,16.37,0,0,0,3.37-2.45,34.66,34.66,0,0,0,3.62-4.84c.75-1.38,1.31-2.2,1.81-3.26s1.18-2.7,1.68-3.89a15.73,15.73,0,0,1,2-3.2c.5-.63,14.41-17.77,14.41-17.77l2.38-.32L137.48,395l32.27,9.06s7.89-.09,9.27,0a29.2,29.2,0,0,1,3.95.49c.94.18,59.49,13,60.18,13.14a2.81,2.81,0,0,0,2.38-.51c.69-.63,13-8.25,14.13-9.13a8.32,8.32,0,0,1,4.76-1.33c1.25.12,4.26.17,5.89.48a11.6,11.6,0,0,0,4.64,0c1.31-.32,3.57-1.33,4.19-1.45a7.31,7.31,0,0,1,2.38.56l30.61,12.87L322.64,416l2.68-4.33,2.35-7.84L350.2,377"/><path class="cls-1" d="M182.81,410.23s3.67-14.07,3.9-15a9.78,9.78,0,0,0,.24-2.19c0-.56-.7-2.38-.89-3.44s-.15-6-.15-6-.29-11.84-.29-12.46a7.06,7.06,0,0,0-.51-2.25c-.32-.88-1.2-3.19-1.45-3.75a9.91,9.91,0,0,1-.45-3.32,22.75,22.75,0,0,1,.62-3.38c.25-1.13,1.29-6.52,1.42-7.08a3,3,0,0,1,1.06-1.69c.5-.31,5.19-3.52,6.37-4.59a13.68,13.68,0,0,0,3.06-4.08c.62-1.38,1-2.26,1-2.26"/><line class="cls-1" x1="247.06" y1="385.15" x2="196.6" y2="338.65"/><path class="cls-1" d="M245,367.35a25.52,25.52,0,0,1,2.52,4.44,22.79,22.79,0,0,1,1.48,5.74,10.3,10.3,0,0,1-.53,5.43,12,12,0,0,1-5.18,5.28,19.62,19.62,0,0,1-14.72,1.3c-1.5-.43-25.7-6.43-26.33-6.62s-3.08-2.37-3.52-2.56-13-3.59-13-3.59"/><path class="cls-1" d="M318.64,361.36s-11.37-11.11-12.25-11.92a20.77,20.77,0,0,0-4.21-3.43c-2-.93-31.3-14.05-31.3-14.05l-14.07,27.48s-21.44,15-23.56,16.43a25.71,25.71,0,0,0-6.12,6,24.69,24.69,0,0,0-3.42,6.78c-.81,2.45-7,22.32-7,22.32l-4.51,17.74s.4,5.89.4,6.45a1.65,1.65,0,0,1-1.37,1.88c-1.25.13-3.95.33-4.63.39s-1.69.13-2,1.26-3.72,12.92-4,14.17a13.7,13.7,0,0,1-1.43,3.89,9.86,9.86,0,0,1-2,1.89c-.94.63-5,3.52-6,4.22a30.83,30.83,0,0,0-3.93,3.4c-.62.75-2.06,2.39-2.5,3a17.06,17.06,0,0,1-3,3c-.75.44-8.94,4.92-10.19,5.55a7.83,7.83,0,0,1-4,.83,22.41,22.41,0,0,1-4.64-.8c-1.38-.37-16.8-4.71-16.8-4.71"/><path class="cls-1" d="M390.61,319.29l-4.5-31.13L373.67,277s-1.2-3.44-2-5.57-2.59-5.75-2.59-5.75-2.77-4.38-3.34-5.5a61.63,61.63,0,0,1-2.46-5.82,24.1,24.1,0,0,1-.51-3.63c-.07-.94-.21-5.7-.21-5.7s-1-22-1-24.43.82-16.1,1.06-19.86,2.59-88.46,2.59-88.46L380,69s2.09-6.61,12.88-9.22,20.71-5.39,20.71-5.39"/><path class="cls-1" d="M154.32,300.83l3.84-13.42s7.26-40.49,7.38-41.87-.9-7.39-1.54-10-1.9-7.13-3.41-9.26-4.4-3.74-6.15-4.74a21.54,21.54,0,0,0-7.9-2.23,27.44,27.44,0,0,0-8.39.65c-2.63.76-5.19,1.76-7.13,4a76.1,76.1,0,0,0-5.61,8.54l-6,13.3L116,253.35l-1.61,5.77,4.15,5.75L129,267"/><path class="cls-1" d="M148.63,169.8l3.39,2.75c.63.5,1,1,.63,1.75a5.46,5.46,0,0,1-2.37,1.89c-1.13.63-4.38,2.64-4.38,2.64l12.94,11a26.28,26.28,0,0,1,2.89,2.62c1.26,1.62,5.86,7.88,7.17,9.62,1.13,1.5,2.26,2.37,2.77,4.38s13,52.71,13.21,53.58a9.1,9.1,0,0,1,.51,3.13c-.12,1.25-2.46,52.63-2.46,52.63"/><path class="cls-1" d="M98.37,239.12a11.73,11.73,0,0,0,2.75-3.27,9,9,0,0,0,.87-2.63c.12-.88-.76-2-1.14-2.63s-7.43-10.25-7.8-10.87a8.57,8.57,0,0,1-.64-3.38,7.75,7.75,0,0,1,.86-3.64,7.17,7.17,0,0,1,3.37-3c1-.3,2.38-.38,3-1.14s10.36-10.81,12-12.57,6-6,8-7.92,8.24-7.17,8.24-7.17,2-1.38,4.13-2.77,7.88-4.54,10.13-5.8,5.5-2.9,5.5-2.9"/><path class="cls-1" d="M93.73,239.77s-1.62,3.14-2.49,4.64A29.54,29.54,0,0,1,87,249.94c-1.37,1.26-4.38,2.65-5.88,3.4a44.8,44.8,0,0,1-4.63,1.77"/><path class="cls-1" d="M17.05,274.43s17-4.15,19.27-4.79A27.44,27.44,0,0,0,42.08,267c1.63-.88,2.87-2.52,4.5-4.4s6.49-7.41,7.74-9,3.62-4.4,4.87-5.65A43.4,43.4,0,0,1,64.56,244"/><path class="cls-1" d="M77.22,239.25"/><path class="cls-1" d="M77.82,239.57"/><path class="cls-1" d="M77.22,239.25l17.65.51a23,23,0,0,0,3.63-.76,20.65,20.65,0,0,1,4.51.49,19.87,19.87,0,0,0,4.64.74c1.13-.13,3.13-.76,4.26-.64s2.63,1,4.14,1.36a28.68,28.68,0,0,0,5.51.23c1,0,2.75-.39,4.51-.64a13,13,0,0,1,6.39.73,36.8,36.8,0,0,1,5.27,3.24,4.64,4.64,0,0,0,2.51.87c.63-.13,38.56-8.77,38.56-8.77"/><path class="cls-1" d="M22.94,199.28s5.4,5.12,6.66,6.24a22.92,22.92,0,0,1,3.77,4.25c.63,1.13,2.27,3.63,3,4.75a45.87,45.87,0,0,0,4,5.37c1.26,1.25,3.65,3.87,6.29,6.49S85.17,264,85.17,264s2.77,3,3.9,4.12a11.64,11.64,0,0,1,2.4,5c.38,1.63.89,3.51,1.15,5.38a25.94,25.94,0,0,0,1.14,4.88,12.08,12.08,0,0,0,2,3.13,11.54,11.54,0,0,0,2.89,1.87"/><path class="cls-2" d="M354.88,466.79l-58.79,29-13.2,5.81-4,1.5-44,12.9L178,534.76l-24.3,3.13L82.57,557.19S64,564,50.4,570.44C26.84,581.61,5.08,597.56,5.08,597.56"/><path class="cls-2" d="M295.16,2.82s7.83,20.39,9.1,24a66.26,66.26,0,0,1,2.54,8.89c1.14,4.76,5,22.41,5.22,23.91a5.73,5.73,0,0,1-.36,3.88c-.62,1.13-5,7.53-6.85,11.92a34.8,34.8,0,0,0-3,11,21.67,21.67,0,0,0,1.16,9c.76,2.38,1.52,3.75,1.65,5.51s-1.59,10.65-1.83,14.54.4,8.52.54,12,.7,20.92,1.09,27.43.66,10.52,1.68,14.4,3.16,7.38,3.92,10.89,1.39,4.25,1.4,7.76-.1,7.14-.09,10.65.4,6.14.53,7.89,1,5.63,2.4,7.26,7.66,5.36,11.18,8.73,7,6.87,9.81,11.49a47.32,47.32,0,0,1,4.66,9c2,4.75,2.9,5.25,4.8,11.76A76.75,76.75,0,0,1,348,270.37a65,65,0,0,1,.18,16c-.85,7.52-.85,7-2,15.67s.17,12.78,1.94,17.16a67,67,0,0,0,5.55,11.26A29.47,29.47,0,0,1,358,341.37c.89,4.26,3,12.77,3.82,18.28s1.42,14,1.69,17.66"/><path class="cls-2" d="M72.94,497s-4.85-16.56-5.36-18.32a43.66,43.66,0,0,1-1.16-11.15c.11-4.76,1.41-66.53,1.53-68a24.42,24.42,0,0,1,1.48-7c1-2.26,16.67-36.51,18.66-41.53a133.9,133.9,0,0,0,4.47-13.67c2.11-7,11.14-41.75,11.88-45.27s2-8.9,1.33-13.79-1.53-8.76-2-11.39-1-4.76-1.53-7.51-1-3.63,0-9.4,1.61-6.9,4.46-13.55a203.16,203.16,0,0,1,10.71-20.08c2.62-4.39,4-7.15,6.85-11.67A47.7,47.7,0,0,1,132.55,194c4-3.9,9.5-7.17,15.88-10.33a183.43,183.43,0,0,1,18-7.7,53.49,53.49,0,0,1,12.77-2.17c5-.14,7.39.23,13.78-.8s11.77-3.17,18-6.32,9.13-5.17,17.88-12S243,143.81,250.75,138s18.12-13.34,23.37-16.86,8.13-5.41,14.51-7.69a112.86,112.86,0,0,1,19.4-4.95c7.26-1.28,14.15-2.43,20.28-3.32S339,103.28,347,103.63s12.16,2,20.94,4.94,28.73,11.35,28.73,11.35"/><path class="cls-2" d="M.86,302.21a45.87,45.87,0,0,1,8.55,8.87c1.64,2.25,3,5.75,4.41,6.5s11.9.84,16.67,2.07,12.67,4.09,14.8,4.71,5.64.11,7-2.65,3.49-6.65,5-10.16,3-6.9,5.48-9.79,9.38-5.92,9.38-5.92,9-4.92,11.76-5.43,7.64.73,9.15.22A9.91,9.91,0,0,0,96.27,288l68.58,15.18,9,4.61,7.79,7.74L213,330.45l14,4.21,63.34,23.72,68.82,50.76,40,36"/><path class="cls-2" d="M28.28,1s66.92,74.18,74,82.18,26.53,29.23,29.93,33.23a94.1,94.1,0,0,1,8.18,10.37c3.4,5,44.69,66.88,44.69,66.88a18.76,18.76,0,0,0,3,4c1.63,1.5,2.39,1.37,4,3.62a26.54,26.54,0,0,1,2.65,4.63L260.9,347.33"/><path class="cls-1" d="M116.57,99s-3.81,2.08-4.56,2.52-15.77,5.56-16.39,5.75a7.19,7.19,0,0,1-2.94.2c-1.07-.18-11.46-1.64-12.28-1.78a7.25,7.25,0,0,0-3.32.14c-.81.32-7.19,3.16-7.76,3.47S55.5,119,54.75,119.5A3,3,0,0,0,53.13,122c.07,1.19.45,3.07.14,3.63s-1.75,1.07-2.25,1.64a2,2,0,0,0-.37,2.26c.44.81,2.26,1.62,2.51,2.25s-.12,1.38-.12,2a46.58,46.58,0,0,0,1,5.13c.19.56,2.9,5.57,3.15,6.07A2.73,2.73,0,0,0,59,146.3c1.07.37,6,1.55,6.58,1.67a1.54,1.54,0,0,0,1.75-1c.37-.88-.2-3.07.36-3.76s2.31-.82,3.13-.51a5.26,5.26,0,0,1,2.26,2c.57.87,2.9,4.19,3.21,4.75s2.2,2.19,2.7,2.87a24.72,24.72,0,0,1,2.64,4c.5,1.25,1.39,3.38,1.64,4.07a3.22,3.22,0,0,0,2.51,1.93c1.32.12,61.91,7.19,62.91,7.31a10.75,10.75,0,0,0,4.45-.52c1.56-.57,12-5.3,12-5.3"/><path class="cls-1" d="M342,248l9.27,1.1,7.42,16.34s.76,1.88,1.2,2.88a9.75,9.75,0,0,1,.89,4,16.69,16.69,0,0,1-.8,5.77c-.68,1.69-2.92,8.15-3.29,9.28a9.8,9.8,0,0,0,.27,4.82,17.88,17.88,0,0,0,2.58,3.75c.82.94,36.78,39.66,36.78,39.66l2,2.07,4.83,7.43s5.64-.1,6.39-.17a2.72,2.72,0,0,1,2.07,1,6.7,6.7,0,0,1,1.6,3.74,8.92,8.92,0,0,1-.54,3.83c-.37.63-1.36,1.83-2.18,1.9l-3.13.27"/><path class="cls-1" d="M276.91,320.72s8.84-15.63,9.34-16.69a15.91,15.91,0,0,0,1.05-3.7,35,35,0,0,0,.61-4.51,37.67,37.67,0,0,1,.55-4.2,8.45,8.45,0,0,1,1.43-4,20.58,20.58,0,0,1,4-4.65,30.18,30.18,0,0,1,4.06-3.65c2.12-1.64,3.44-2.39,6-4.15s5.75-4,8.75-6.1,5.25-3.59,8.81-5.85,5-3.27,8.19-5a72.62,72.62,0,0,1,8.63-3.91c2.38-.95,5.5-2.08,5.5-2.08l.44,1.19,4.09-1.62"/><line class="cls-1" x1="248.22" y1="320.06" x2="279.23" y2="321.03"/><polyline class="cls-1" points="184.2 339.4 225.41 337.05 226.22 334.36"/><path class="cls-1" d="M328.15,452.78l-8.82,2.79s-19.2,7.89-19.77,8.08a4.09,4.09,0,0,1-2.51.07c-1.07-.31-4.89-1-6.39-1.23a12.82,12.82,0,0,0-5.7.39c-1.75.7-5.69,2.34-5.69,2.34l-68.07,31"/><line class="cls-1" x1="152.19" y1="495.41" x2="36.39" y2="404.09"/><path class="cls-1" d="M75.21,435.14l1.68-4s.37-.69.88-.44,3.64,1.24,3.64,1.24l4.32-1.2,1-1.88s45.77-5.29,47.34-5.42a13.18,13.18,0,0,1,4.45-.08,10.26,10.26,0,0,1,5.4,2.8,9.53,9.53,0,0,1,2.59,6.19c.13,2.69,1,26.49,1.09,27.68a65.88,65.88,0,0,1-.41,8.52c-.31,1.32-1.17,5-1.42,5.83s-1.68,2-2.12,2.64a23.22,23.22,0,0,1-1.49,2.64c-.62.69-4.3,4.24-4.3,4.24"/><path class="cls-1" d="M8,422.14s9.4,1,10,1a2.69,2.69,0,0,0,2.5-1.07c.69-.82,1.81-2.26,2.31-2.89a12.62,12.62,0,0,1,2.06-1.95c.87-.69,13.93-11.26,13.93-11.26"/><path class="cls-1" d="M37.84,405.32s9.4-12.68,9.79-13.19a3.58,3.58,0,0,0,.37-2.44c0-.56-.7-3.94-.64-4.7a8.48,8.48,0,0,1,.56-1.94l5.61-8.66a5.12,5.12,0,0,1,2.5-2c1.31-.69,4.69-2,6.57-3s3.69-1.77,5-2.52a11.11,11.11,0,0,0,3.62-2.52,16.53,16.53,0,0,0,2.55-5.08A94,94,0,0,0,76,349.57c.25-1.44,2.33-16.29,2.33-16.29"/><path class="cls-1" d="M186.18,349.71s-23.24-.18-24.56-.23a28.44,28.44,0,0,0-5.76,1.15,24.17,24.17,0,0,1-5.45,1.15,59.49,59.49,0,0,1-8.71-.72c-1.5-.31-8.09-1.73-8.09-1.73s-7-2.23-7.78-2.73a28.46,28.46,0,0,1-2.7-2.25l-13.51-12.55-10.16-4"/><polyline class="cls-1" points="77.8 332.9 85.02 336.81 95.76 340.49"/><line class="cls-1" x1="96.14" y1="324.01" x2="99.47" y2="327.51"/><polyline class="cls-1" points="403.16 576.63 414.13 572.94 456.85 581.64 476.7 563.29"/><path class="cls-1" d="M427.41,498c-.13,3.26.75,4.74,1.69,7.12s1.44,3.2,2.19,4.89,1.94,3.88,2.94,6.14A14.3,14.3,0,0,1,435.8,521a47.28,47.28,0,0,1,.63,7.83,35.6,35.6,0,0,1-.44,5.83c-.38,2.76-.5,3.95-1.19,7.2s-1.06,3.7-1.69,6.14a28.64,28.64,0,0,0-1,5.45,45,45,0,0,0,0,6.08L416,560.79l-16.16-.44-6.71-1.4-32.7,7.27a18,18,0,0,1-3.51,1.5l-21.55,5.39s-4.64.5-7.89.5a21.86,21.86,0,0,1-7.77-1.25,40.22,40.22,0,0,1-9.77-4.13,27,27,0,0,1-6.39-4.89,24.15,24.15,0,0,1-5-7.39c-1.62-3.39-2-6.89-2.51-9.77s-.63-6.89-1-9.39-.5-8.52-.5-8.52"/><path class="cls-1" d="M416.51,518.88a26,26,0,0,1-4.95-5.2,9.4,9.4,0,0,1-2-5.64c-.19-1.82.31-3.19.25-4.82a35.23,35.23,0,0,0-.37-3.57s-5.9-17.8-6.16-18.67a13.52,13.52,0,0,0-1.15-2.5c-.32-.56-2.68-5.16-2.68-5.16"/><path class="cls-2" d="M366.6,495.11s-1-6.15-1.57-12.66.33-9.43.81-14.57a132,132,0,0,1,2-14.66,74.32,74.32,0,0,1,2.72-11.28,24.82,24.82,0,0,1,4.73-8.53,58.87,58.87,0,0,1,7.12-7.54,43.66,43.66,0,0,1,8.37-6,28.51,28.51,0,0,1,8-2.18s7.81.17,11.51.15a93.22,93.22,0,0,1,12.35.66c2.95.48,10,2.18,12,2.85a32.77,32.77,0,0,1,7.61,3.89c2.52,1.74,8.44,6.52,10.4,8.32s6.82,6.84,8.33,8.65a17.7,17.7,0,0,1,3.44,7.43c.46,2.56.49,7.2-.3,9.59a62.72,62.72,0,0,0-2.26,8c-.24,1.76-.8,10.28-1,13.16a57.11,57.11,0,0,1-2.24,10.54,84.76,84.76,0,0,1-3.64,8l-14.57,15.42a10,10,0,0,1-2.57,1.63,24.39,24.39,0,0,1-3.7.94c-1.44.25-14.28,1.88-16.35,2.07a73.92,73.92,0,0,1-8.89-.12c-7.42-.35-9.64-2-9.64-2l-31.32-17-1.3-4.7"/><path class="cls-2" d="M457.83,492.66s10.36,20.8,11.23,22.65a44.53,44.53,0,0,1,3.57,9.58,73.42,73.42,0,0,1,1.82,10.65,93.66,93.66,0,0,1,.38,10.27A87.58,87.58,0,0,0,476,559.34c.88,5.2,3.07,13.41,3.26,14.28a13.53,13.53,0,0,1,.38,4.39c-.19,1.94-4.95,59-5.39,62.51s-1,7.08-1.75,10.65-1.82,7.45-2.5,9.9a67.7,67.7,0,0,1-3.51,8.89c-2.07,4.76-5,10.15-5,10.15"/><path class="cls-2" d="M800.25,652.74S733.4,584.4,732.08,583a15.79,15.79,0,0,0-3.63-3.07c-1.31-.75-11.71-7-11.71-7s-6.2-3.32-8.39-4.39S700.26,565.48,697,564s-6.89-2.88-10.15-4.51-7.89-4.38-11.53-6.2a51,51,0,0,0-7.39-3.07c-2.44-.88-2.51-.88-3.95-1.32s-7.27-1.63-10.27-2.44a65.48,65.48,0,0,1-6.64-2.32c-1.19-.44-58.69-23.93-60.82-24.74a25.5,25.5,0,0,0-5.07-1.44,67.07,67.07,0,0,0-8.77-1.06,32,32,0,0,0-6.26.44c-2.32.31-7,1.13-9.08,1.13a10.85,10.85,0,0,1-4.38-.5c-1.69-.56-31.82-13-31.82-13l-20.55-3L496,499.09s-2.29-1-3.86-1.5a33.38,33.38,0,0,0-4.7-.91"/><path class="cls-1" d="M688.93,497.06s-4.64,9-6,11-2.82,4.07-4.82,6.51-3.32,3.7-5.39,5.89-7,6.7-9.15,8.77a64.61,64.61,0,0,1-9.08,6.77,103.66,103.66,0,0,1-10.71,5.2c-2.5,1.06-9.52,3.95-9.52,3.95l-14.94,6.19"/><path class="cls-1" d="M693.5,500s3.7,1.57,5.14,3.07,3.13,3.95,3,6.2-.56,3.7-.81,5.64a41.25,41.25,0,0,0-.19,6.83,27.43,27.43,0,0,1-.5,7.33,22.3,22.3,0,0,1-3.26,6.83c-1.13,1.63-3.07,3.26-4.38,5.2a66.73,66.73,0,0,0-3.26,5.89"/><path class="cls-1" d="M725,495.31a52.72,52.72,0,0,0,.85,11.91,45.19,45.19,0,0,0,1.5,5.32l-.69,1.82,5.51,12s4.38,3.32,5.83,4.64a8.65,8.65,0,0,1,2.88,5.07,44.58,44.58,0,0,1,.31,4.63c.06.63.25,1.82.25,1.82l-3.26,5.83L734,565.73l-7.27,13.34"/><path class="cls-1" d="M763.43,495.09c-8.08,4.71-15.69,8.13-16.88,11.14s-3.82,8.77-5,15.79a10.73,10.73,0,0,0,.88,6.14c.94,2.32,2.57,3.63,5.39,5.51s5.7,3,8,4.51a22.46,22.46,0,0,1,6.39,5.7,22.91,22.91,0,0,1,4.2,7.83A29.83,29.83,0,0,1,768.23,562a18.09,18.09,0,0,1-1.25,6"/><polyline class="cls-1" points="794.85 571.12 777.68 572.94 762.46 566.17 731.27 570.68"/><path class="cls-2" d="M458.88,492.35c8.18,2.61,19.7,15.38,19.7,15.38l12.53,9.9L508.27,528l11,7,10,7.64,6.51,5.51,31.95,18.16,82.56,14.16,75.29,48.36,74.62,56.36"/><path class="cls-1" d="M720.87,686.19a20.47,20.47,0,0,0-4.45-1.38c-1.5-.25-5.32-.44-5.32-.44l-63.64-1.25L640.82,671l-11.15-10.15-13.41-2.38L596,662.7s-10.4,10-11.59,11.34a14.6,14.6,0,0,0-2.69,7.33,24.57,24.57,0,0,0,.25,6.39,59.73,59.73,0,0,0,1.63,6.52l12.9,51.36"/><path class="cls-1" d="M628.09,719.86s-.43-1-3.25-2.16a10.35,10.35,0,0,0-6.08-.13L574.92,737l-43-1.5-15.28-2.25"/><path class="cls-1" d="M659.55,547.76l-12,59.95h-5.14a12.9,12.9,0,0,1-2.26,0c-.63-.13-2.38-1-2.88-1.13s-2.13.5-2.75.38-4-1.38-4.51-1.5-1.57-.69-2.26-.37-1.06,1.57-1.5,1.88-9.77,6.83-10.15,7.14a5.84,5.84,0,0,0-.88,1.5l-6.51,30.19L601,651.42l-11.15.88a4.76,4.76,0,0,0-2,1c-.5.63-4,4.51-4,4.51l-2,.38"/><polyline class="cls-1" points="659.48 547.69 660.37 540.9 661.56 539.52 663.88 539.84 688.19 553.01 688.87 554.68 686.73 560.47 684.35 575.57 664.06 600.69 656.54 596.18 602.29 585.47 569.85 590.54"/><polyline class="cls-1" points="555.1 543.91 566.21 556.09 570.72 599.12 571.23 603.07 572.73 607.01 574.48 611.59 575.86 619.23 584.07 674.29"/><path class="cls-1" d="M583.56,674.79l-6.2,4-3,1.44-3.57,1.25-3.88,2.19L563,687.13l-26,26.06-2.32,4.32,3.95,1.19,3.88-.19,8.71-1.5,5.51-.69,6.45-.25,13.15.25,20.86-4.45,23.18-12.59-28.69-43.22,1.94-33.58,4.95-9.21s1.47-.72,2.26-1a1.32,1.32,0,0,0,.81-1.69c-.22-.6-14.28-40.72-14.28-40.72"/><path class="cls-1" d="M423.4,574.88a22.15,22.15,0,0,0-1.13,4.2,29.75,29.75,0,0,0-.44,6.89c.06,3.7.31,7.77.75,11.65s1.63,9.4,2.13,11.71a52.66,52.66,0,0,0,2.51,8.9,16.07,16.07,0,0,0,3.19,4.89c1.25,1.32,2.32,3,7.89,2.82s20.36-2.5,23.18-3a68.67,68.67,0,0,1,8.58-1c3.26-.19,8-.12,9.77-.19a13.8,13.8,0,0,0,6.83-1.75c2.32-1.44,9.21-5.89,12-7.58a64.61,64.61,0,0,1,11-5,24.68,24.68,0,0,1,6.2-1.13,1.41,1.41,0,0,1,1.38,1.69c-.19.5-4.51,11.65-4.51,11.65L479,633.45h-4.13"/><path class="cls-2" d="M424.15,651.11a13.57,13.57,0,0,1-1.19,7.33,45.78,45.78,0,0,1-4,6.7c-1.82,2.69-7,9.46-7,9.46"/><line class="cls-1" x1="413.81" y1="672.22" x2="399.59" y2="669.72"/><line class="cls-1" x1="463.24" y1="675.59" x2="454.59" y2="690.83"/><path class="cls-1" d="M408.42,574.94l-.25,6-7,17.35-2,2.38-17.67,8.24s-12,18.51-12.28,18.85-1.44.85-1.63,1.38a11.45,11.45,0,0,1-.44,2.38c-.44,1-8.71,5.32-8.71,5.32s-.59.38-.69.81a2.84,2.84,0,0,0,.19,1.19l.94,3.82a1.56,1.56,0,0,1,.06.63c-.06.19-.31.75-.31.75l-3.63,6"/><line class="cls-1" x1="413.31" y1="721.46" x2="399.78" y2="720.83"/><path class="cls-1" d="M410.12,830.95l-10.53-2.59-10.52-2.19-18.73-1.32a2.33,2.33,0,0,1-1-.13c-.47-.19-.31-1.13-.31-1.13L374,784.2,380,754.63s.72-2.63,1.19-4.07a31.33,31.33,0,0,1,1.88-4.26c.63-1.22,2.1-2.85,2.94-4.26a60.05,60.05,0,0,0,3.32-6.33,51.45,51.45,0,0,0,1.94-5.58,33.62,33.62,0,0,0,.94-4.7,22.77,22.77,0,0,0,.22-3.23c0-.72-.16-1.66-.13-2.1s.41-32.51.41-32.51a6.88,6.88,0,0,1,.09-1.16,2.72,2.72,0,0,1,.34-.78l6.15-7.3,4.76-7.89"/><path class="cls-1" d="M519.42,735a26.9,26.9,0,0,1-.25,3.07,13.21,13.21,0,0,1-1.38,3.88A22.45,22.45,0,0,0,514,752.59a8.79,8.79,0,0,0,.81,4.63,23.48,23.48,0,0,1,1.69,3.95,13.48,13.48,0,0,1,.38,4.2,21.2,21.2,0,0,0,.25,4.45c.19,1.13.63,3.38.94,5.07a39.38,39.38,0,0,1,.63,4.95c.13,1.88.56,5.76.82,7.08a22.38,22.38,0,0,0,2.25,5.45,53.9,53.9,0,0,0,2.88,4.57,33.81,33.81,0,0,0,3.7,4.57c1.69,1.82,8.39,9,10.65,11.34s13.13,13.95,13.13,13.95"/><path class="cls-1" d="M544.79,818.86,575.42,807a30.24,30.24,0,0,0,4.39-2,11,11,0,0,0,3.95-3.82,24.65,24.65,0,0,0,2.44-6.14,16.08,16.08,0,0,0,.69-5.45c-.13-2-4.13-42.22-4.13-42.22s-.12-.81.44-.75,6.7.44,6.7.44l4.7-.5,17.66-7.2-7-15.85"/><path class="cls-1" d="M328.4,517.07a91.8,91.8,0,0,0,12-10.48c5.35-5.74,9.47-10.65,9.47-10.65s3.11-6.34,3.92-8.41a20.51,20.51,0,0,0,1-6.64,65.69,65.69,0,0,0-.28-8.2c-.19-1.57-1.08-5.07-3-7.13a11.76,11.76,0,0,0-5.15-3.37,30.85,30.85,0,0,0-6.21-1.23,36,36,0,0,0-7.39.09,18.8,18.8,0,0,0-6.51,2.53c-1.81,1.32-3.62,2.58-5.37,3.9s-8.37,6.79-10.12,8.18-5.18,4.34-6.56,5.35a23.76,23.76,0,0,1-5.63,3.15c-2.13.76-5.92-.23-5.92-.23"/><polyline class="cls-1" points="658.54 683.31 658.54 686.69 647.96 700.97 646.52 707.55 647.02 717.45 658.86 717.45 658.98 719.45 688.05 719.33 694.81 723.65"/><path class="cls-2" d="M718.68,496.28l-3.08,47L714,553l-2.5,8.71-3.13,8.08-3.82,16-1.38,9.65-.06,12.09,1.94,12.15L716.42,671l.56,8.9-1.94,9.9L711,699l-4.45,5.89-42.28,46L605,806.52l-4.38,3.76-37.33,26.43-55.62,37s-4.85,3.05-6.26,3.88a30.69,30.69,0,0,1-8.64,2.63c-3.37.51-7.91,1.17-11,1.3s-75.94-7.94-75.94-7.94l-6-.56-17.68-2.85a13.65,13.65,0,0,1-4-.5,26.24,26.24,0,0,1-4.26-1.5L267.35,827.29a33.75,33.75,0,0,1-8.27-5.39,77.45,77.45,0,0,1-7.52-9c-2.13-2.88-31.07-43-31.07-43l-25.06-35.7-29.31-42.47L147.46,659,135.06,632s-2.63-6.51-3.26-9-.63-2.76-1-4.76-1.25-5.64-2.13-8.64a21.5,21.5,0,0,0-3-7c-1.38-1.88-5.76-6.89-7.64-9.15s-5.51-6.26-7.52-8.77-4.39-5.14-6.64-8a104.61,104.61,0,0,1-7.77-12.28,63.81,63.81,0,0,1-4.38-9.77c-1-3.38-18.77-57.6-18.77-57.6"/><line class="cls-1" x1="142.79" y1="541.69" x2="142.66" y2="527.73"/><line class="cls-1" x1="347.59" y1="1033.62" x2="396.66" y2="1055.72"/><polyline class="cls-1" points="355.42 991.69 363.7 997.59 370.93 999.71 375.82 1002.77 383.25 1006.78 384.48 1012.05 386.04 1015.18 388.83 1016.57 393.03 1020.93 396.85 1024.47 404.5 1028.24"/><path class="cls-1" d="M49.48,324.8s-15.79,9-22.19,13.7S6,355.72,6,355.72"/><path class="cls-1" d="M83.61,441.33c-1.11-.78-5.68-2.15-9.53-1.44S47,447.86,36.56,452s-10.7,3.91-12.27,4.18A16.57,16.57,0,0,0,18,459.73c-1,1.17-2.55,5.95-5,7.25l-6.2,2.48"/><path class="cls-2" d="M418.66,462.07l-.28,21.11-1.31,16.47.88,19.23s-1.19,10-1.5,12.59-.75,9.33-.75,9.33l.25,19.73s-1.57,10.59-1.82,12.65a44.67,44.67,0,0,0-.56,6.14c.06,1.75.31,4.13.25,5.07a27,27,0,0,1-.69,4.13,12.23,12.23,0,0,0-1.06,3c0,.88,1.38,10.77,1.94,13.66a83.28,83.28,0,0,0,2,8.27c.88,2.94,1.94,5.32,2.82,8.39s2.19,9.27,2.19,9.27l2.25,15.1a92.84,92.84,0,0,0,2.25,10.33,44.93,44.93,0,0,0,3.45,8.52,47.45,47.45,0,0,0,4.76,7.52,72.79,72.79,0,0,0,5.83,6.77,34.5,34.5,0,0,0,5.64,4.95c3.63,2.76,8.64,6.08,8.64,6.08s63,42.91,65.46,44.66a84.28,84.28,0,0,1,7.89,6.14,39.9,39.9,0,0,1,6.7,7.27,36.41,36.41,0,0,1,4.7,8.71c1.57,3.76,5,13.72,5.83,16.79s1.88,7.45,2.32,9.71,1.82,7.89,1.82,7.89,16.75,37.3,20.3,45.16,28.87,13.6,36.44,28.22,22.06,29.36,30.8,40.46c9.66,12.27,57.16,62.12,57.16,62.12"/><path class="cls-2" d="M412,672s1.63,58.5,1.69,60.13a34.87,34.87,0,0,1-.31,6.7,68.46,68.46,0,0,1-1.88,9.58c-.81,3-12,46.16-12,46.16"/><path class="cls-1" d="M515.35,215.4h0L489.1,189.81s-2.24-6.56-2.37-7.56-.15-3.44-.15-3.44.83-6.27.82-7.27a30.34,30.34,0,0,0-.47-4.38c-.26-1.38-8.41-43.75-8.41-43.75"/></g></g></svg>